LinguisticsPro-Regular.ufo
<glyph name="quotedbl" format="1">
  <advance width="458"/>
  <unicode hex="0022"/>
  <outline>
    <contour>
      <point x="101" y="703" type="curve" smooth="yes"/>
      <point x="101" y="729"/>
      <point x="115" y="742"/>
      <point x="147" y="742" type="curve" smooth="yes"/>
      <point x="179" y="742"/>
      <point x="193" y="729"/>
      <point x="193" y="703" type="curve" smooth="yes"/>
      <point x="193" y="698"/>
      <point x="193" y="694"/>
      <point x="192" y="689" type="curve" smooth="yes"/>
      <point x="157" y="464" type="line"/>
      <point x="137" y="464" type="line"/>
      <point x="102" y="689" type="line" smooth="yes"/>
      <point x="101" y="694"/>
      <point x="101" y="698"/>
    </contour>
    <contour>
      <point x="266" y="703" type="curve" smooth="yes"/>
      <point x="266" y="729"/>
      <point x="280" y="742"/>
      <point x="312" y="742" type="curve" smooth="yes"/>
      <point x="344" y="742"/>
      <point x="358" y="729"/>
      <point x="358" y="703" type="curve" smooth="yes"/>
      <point x="358" y="698"/>
      <point x="358" y="694"/>
      <point x="357" y="689" type="curve" smooth="yes"/>
      <point x="322" y="464" type="line"/>
      <point x="302" y="464" type="line"/>
      <point x="267" y="689" type="line" smooth="yes"/>
      <point x="266" y="694"/>
      <point x="266" y="698"/>
    </contour>
  </outline>
</glyph>
<glyph name="percent" format="1">
  <advance width="838"/>
  <unicode hex="0025"/>
  <outline>
    <contour>
      <point x="50" y="497" type="curve" smooth="yes"/>
      <point x="50" y="612"/>
      <point x="101" y="680"/>
      <point x="207" y="680" type="curve" smooth="yes"/>
      <point x="258" y="680"/>
      <point x="291" y="666"/>
      <point x="318" y="646" type="curve" smooth="yes"/>
      <point x="333" y="636"/>
      <point x="338" y="633"/>
      <point x="361" y="633" type="curve" smooth="yes"/>
      <point x="530" y="633" type="line" smooth="yes"/>
      <point x="564" y="635"/>
      <point x="583" y="641"/>
      <point x="601" y="666" type="curve" smooth="yes"/>
      <point x="625" y="700" type="line"/>
      <point x="659" y="679" type="line"/>
      <point x="219" y="-25" type="line"/>
      <point x="183" y="2" type="line"/>
      <point x="557" y="601" type="line"/>
      <point x="352" y="601" type="line"/>
      <point x="359" y="582"/>
      <point x="365" y="549"/>
      <point x="365" y="497" type="curve" smooth="yes"/>
      <point x="365" y="382"/>
      <point x="314" y="314"/>
      <point x="207" y="314" type="curve" smooth="yes"/>
      <point x="101" y="314"/>
      <point x="50" y="382"/>
    </contour>
    <contour>
      <point x="124" y="497" type="curve" smooth="yes"/>
      <point x="124" y="401"/>
      <point x="155" y="346"/>
      <point x="207" y="346" type="curve" smooth="yes"/>
      <point x="260" y="346"/>
      <point x="291" y="401"/>
      <point x="291" y="497" type="curve" smooth="yes"/>
      <point x="291" y="601"/>
      <point x="258" y="648"/>
      <point x="207" y="648" type="curve" smooth="yes"/>
      <point x="157" y="648"/>
      <point x="124" y="601"/>
    </contour>
    <contour>
      <point x="473" y="171" type="curve" smooth="yes"/>
      <point x="473" y="286"/>
      <point x="524" y="354"/>
      <point x="630" y="354" type="curve" smooth="yes"/>
      <point x="737" y="354"/>
      <point x="788" y="286"/>
      <point x="788" y="171" type="curve" smooth="yes"/>
      <point x="788" y="56"/>
      <point x="737" y="-12"/>
      <point x="630" y="-12" type="curve" smooth="yes"/>
      <point x="524" y="-12"/>
      <point x="473" y="56"/>
    </contour>
    <contour>
      <point x="547" y="171" type="curve" smooth="yes"/>
      <point x="547" y="75"/>
      <point x="578" y="20"/>
      <point x="630" y="20" type="curve" smooth="yes"/>
      <point x="683" y="20"/>
      <point x="714" y="75"/>
      <point x="714" y="171" type="curve" smooth="yes"/>
      <point x="714" y="275"/>
      <point x="681" y="322"/>
      <point x="630" y="322" type="curve" smooth="yes"/>
      <point x="580" y="322"/>
      <point x="547" y="275"/>
    </contour>
  </outline>
</glyph>
<glyph name="ampersand" format="1">
  <advance width="706"/>
  <unicode hex="0026"/>
  <outline>
    <contour>
      <point x="46" y="176" type="curve" smooth="yes"/>
      <point x="46" y="274"/>
      <point x="125" y="325"/>
      <point x="192" y="366" type="curve"/>
      <point x="160" y="406"/>
      <point x="126" y="453"/>
      <point x="126" y="521" type="curve" smooth="yes"/>
      <point x="126" y="608"/>
      <point x="195" y="680"/>
      <point x="289" y="680" type="curve" smooth="yes"/>
      <point x="370" y="680"/>
      <point x="437" y="630"/>
      <point x="437" y="542" type="curve" smooth="yes"/>
      <point x="437" y="462"/>
      <point x="369" y="423"/>
      <point x="291" y="382" type="curve"/>
      <point x="348" y="312"/>
      <point x="411" y="243"/>
      <point x="501" y="161" type="curve"/>
      <point x="551" y="219"/>
      <point x="565" y="295"/>
      <point x="565" y="362" type="curve" smooth="yes"/>
      <point x="565" y="381"/>
      <point x="564" y="399"/>
      <point x="562" y="416" type="curve"/>
      <point x="583" y="428"/>
      <point x="606" y="434"/>
      <point x="626" y="434" type="curve" smooth="yes"/>
      <point x="630" y="434"/>
      <point x="634" y="434"/>
      <point x="638" y="433" type="curve"/>
      <point x="651" y="407"/>
      <point x="657" y="387"/>
      <point x="657" y="368" type="curve" smooth="yes"/>
      <point x="657" y="355"/>
      <point x="654" y="343"/>
      <point x="650" y="330" type="curve" smooth="yes"/>
      <point x="628" y="266"/>
      <point x="587" y="206"/>
      <point x="527" y="136" type="curve"/>
      <point x="566" y="98"/>
      <point x="644" y="31"/>
      <point x="692" y="18" type="curve"/>
      <point x="687" y="-7" type="line"/>
      <point x="666" y="-5" type="line" smooth="yes"/>
      <point x="605" y="0"/>
      <point x="548" y="12"/>
      <point x="500" y="51" type="curve" smooth="yes"/>
      <point x="472" y="73" type="line"/>
      <point x="406" y="15"/>
      <point x="339" y="-12"/>
      <point x="264" y="-12" type="curve" smooth="yes"/>
      <point x="140" y="-12"/>
      <point x="46" y="56"/>
    </contour>
    <contour>
      <point x="143" y="196" type="curve" smooth="yes"/>
      <point x="143" y="101"/>
      <point x="208" y="37"/>
      <point x="294" y="37" type="curve" smooth="yes"/>
      <point x="359" y="37"/>
      <point x="401" y="60"/>
      <point x="445" y="98" type="curve"/>
      <point x="355" y="179"/>
      <point x="278" y="259"/>
      <point x="212" y="338" type="curve"/>
      <point x="189" y="318"/>
      <point x="143" y="275"/>
    </contour>
    <contour>
      <point x="203" y="546" type="curve" smooth="yes"/>
      <point x="203" y="496"/>
      <point x="227" y="452"/>
      <point x="268" y="406" type="curve"/>
      <point x="323" y="444"/>
      <point x="360" y="491"/>
      <point x="360" y="548" type="curve" smooth="yes"/>
      <point x="360" y="602"/>
      <point x="335" y="645"/>
      <point x="285" y="645" type="curve" smooth="yes"/>
      <point x="242" y="645"/>
      <point x="203" y="606"/>
    </contour>
  </outline>
</glyph>
<glyph name="parenleft" format="1">
  <advance width="350"/>
  <unicode hex="0028"/>
  <outline>
    <contour>
      <point x="105" y="282" type="curve" smooth="yes"/>
      <point x="105" y="468"/>
      <point x="150" y="685"/>
      <point x="325" y="692" type="curve"/>
      <point x="325" y="667" type="line"/>
      <point x="262" y="654"/>
      <point x="175" y="568"/>
      <point x="175" y="282" type="curve" smooth="yes"/>
      <point x="175" y="-6"/>
      <point x="267" y="-91"/>
      <point x="325" y="-103" type="curve"/>
      <point x="325" y="-128" type="line"/>
      <point x="150" y="-121"/>
      <point x="105" y="96"/>
    </contour>
  </outline>
</glyph>
<glyph name="asterisk" format="1">
  <advance width="412"/>
  <unicode hex="002A"/>
  <outline>
    <contour>
      <point x="50" y="607" type="curve" smooth="yes"/>
      <point x="50" y="614"/>
      <point x="52" y="621"/>
      <point x="57" y="628" type="curve" smooth="yes"/>
      <point x="65" y="640"/>
      <point x="74" y="645"/>
      <point x="83" y="645" type="curve" smooth="yes"/>
      <point x="90" y="645"/>
      <point x="98" y="641"/>
      <point x="105" y="635" type="curve" smooth="yes"/>
      <point x="181" y="571" type="line" smooth="yes"/>
      <point x="191" y="562"/>
      <point x="198" y="565"/>
      <point x="194" y="582" type="curve" smooth="yes"/>
      <point x="175" y="676" type="line" smooth="yes"/>
      <point x="174" y="679"/>
      <point x="174" y="682"/>
      <point x="174" y="684" type="curve" smooth="yes"/>
      <point x="174" y="699"/>
      <point x="185" y="707"/>
      <point x="206" y="707" type="curve" smooth="yes"/>
      <point x="227" y="707"/>
      <point x="238" y="699"/>
      <point x="238" y="684" type="curve" smooth="yes"/>
      <point x="238" y="682"/>
      <point x="238" y="679"/>
      <point x="237" y="676" type="curve" smooth="yes"/>
      <point x="218" y="582" type="line" smooth="yes"/>
      <point x="214" y="565"/>
      <point x="221" y="562"/>
      <point x="231" y="571" type="curve" smooth="yes"/>
      <point x="308" y="636" type="line" smooth="yes"/>
      <point x="314" y="642"/>
      <point x="322" y="645"/>
      <point x="330" y="645" type="curve" smooth="yes"/>
      <point x="339" y="645"/>
      <point x="348" y="640"/>
      <point x="356" y="628" type="curve" smooth="yes"/>
      <point x="360" y="621"/>
      <point x="363" y="614"/>
      <point x="363" y="607" type="curve" smooth="yes"/>
      <point x="363" y="598"/>
      <point x="357" y="588"/>
      <point x="343" y="583" type="curve" smooth="yes"/>
      <point x="247" y="545" type="line" smooth="yes"/>
      <point x="237" y="542"/>
      <point x="232" y="538"/>
      <point x="232" y="534" type="curve" smooth="yes"/>
      <point x="232" y="531"/>
      <point x="236" y="528"/>
      <point x="244" y="525" type="curve" smooth="yes"/>
      <point x="340" y="486" type="line" smooth="yes"/>
      <point x="354" y="480"/>
      <point x="361" y="470"/>
      <point x="361" y="459" type="curve" smooth="yes"/>
      <point x="361" y="452"/>
      <point x="358" y="445"/>
      <point x="353" y="437" type="curve" smooth="yes"/>
      <point x="346" y="427"/>
      <point x="337" y="422"/>
      <point x="327" y="422" type="curve" smooth="yes"/>
      <point x="320" y="422"/>
      <point x="312" y="425"/>
      <point x="305" y="432" type="curve" smooth="yes"/>
      <point x="233" y="501" type="line" smooth="yes"/>
      <point x="228" y="505"/>
      <point x="225" y="507"/>
      <point x="222" y="507" type="curve" smooth="yes"/>
      <point x="219" y="507"/>
      <point x="217" y="504"/>
      <point x="217" y="498" type="curve" smooth="yes"/>
      <point x="217" y="495"/>
      <point x="217" y="492"/>
      <point x="218" y="489" type="curve" smooth="yes"/>
      <point x="237" y="396" type="line" smooth="yes"/>
      <point x="238" y="392"/>
      <point x="238" y="388"/>
      <point x="238" y="385" type="curve" smooth="yes"/>
      <point x="238" y="368"/>
      <point x="228" y="356"/>
      <point x="206" y="356" type="curve" smooth="yes"/>
      <point x="184" y="356"/>
      <point x="174" y="368"/>
      <point x="174" y="385" type="curve" smooth="yes"/>
      <point x="174" y="388"/>
      <point x="174" y="392"/>
      <point x="175" y="396" type="curve" smooth="yes"/>
      <point x="194" y="489" type="line" smooth="yes"/>
      <point x="195" y="492"/>
      <point x="195" y="495"/>
      <point x="195" y="498" type="curve" smooth="yes"/>
      <point x="195" y="504"/>
      <point x="193" y="507"/>
      <point x="190" y="507" type="curve" smooth="yes"/>
      <point x="187" y="507"/>
      <point x="184" y="505"/>
      <point x="179" y="501" type="curve" smooth="yes"/>
      <point x="107" y="433" type="line" smooth="yes"/>
      <point x="99" y="426"/>
      <point x="91" y="422"/>
      <point x="84" y="422" type="curve" smooth="yes"/>
      <point x="75" y="422"/>
      <point x="66" y="427"/>
      <point x="59" y="437" type="curve" smooth="yes"/>
      <point x="54" y="445"/>
      <point x="52" y="452"/>
      <point x="52" y="459" type="curve" smooth="yes"/>
      <point x="52" y="471"/>
      <point x="58" y="480"/>
      <point x="72" y="486" type="curve" smooth="yes"/>
      <point x="168" y="525" type="line" smooth="yes"/>
      <point x="176" y="528"/>
      <point x="180" y="531"/>
      <point x="180" y="534" type="curve" smooth="yes"/>
      <point x="180" y="538"/>
      <point x="175" y="542"/>
      <point x="165" y="545" type="curve" smooth="yes"/>
      <point x="70" y="582" type="line" smooth="yes"/>
      <point x="55" y="588"/>
      <point x="50" y="597"/>
    </contour>
  </outline>
</glyph>
<glyph name="period" format="1">
  <advance width="265"/>
  <unicode hex="002E"/>
  <outline>
    <contour>
      <point x="70" y="51" type="curve" smooth="yes"/>
      <point x="70" y="88"/>
      <point x="95" y="116"/>
      <point x="133" y="116" type="curve" smooth="yes"/>
      <point x="172" y="116"/>
      <point x="196" y="88"/>
      <point x="196" y="51" type="curve" smooth="yes"/>
      <point x="195" y="15"/>
      <point x="172" y="-12"/>
      <point x="133" y="-12" type="curve" smooth="yes"/>
      <point x="95" y="-12"/>
      <point x="70" y="15"/>
    </contour>
  </outline>
</glyph>
<glyph name="one" format="2">
	<unicode hex="0031"/>
	<advance width="530"/>
	<outline>
		<contour>
			<point x="109" y="0" type="line"/>
			<point x="109" y="29" type="line"/>
			<point x="193" y="36" type="line" smooth="yes"/>
			<point x="221.914" y="38.6286"/>
			<point x="226" y="59.3945"/>
			<point x="226" y="85" type="curve" smooth="yes"/>
			<point x="226" y="570" type="line" smooth="yes"/>
			<point x="226" y="599"/>
			<point x="219" y="607"/>
			<point x="202" y="609" type="curve" smooth="yes"/>
			<point x="109" y="620" type="line"/>
			<point x="109" y="645" type="line"/>
			<point x="315" y="680" type="line"/>
			<point x="320" y="674" type="line"/>
			<point x="320" y="85" type="line" smooth="yes"/>
			<point x="320" y="46"/>
			<point x="332" y="38"/>
			<point x="353" y="36" type="curve" smooth="yes"/>
			<point x="437" y="29" type="line"/>
			<point x="437" y="0" type="line"/>
		</contour>
	</outline>
</glyph>
<glyph name="four" format="2">
	<unicode hex="0034"/>
	<advance width="530"/>
	<outline>
		<contour>
			<point x="19" y="200" type="line"/>
			<point x="111" y="356"/>
			<point x="223" y="530"/>
			<point x="317" y="668" type="curve"/>
			<point x="390" y="668" type="line"/>
			<point x="390" y="226" type="line"/>
			<point x="493" y="226" type="line"/>
			<point x="493" y="179" type="line"/>
			<point x="390" y="179" type="line"/>
			<point x="390" y="77" type="line" smooth="yes"/>
			<point x="390" y="43"/>
			<point x="397" y="37"/>
			<point x="420" y="34" type="curve" smooth="yes"/>
			<point x="465" y="29" type="line"/>
			<point x="465" y="0" type="line"/>
			<point x="201" y="0" type="line"/>
			<point x="201" y="29" type="line"/>
			<point x="265" y="35" type="line" smooth="yes"/>
			<point x="289" y="37"/>
			<point x="300" y="43"/>
			<point x="300" y="77" type="curve" smooth="yes"/>
			<point x="300" y="179" type="line"/>
			<point x="28" y="179" type="line"/>
		</contour>
		<contour>
			<point x="91" y="226" type="curve"/>
			<point x="300" y="226" type="line"/>
			<point x="300" y="571" type="line"/>
			<point x="298" y="571" type="line"/>
			<point x="221" y="450"/>
			<point x="151" y="335"/>
		</contour>
	</outline>
</glyph>
<glyph name="six" format="1">
  <advance width="530"/>
  <unicode hex="0036"/>
  <outline>
    <contour>
      <point x="44" y="309" type="curve" smooth="yes"/>
      <point x="44" y="558"/>
      <point x="141" y="680"/>
      <point x="300" y="680" type="curve" smooth="yes"/>
      <point x="420" y="680"/>
      <point x="469" y="613"/>
      <point x="469" y="573" type="curve" smooth="yes"/>
      <point x="469" y="545"/>
      <point x="438" y="528"/>
      <point x="416" y="528" type="curve" smooth="yes"/>
      <point x="401" y="528"/>
      <point x="393" y="537"/>
      <point x="390" y="549" type="curve" smooth="yes"/>
      <point x="375" y="606"/>
      <point x="343" y="645"/>
      <point x="297" y="645" type="curve" smooth="yes"/>
      <point x="207" y="645"/>
      <point x="144" y="556"/>
      <point x="143" y="336" type="curve"/>
      <point x="145" y="336" type="line"/>
      <point x="172" y="369"/>
      <point x="229" y="422"/>
      <point x="308" y="422" type="curve" smooth="yes"/>
      <point x="415" y="422"/>
      <point x="499" y="349"/>
      <point x="499" y="214" type="curve" smooth="yes"/>
      <point x="499" y="78"/>
      <point x="420" y="-12"/>
      <point x="272" y="-12" type="curve" smooth="yes"/>
      <point x="122" y="-12"/>
      <point x="44" y="93"/>
    </contour>
    <contour>
      <point x="145" y="236" type="curve" smooth="yes"/>
      <point x="145" y="116"/>
      <point x="187" y="23"/>
      <point x="274" y="23" type="curve" smooth="yes"/>
      <point x="358" y="23"/>
      <point x="399" y="94"/>
      <point x="399" y="199" type="curve" smooth="yes"/>
      <point x="399" y="314"/>
      <point x="337" y="371"/>
      <point x="274" y="371" type="curve" smooth="yes"/>
      <point x="190" y="371"/>
      <point x="145" y="297"/>
    </contour>
  </outline>
</glyph>
<glyph name="seven" format="2">
	<unicode hex="0037"/>
	<advance width="530"/>
	<outline>
		<contour>
			<point x="41" y="528" type="line"/>
			<point x="72" y="668" type="line"/>
			<point x="489" y="668" type="line"/>
			<point x="498" y="657" type="line"/>
			<point x="470.889" y="574.337"/>
			<point x="420.718" y="470.918"/>
			<point x="346" y="357" type="curve" smooth="yes"/>
			<point x="275.687" y="249.798"/>
			<point x="271" y="148.505"/>
			<point x="271" y="24" type="curve" smooth="yes"/>
			<point x="271" y="-3"/>
			<point x="250.608" y="-12"/>
			<point x="219.644" y="-12" type="curve" smooth="yes"/>
			<point x="190.451" y="-12"/>
			<point x="167" y="-4"/>
			<point x="167" y="29" type="curve" smooth="yes"/>
			<point x="167" y="147"/>
			<point x="225.118" y="259"/>
			<point x="306.194" y="375.113" type="curve" smooth="yes"/>
			<point x="392" y="498"/>
			<point x="410" y="556"/>
			<point x="420" y="592" type="curve"/>
			<point x="149" y="592" type="line" smooth="yes"/>
			<point x="104" y="592"/>
			<point x="91" y="577"/>
			<point x="78" y="549" type="curve" smooth="yes"/>
			<point x="68" y="528" type="line"/>
		</contour>
	</outline>
</glyph>
<glyph name="eight" format="2">
	<unicode hex="0038"/>
	<advance width="530"/>
	<outline>
		<contour>
			<point x="42" y="181.39" type="curve" smooth="yes"/>
			<point x="42" y="284.829"/>
			<point x="107" y="342.889"/>
			<point x="174" y="358.444" type="curve"/>
			<point x="174" y="361.361" type="line"/>
			<point x="114" y="377"/>
			<point x="64" y="428"/>
			<point x="64" y="510" type="curve" smooth="yes"/>
			<point x="64" y="618"/>
			<point x="150" y="680"/>
			<point x="265" y="680" type="curve" smooth="yes"/>
			<point x="380" y="680"/>
			<point x="466" y="618"/>
			<point x="466" y="510" type="curve" smooth="yes"/>
			<point x="466" y="428"/>
			<point x="417" y="377"/>
			<point x="356" y="361.361" type="curve"/>
			<point x="356" y="358.444" type="line"/>
			<point x="424" y="342.889"/>
			<point x="488" y="284.829"/>
			<point x="488" y="182.505" type="curve" smooth="yes"/>
			<point x="488" y="81.1841"/>
			<point x="427" y="-12"/>
			<point x="265" y="-12" type="curve" smooth="yes"/>
			<point x="103" y="-12"/>
			<point x="42" y="81.1841"/>
		</contour>
		<contour>
			<point x="142" y="179.495" type="curve" smooth="yes"/>
			<point x="142" y="91.2159"/>
			<point x="181" y="23"/>
			<point x="265" y="23" type="curve" smooth="yes"/>
			<point x="349" y="23"/>
			<point x="388" y="91.2159"/>
			<point x="388" y="179.495" type="curve" smooth="yes"/>
			<point x="388" y="270.784"/>
			<point x="345" y="339"/>
			<point x="265" y="339" type="curve" smooth="yes"/>
			<point x="185" y="339"/>
			<point x="142" y="270.784"/>
		</contour>
		<contour>
			<point x="161" y="514.366" type="curve" smooth="yes"/>
			<point x="161" y="444"/>
			<point x="193" y="374"/>
			<point x="265" y="374" type="curve" smooth="yes"/>
			<point x="337" y="374"/>
			<point x="369" y="444"/>
			<point x="369" y="514.366" type="curve" smooth="yes"/>
			<point x="369" y="589"/>
			<point x="333" y="645"/>
			<point x="265" y="645" type="curve" smooth="yes"/>
			<point x="197" y="645"/>
			<point x="161" y="589"/>
		</contour>
	</outline>
</glyph>
<glyph name="nine" format="2">
	<unicode hex="0039"/>
	<advance width="530"/>
	<outline>
		<contour>
			<point x="36" y="462.777" type="curve" smooth="yes"/>
			<point x="36" y="595"/>
			<point x="127.08" y="680"/>
			<point x="257.676" y="680" type="curve" smooth="yes"/>
			<point x="440.328" y="680"/>
			<point x="477" y="513.733"/>
			<point x="477" y="361" type="curve" smooth="yes"/>
			<point x="477" y="187.922"/>
			<point x="444.164" y="-12"/>
			<point x="227.79" y="-12" type="curve" smooth="yes"/>
			<point x="108.27" y="-12"/>
			<point x="55.8" y="49"/>
			<point x="55.8" y="93" type="curve" smooth="yes"/>
			<point x="55.8" y="124"/>
			<point x="83.52" y="144"/>
			<point x="105.352" y="144" type="curve" smooth="yes"/>
			<point x="119.16" y="144"/>
			<point x="126.09" y="136"/>
			<point x="130.05" y="123" type="curve" smooth="yes"/>
			<point x="145" y="76"/>
			<point x="170" y="23"/>
			<point x="235.527" y="23" type="curve" smooth="yes"/>
			<point x="373.688" y="23"/>
			<point x="378" y="258.623"/>
			<point x="378" y="352" type="curve"/>
			<point x="376" y="352" type="line"/>
			<point x="342" y="303"/>
			<point x="290" y="268"/>
			<point x="219.897" y="268" type="curve" smooth="yes"/>
			<point x="125.1" y="268"/>
			<point x="36" y="332"/>
		</contour>
		<contour>
			<point x="135" y="485" type="curve" smooth="yes"/>
			<point x="135" y="389"/>
			<point x="180" y="321"/>
			<point x="259.82" y="321" type="curve" smooth="yes"/>
			<point x="336.344" y="321"/>
			<point x="373" y="383.499"/>
			<point x="373" y="453" type="curve" smooth="yes"/>
			<point x="373" y="550"/>
			<point x="334" y="645"/>
			<point x="248.412" y="645" type="curve" smooth="yes"/>
			<point x="176" y="645"/>
			<point x="135" y="577"/>
		</contour>
	</outline>
</glyph>
<glyph name="at" format="2">
	<unicode hex="0040"/>
	<advance width="793"/>
	<outline>
		<contour>
			<point x="46" y="303" type="curve" smooth="yes"/>
			<point x="46" y="557"/>
			<point x="243" y="707"/>
			<point x="448" y="707" type="curve" smooth="yes"/>
			<point x="639" y="707"/>
			<point x="755" y="576"/>
			<point x="755" y="424" type="curve" smooth="yes"/>
			<point x="755" y="277"/>
			<point x="647" y="172"/>
			<point x="532" y="172" type="curve" smooth="yes"/>
			<point x="487" y="172"/>
			<point x="460" y="188"/>
			<point x="460" y="235" type="curve" smooth="yes"/>
			<point x="460" y="254"/>
			<point x="464" y="279"/>
			<point x="474" y="309" type="curve"/>
			<point x="472" y="310" type="line"/>
			<point x="444" y="260"/>
			<point x="368" y="172"/>
			<point x="293" y="172" type="curve" smooth="yes"/>
			<point x="259" y="172"/>
			<point x="223" y="190"/>
			<point x="223" y="247" type="curve" smooth="yes"/>
			<point x="223" y="329"/>
			<point x="297" y="533"/>
			<point x="476" y="533" type="curve" smooth="yes"/>
			<point x="498" y="533"/>
			<point x="511" y="530"/>
			<point x="530" y="520" type="curve"/>
			<point x="534" y="528" type="line"/>
			<point x="599" y="528" type="line"/>
			<point x="533" y="270" type="line"/>
			<point x="530" y="260"/>
			<point x="529" y="251"/>
			<point x="529" y="244" type="curve" smooth="yes"/>
			<point x="529" y="217"/>
			<point x="545" y="210"/>
			<point x="564" y="210" type="curve" smooth="yes"/>
			<point x="634" y="210"/>
			<point x="705" y="306"/>
			<point x="705" y="409" type="curve" smooth="yes"/>
			<point x="705" y="576"/>
			<point x="593" y="666"/>
			<point x="450" y="666" type="curve" smooth="yes"/>
			<point x="250" y="666"/>
			<point x="124" y="490"/>
			<point x="124" y="312" type="curve" smooth="yes"/>
			<point x="124" y="184"/>
			<point x="190" y="26"/>
			<point x="412" y="26" type="curve" smooth="yes"/>
			<point x="473" y="26"/>
			<point x="539" y="38"/>
			<point x="584" y="57" type="curve"/>
			<point x="592" y="32" type="line"/>
			<point x="530" y="-3"/>
			<point x="449" y="-15"/>
			<point x="391" y="-15" type="curve" smooth="yes"/>
			<point x="220" y="-15"/>
			<point x="46" y="88"/>
		</contour>
		<contour>
			<point x="305" y="265" type="curve" smooth="yes"/>
			<point x="305" y="237"/>
			<point x="317" y="219"/>
			<point x="337" y="219" type="curve" smooth="yes"/>
			<point x="389" y="219"/>
			<point x="476" y="340"/>
			<point x="504" y="430" type="curve" smooth="yes"/>
			<point x="523" y="490" type="line"/>
			<point x="508" y="500"/>
			<point x="496" y="504"/>
			<point x="480" y="504" type="curve" smooth="yes"/>
			<point x="371" y="504"/>
			<point x="305" y="331"/>
		</contour>
	</outline>
</glyph>
<glyph name="F" format="2">
	<unicode hex="0046"/>
	<advance width="580"/>
	<outline>
		<contour>
			<point x="35" y="0" type="line"/>
			<point x="35" y="29" type="line"/>
			<point x="123" y="35"/>
			<point x="125" y="37"/>
			<point x="125" y="93" type="curve" smooth="yes"/>
			<point x="125" y="599" type="line" smooth="yes"/>
			<point x="125" y="655"/>
			<point x="123" y="657"/>
			<point x="35" y="663" type="curve"/>
			<point x="35" y="692" type="line"/>
			<point x="543" y="692" type="line"/>
			<point x="543" y="532" type="line"/>
			<point x="513" y="532" type="line"/>
			<point x="499" y="634"/>
			<point x="476" y="657"/>
			<point x="360" y="657" type="curve" smooth="yes"/>
			<point x="261" y="657" type="line" smooth="yes"/>
			<point x="228" y="657"/>
			<point x="224" y="654"/>
			<point x="224" y="621" type="curve" smooth="yes"/>
			<point x="224" y="365" type="line"/>
			<point x="364" y="365" type="line" smooth="yes"/>
			<point x="449" y="365"/>
			<point x="453" y="389"/>
			<point x="462" y="453" type="curve"/>
			<point x="492" y="453" type="line"/>
			<point x="492" y="239" type="line"/>
			<point x="462" y="239" type="line"/>
			<point x="453" y="303"/>
			<point x="449" y="327"/>
			<point x="364" y="327" type="curve" smooth="yes"/>
			<point x="224" y="327" type="line"/>
			<point x="224" y="93" type="line" smooth="yes"/>
			<point x="224" y="37"/>
			<point x="227" y="35"/>
			<point x="330" y="29" type="curve"/>
			<point x="330" y="0" type="line"/>
		</contour>
	</outline>
</glyph>
<glyph name="N" format="2">
	<unicode hex="004E"/>
	<advance width="780"/>
	<outline>
		<contour>
			<point x="34" y="663" type="curve"/>
			<point x="34" y="692" type="line"/>
			<point x="226" y="692" type="line"/>
			<point x="616" y="138" type="line"/>
			<point x="618" y="138" type="line"/>
			<point x="618" y="489" type="line" smooth="yes"/>
			<point x="618" y="542"/>
			<point x="616" y="580"/>
			<point x="611" y="613" type="curve" smooth="yes"/>
			<point x="605" y="655"/>
			<point x="581" y="658"/>
			<point x="516" y="663" type="curve"/>
			<point x="516" y="692" type="line"/>
			<point x="753" y="692" type="line"/>
			<point x="753" y="663" type="line"/>
			<point x="701" y="659"/>
			<point x="677" y="655"/>
			<point x="671" y="613" type="curve" smooth="yes"/>
			<point x="666" y="580"/>
			<point x="664" y="542"/>
			<point x="664" y="489" type="curve" smooth="yes"/>
			<point x="664" y="0" type="line"/>
			<point x="598" y="0" type="line"/>
			<point x="172" y="602" type="line"/>
			<point x="170" y="602" type="line"/>
			<point x="170" y="203" type="line" smooth="yes"/>
			<point x="170" y="150"/>
			<point x="172" y="112"/>
			<point x="177" y="79" type="curve" smooth="yes"/>
			<point x="183" y="37"/>
			<point x="207" y="34"/>
			<point x="272" y="29" type="curve"/>
			<point x="272" y="0" type="line"/>
			<point x="35" y="0" type="line"/>
			<point x="35" y="29" type="line"/>
			<point x="87" y="33"/>
			<point x="114" y="37"/>
			<point x="118" y="79" type="curve" smooth="yes"/>
			<point x="121" y="112"/>
			<point x="124" y="150"/>
			<point x="124" y="203" type="curve" smooth="yes"/>
			<point x="124" y="599" type="line" smooth="yes"/>
			<point x="124" y="655"/>
			<point x="122" y="657"/>
		</contour>
	</outline>
</glyph>
<glyph name="P" format="2">
	<unicode hex="0050"/>
	<advance width="600"/>
	<outline>
		<contour>
			<point x="35" y="0" type="line"/>
			<point x="35" y="29" type="line"/>
			<point x="123" y="35"/>
			<point x="125" y="37"/>
			<point x="125" y="93" type="curve" smooth="yes"/>
			<point x="125" y="599" type="line" smooth="yes"/>
			<point x="125" y="655"/>
			<point x="123" y="657"/>
			<point x="35" y="663" type="curve"/>
			<point x="35" y="692" type="line"/>
			<point x="314" y="692" type="line" smooth="yes"/>
			<point x="447" y="692"/>
			<point x="574" y="653"/>
			<point x="574" y="496" type="curve" smooth="yes"/>
			<point x="574" y="324"/>
			<point x="420" y="284"/>
			<point x="281" y="284" type="curve" smooth="yes"/>
			<point x="224" y="284" type="line"/>
			<point x="224" y="93" type="line" smooth="yes"/>
			<point x="224" y="37"/>
			<point x="227" y="35"/>
			<point x="330" y="29" type="curve"/>
			<point x="330" y="0" type="line"/>
		</contour>
		<contour>
			<point x="224" y="358" type="line" smooth="yes"/>
			<point x="224" y="321"/>
			<point x="239" y="319"/>
			<point x="298" y="319" type="curve" smooth="yes"/>
			<point x="384" y="319"/>
			<point x="466" y="364"/>
			<point x="466" y="489" type="curve" smooth="yes"/>
			<point x="466" y="598"/>
			<point x="403" y="657"/>
			<point x="300" y="657" type="curve" smooth="yes"/>
			<point x="235" y="657"/>
			<point x="224" y="648"/>
			<point x="224" y="620" type="curve" smooth="yes"/>
		</contour>
	</outline>
	<anchor name="tonos" x="-4" y="702"/>
</glyph>
<glyph name="Q" format="1">
  <advance width="762"/>
  <unicode hex="0051"/>
  <outline>
    <contour>
      <point x="48" y="346" type="curve" smooth="yes"/>
      <point x="48" y="459"/>
      <point x="79" y="550"/>
      <point x="133" y="610" type="curve" smooth="yes"/>
      <point x="189" y="673"/>
      <point x="271" y="707"/>
      <point x="381" y="707" type="curve" smooth="yes"/>
      <point x="492" y="707"/>
      <point x="573" y="673"/>
      <point x="629" y="610" type="curve" smooth="yes"/>
      <point x="684" y="550"/>
      <point x="714" y="459"/>
      <point x="714" y="346" type="curve" smooth="yes"/>
      <point x="714" y="234"/>
      <point x="684" y="142"/>
      <point x="629" y="82" type="curve" smooth="yes"/>
      <point x="587" y="35"/>
      <point x="532" y="4"/>
      <point x="460" y="-8" type="curve"/>
      <point x="471" y="-28"/>
      <point x="492" y="-57"/>
      <point x="518" y="-85" type="curve" smooth="yes"/>
      <point x="574" y="-146"/>
      <point x="623" y="-159"/>
      <point x="648" y="-159" type="curve" smooth="yes"/>
      <point x="656" y="-159"/>
      <point x="664" y="-159"/>
      <point x="674" y="-158" type="curve"/>
      <point x="677" y="-174" type="line"/>
      <point x="656" y="-187"/>
      <point x="628" y="-193"/>
      <point x="593" y="-193" type="curve" smooth="yes"/>
      <point x="487" y="-193"/>
      <point x="394" y="-120"/>
      <point x="342" y="-13" type="curve"/>
      <point x="252" y="-7"/>
      <point x="182" y="26"/>
      <point x="133" y="82" type="curve" smooth="yes"/>
      <point x="79" y="142"/>
      <point x="48" y="234"/>
    </contour>
    <contour>
      <point x="160" y="346" type="curve" smooth="yes"/>
      <point x="160" y="199"/>
      <point x="203" y="20"/>
      <point x="381" y="20" type="curve" smooth="yes"/>
      <point x="559" y="20"/>
      <point x="602" y="199"/>
      <point x="602" y="346" type="curve" smooth="yes"/>
      <point x="602" y="493"/>
      <point x="559" y="672"/>
      <point x="381" y="672" type="curve" smooth="yes"/>
      <point x="203" y="672"/>
      <point x="160" y="493"/>
    </contour>
  </outline>
</glyph>
<glyph name="X" format="1">
  <advance width="624"/>
  <unicode hex="0058"/>
  <outline>
    <contour>
      <point x="-19" y="0" type="line"/>
      <point x="-19" y="29" type="line"/>
      <point x="45" y="35"/>
      <point x="54" y="38"/>
      <point x="88" y="83" type="curve" smooth="yes"/>
      <point x="129" y="138"/>
      <point x="209" y="261"/>
      <point x="267" y="345" type="curve"/>
      <point x="107" y="600" type="line" smooth="yes"/>
      <point x="73" y="654"/>
      <point x="61" y="661"/>
      <point x="-2" y="663" type="curve"/>
      <point x="-2" y="692" type="line"/>
      <point x="256" y="692" type="line"/>
      <point x="256" y="663" type="line"/>
      <point x="208" y="658" type="line" smooth="yes"/>
      <point x="197" y="657"/>
      <point x="192" y="652"/>
      <point x="192" y="644" type="curve" smooth="yes"/>
      <point x="192" y="639"/>
      <point x="194" y="632"/>
      <point x="199" y="624" type="curve" smooth="yes"/>
      <point x="324" y="428" type="line"/>
      <point x="326" y="428" type="line"/>
      <point x="374" y="497"/>
      <point x="418" y="564"/>
      <point x="455" y="626" type="curve" smooth="yes"/>
      <point x="460" y="635"/>
      <point x="463" y="642"/>
      <point x="463" y="647" type="curve" smooth="yes"/>
      <point x="463" y="654"/>
      <point x="458" y="658"/>
      <point x="446" y="659" type="curve" smooth="yes"/>
      <point x="398" y="663" type="line"/>
      <point x="398" y="692" type="line"/>
      <point x="619" y="692" type="line"/>
      <point x="619" y="663" type="line"/>
      <point x="560" y="660"/>
      <point x="547" y="655"/>
      <point x="504" y="602" type="curve" smooth="yes"/>
      <point x="461" y="549"/>
      <point x="403" y="470"/>
      <point x="348" y="389" type="curve"/>
      <point x="544" y="86" type="line" smooth="yes"/>
      <point x="573" y="40"/>
      <point x="585" y="34"/>
      <point x="657" y="29" type="curve"/>
      <point x="657" y="0" type="line"/>
      <point x="373" y="0" type="line"/>
      <point x="373" y="29" type="line"/>
      <point x="428" y="35" type="line" smooth="yes"/>
      <point x="441" y="36"/>
      <point x="449" y="41"/>
      <point x="449" y="49" type="curve" smooth="yes"/>
      <point x="449" y="53"/>
      <point x="448" y="58"/>
      <point x="444" y="64" type="curve" smooth="yes"/>
      <point x="292" y="305" type="line"/>
      <point x="290" y="305" type="line"/>
      <point x="237" y="223"/>
      <point x="188" y="142"/>
      <point x="145" y="63" type="curve" smooth="yes"/>
      <point x="142" y="58"/>
      <point x="140" y="53"/>
      <point x="140" y="49" type="curve" smooth="yes"/>
      <point x="140" y="42"/>
      <point x="146" y="37"/>
      <point x="156" y="36" type="curve" smooth="yes"/>
      <point x="220" y="29" type="line"/>
      <point x="220" y="0" type="line"/>
    </contour>
  </outline>
</glyph>
<glyph name="Z" format="2">
	<unicode hex="005A"/>
	<advance width="610"/>
	<outline>
		<contour>
			<point x="9" y="13" type="line"/>
			<point x="456" y="657" type="line"/>
			<point x="277" y="657" type="line" smooth="yes"/>
			<point x="140" y="657"/>
			<point x="115" y="635"/>
			<point x="103" y="520" type="curve"/>
			<point x="71" y="520" type="line"/>
			<point x="71" y="692" type="line"/>
			<point x="582" y="692" type="line"/>
			<point x="588" y="679" type="line"/>
			<point x="141" y="35" type="line"/>
			<point x="343" y="35" type="line" smooth="yes"/>
			<point x="497" y="35"/>
			<point x="544" y="53"/>
			<point x="562" y="178" type="curve"/>
			<point x="594" y="178" type="line"/>
			<point x="584" y="0" type="line"/>
			<point x="14" y="0" type="line"/>
		</contour>
	</outline>
</glyph>
<glyph name="bracketleft" format="1">
  <advance width="330"/>
  <unicode hex="005B"/>
  <outline>
    <contour>
      <point x="133" y="-128" type="line"/>
      <point x="133" y="692" type="line"/>
      <point x="292" y="692" type="line"/>
      <point x="292" y="665" type="line"/>
      <point x="202" y="661"/>
      <point x="196" y="657"/>
      <point x="196" y="610" type="curve" smooth="yes"/>
      <point x="196" y="-46" type="line" smooth="yes"/>
      <point x="196" y="-93"/>
      <point x="202" y="-97"/>
      <point x="292" y="-101" type="curve"/>
      <point x="292" y="-128" type="line"/>
    </contour>
  </outline>
</glyph>
<glyph name="d" format="2">
	<unicode hex="0064"/>
	<advance width="598"/>
	<outline>
		<contour>
			<point x="49" y="235" type="curve" smooth="yes"/>
			<point x="49" y="396"/>
			<point x="138" y="502"/>
			<point x="301" y="502" type="curve" smooth="yes"/>
			<point x="349" y="502"/>
			<point x="386" y="493"/>
			<point x="414" y="478" type="curve"/>
			<point x="414" y="642" type="line" smooth="yes"/>
			<point x="414" y="680"/>
			<point x="408" y="685"/>
			<point x="382" y="688" type="curve" smooth="yes"/>
			<point x="344" y="692" type="line"/>
			<point x="344" y="717" type="line"/>
			<point x="501" y="742" type="line"/>
			<point x="508" y="736" type="line"/>
			<point x="508" y="87" type="line" smooth="yes"/>
			<point x="508" y="36"/>
			<point x="512" y="34"/>
			<point x="583" y="29" type="curve"/>
			<point x="583" y="0" type="line"/>
			<point x="421" y="0" type="line"/>
			<point x="413" y="7" type="line"/>
			<point x="413" y="56" type="line"/>
			<point x="359" y="12"/>
			<point x="312" y="-12"/>
			<point x="251" y="-12" type="curve" smooth="yes"/>
			<point x="126" y="-12"/>
			<point x="49" y="87"/>
		</contour>
		<contour>
			<point x="153" y="254" type="curve" smooth="yes"/>
			<point x="153" y="132"/>
			<point x="199" y="42"/>
			<point x="301" y="42" type="curve" smooth="yes"/>
			<point x="377" y="42"/>
			<point x="414" y="92"/>
			<point x="414" y="170" type="curve" smooth="yes"/>
			<point x="414" y="346" type="line" smooth="yes"/>
			<point x="414" y="416"/>
			<point x="380" y="467"/>
			<point x="302" y="467" type="curve" smooth="yes"/>
			<point x="200" y="467"/>
			<point x="153" y="377"/>
		</contour>
	</outline>
	<anchor name="quote" x="617" y="742"/>
</glyph>
<glyph name="h" format="2">
	<unicode hex="0068"/>
	<advance width="607"/>
	<outline>
		<contour>
			<point x="423" y="200" type="line"/>
			<point x="423" y="323" type="line" smooth="yes"/>
			<point x="423" y="410"/>
			<point x="386" y="448"/>
			<point x="321" y="448" type="curve" smooth="yes"/>
			<point x="242" y="448"/>
			<point x="189" y="393"/>
			<point x="189" y="321" type="curve"/>
			<point x="149" y="321.201" type="line"/>
			<point x="149" y="395.16" type="line"/>
			<point x="189" y="426" type="line" smooth="yes"/>
			<point x="251.096" y="473.876"/>
			<point x="296" y="502"/>
			<point x="364" y="502" type="curve" smooth="yes"/>
			<point x="462" y="502"/>
			<point x="517" y="444"/>
			<point x="517" y="343" type="curve" smooth="yes"/>
			<point x="517" y="200" type="line"/>
		</contour>
		<contour>
			<point x="517" y="87" type="line" smooth="yes"/>
			<point x="516.93" y="38"/>
			<point x="523" y="34"/>
			<point x="592" y="29" type="curve"/>
			<point x="592" y="0" type="line"/>
			<point x="348" y="0" type="line"/>
			<point x="348" y="29" type="line"/>
			<point x="418" y="34"/>
			<point x="423.132" y="38"/>
			<point x="423" y="87" type="curve" smooth="yes"/>
			<point x="422.695" y="200" type="line"/>
			<point x="517.161" y="200" type="line"/>
		</contour>
		<contour>
			<point x="20" y="0" type="line"/>
			<point x="20" y="29" type="line"/>
			<point x="92" y="34"/>
			<point x="95" y="36"/>
			<point x="95" y="87" type="curve" smooth="yes"/>
			<point x="95" y="642" type="line" smooth="yes"/>
			<point x="95" y="680"/>
			<point x="89" y="685"/>
			<point x="63" y="688" type="curve" smooth="yes"/>
			<point x="25" y="692" type="line"/>
			<point x="25" y="717" type="line"/>
			<point x="182" y="742" type="line"/>
			<point x="189" y="736" type="line"/>
			<point x="189" y="87" type="line" smooth="yes"/>
			<point x="189" y="36"/>
			<point x="193" y="34"/>
			<point x="264" y="29" type="curve"/>
			<point x="264" y="0" type="line"/>
		</contour>
	</outline>
	<anchor name="cedilla" x="142" y="0"/>
	<anchor name="top" x="307" y="770"/>
</glyph>
<glyph name="q" format="1">
  <advance width="591"/>
  <unicode hex="0071"/>
  <outline>
    <contour>
      <point x="49" y="233" type="curve" smooth="yes"/>
      <point x="49" y="323"/>
      <point x="75" y="388"/>
      <point x="119" y="433" type="curve" smooth="yes"/>
      <point x="163" y="478"/>
      <point x="226" y="502"/>
      <point x="306" y="502" type="curve" smooth="yes"/>
      <point x="349" y="502"/>
      <point x="400" y="492"/>
      <point x="438" y="471" type="curve"/>
      <point x="481" y="502" type="line"/>
      <point x="508" y="502" type="line"/>
      <point x="508" y="-143" type="line" smooth="yes"/>
      <point x="508" y="-194"/>
      <point x="514" y="-196"/>
      <point x="583" y="-201" type="curve"/>
      <point x="583" y="-230" type="line"/>
      <point x="334" y="-230" type="line"/>
      <point x="334" y="-201" type="line"/>
      <point x="409" y="-196"/>
      <point x="414" y="-194"/>
      <point x="414" y="-143" type="curve" smooth="yes"/>
      <point x="414" y="53" type="line"/>
      <point x="362" y="15"/>
      <point x="313" y="-12"/>
      <point x="257" y="-12" type="curve" smooth="yes"/>
      <point x="136" y="-12"/>
      <point x="49" y="73"/>
    </contour>
    <contour>
      <point x="153" y="246" type="curve" smooth="yes"/>
      <point x="153" y="133"/>
      <point x="196" y="42"/>
      <point x="295" y="42" type="curve" smooth="yes"/>
      <point x="350" y="42"/>
      <point x="388" y="63"/>
      <point x="407" y="116" type="curve" smooth="yes"/>
      <point x="413" y="132"/>
      <point x="414" y="149"/>
      <point x="414" y="171" type="curve" smooth="yes"/>
      <point x="414" y="340" type="line" smooth="yes"/>
      <point x="414" y="364"/>
      <point x="412" y="382"/>
      <point x="406" y="398" type="curve" smooth="yes"/>
      <point x="387" y="449"/>
      <point x="350" y="467"/>
      <point x="298" y="467" type="curve" smooth="yes"/>
      <point x="196" y="467"/>
      <point x="153" y="369"/>
    </contour>
  </outline>
</glyph>
<glyph name="u" format="2">
	<unicode hex="0075"/>
	<advance width="606"/>
	<outline>
		<contour>
			<point x="26" y="452" type="line"/>
			<point x="26" y="477" type="line"/>
			<point x="183" y="502" type="line"/>
			<point x="190" y="496" type="line"/>
			<point x="190" y="156" type="line" smooth="yes"/>
			<point x="190" y="78"/>
			<point x="233" y="42"/>
			<point x="296" y="42" type="curve" smooth="yes"/>
			<point x="376" y="42"/>
			<point x="422" y="99"/>
			<point x="422" y="177" type="curve" smooth="yes"/>
			<point x="422" y="402" type="line" smooth="yes"/>
			<point x="422" y="438"/>
			<point x="416" y="443"/>
			<point x="390" y="447" type="curve" smooth="yes"/>
			<point x="352" y="452" type="line"/>
			<point x="352" y="477" type="line"/>
			<point x="509" y="502" type="line"/>
			<point x="516" y="496" type="line"/>
			<point x="516" y="87" type="line" smooth="yes"/>
			<point x="516" y="36"/>
			<point x="522" y="34"/>
			<point x="591" y="29" type="curve"/>
			<point x="591" y="0" type="line"/>
			<point x="431" y="0" type="line"/>
			<point x="421" y="60" type="line"/>
			<point x="392" y="38"/>
			<point x="323" y="-12"/>
			<point x="236" y="-12" type="curve" smooth="yes"/>
			<point x="164" y="-12"/>
			<point x="96" y="23"/>
			<point x="96" y="138" type="curve" smooth="yes"/>
			<point x="96" y="402" type="line" smooth="yes"/>
			<point x="96" y="438"/>
			<point x="90" y="443"/>
			<point x="64" y="447" type="curve" smooth="yes"/>
		</contour>
	</outline>
	<anchor name="ogonek" x="519" y="10"/>
	<anchor name="top" x="310" y="542"/>
</glyph>
<glyph name="z" format="1">
  <advance width="480"/>
  <unicode hex="007A"/>
  <outline>
    <contour>
      <point x="19" y="15" type="line"/>
      <point x="126" y="162"/>
      <point x="231" y="308"/>
      <point x="334" y="455" type="curve"/>
      <point x="234" y="455" type="line" smooth="yes"/>
      <point x="126" y="455"/>
      <point x="105" y="434"/>
      <point x="92" y="342" type="curve"/>
      <point x="61" y="342" type="line"/>
      <point x="61" y="490" type="line"/>
      <point x="445" y="490" type="line"/>
      <point x="453" y="476" type="line"/>
      <point x="347" y="329"/>
      <point x="242" y="182"/>
      <point x="141" y="35" type="curve"/>
      <point x="270" y="35" type="line" smooth="yes"/>
      <point x="381" y="35"/>
      <point x="415" y="59"/>
      <point x="431" y="153" type="curve"/>
      <point x="462" y="153" type="line"/>
      <point x="452" y="0" type="line"/>
      <point x="27" y="0" type="line"/>
    </contour>
  </outline>
</glyph>
<glyph name="asciitilde" format="1">
  <advance width="570"/>
  <unicode hex="007E"/>
  <outline>
    <contour>
      <point x="73" y="200" type="line"/>
      <point x="97" y="250"/>
      <point x="130" y="306"/>
      <point x="203" y="306" type="curve" smooth="yes"/>
      <point x="233" y="306"/>
      <point x="265" y="295"/>
      <point x="296" y="283" type="curve" smooth="yes"/>
      <point x="327" y="272"/>
      <point x="356" y="260"/>
      <point x="380" y="260" type="curve" smooth="yes"/>
      <point x="414" y="260"/>
      <point x="428" y="274"/>
      <point x="457" y="317" type="curve"/>
      <point x="497" y="292" type="line"/>
      <point x="469" y="231"/>
      <point x="434" y="191"/>
      <point x="377" y="191" type="curve" smooth="yes"/>
      <point x="348" y="191"/>
      <point x="314" y="203"/>
      <point x="282" y="214" type="curve" smooth="yes"/>
      <point x="250" y="226"/>
      <point x="218" y="237"/>
      <point x="192" y="237" type="curve" smooth="yes"/>
      <point x="154" y="237"/>
      <point x="135" y="216"/>
      <point x="114" y="175" type="curve"/>
    </contour>
  </outline>
</glyph>
<glyph name="exclamdown" format="1">
  <advance width="242"/>
  <unicode hex="00A1"/>
  <outline>
    <contour>
      <point x="58" y="439" type="curve" smooth="yes"/>
      <point x="59" y="475"/>
      <point x="82" y="502"/>
      <point x="121" y="502" type="curve" smooth="yes"/>
      <point x="159" y="502"/>
      <point x="184" y="475"/>
      <point x="184" y="439" type="curve" smooth="yes"/>
      <point x="184" y="402"/>
      <point x="159" y="374"/>
      <point x="121" y="374" type="curve" smooth="yes"/>
      <point x="82" y="374"/>
      <point x="58" y="402"/>
    </contour>
    <contour>
      <point x="64" y="-170" type="curve" smooth="yes"/>
      <point x="64" y="-164"/>
      <point x="64" y="-157"/>
      <point x="65" y="-150" type="curve" smooth="yes"/>
      <point x="107" y="281" type="line"/>
      <point x="136" y="281" type="line"/>
      <point x="176" y="-150" type="line" smooth="yes"/>
      <point x="177" y="-157"/>
      <point x="177" y="-164"/>
      <point x="177" y="-170" type="curve" smooth="yes"/>
      <point x="177" y="-202"/>
      <point x="166" y="-217"/>
      <point x="121" y="-217" type="curve" smooth="yes"/>
      <point x="75" y="-217"/>
      <point x="64" y="-202"/>
    </contour>
  </outline>
</glyph>
<glyph name="cent" format="1">
  <advance width="530"/>
  <unicode hex="00A2"/>
  <outline>
    <contour>
      <point x="37" y="346" type="curve" smooth="yes"/>
      <point x="37" y="524"/>
      <point x="140" y="592"/>
      <point x="261" y="599" type="curve"/>
      <point x="261" y="675" type="line"/>
      <point x="301" y="675" type="line"/>
      <point x="301" y="599" type="line"/>
      <point x="443" y="598"/>
      <point x="480" y="532"/>
      <point x="480" y="500" type="curve" smooth="yes"/>
      <point x="480" y="470"/>
      <point x="453" y="453"/>
      <point x="428" y="453" type="curve" smooth="yes"/>
      <point x="414" y="453"/>
      <point x="406" y="459"/>
      <point x="398" y="477" type="curve" smooth="yes"/>
      <point x="364" y="554"/>
      <point x="326" y="562"/>
      <point x="301" y="564" type="curve"/>
      <point x="301" y="137" type="line"/>
      <point x="303" y="137"/>
      <point x="304" y="137"/>
      <point x="306" y="137" type="curve" smooth="yes"/>
      <point x="369" y="137"/>
      <point x="418" y="156"/>
      <point x="461" y="231" type="curve"/>
      <point x="487" y="215" type="line"/>
      <point x="452" y="127"/>
      <point x="378" y="88"/>
      <point x="301" y="87" type="curve"/>
      <point x="301" y="-10" type="line"/>
      <point x="261" y="-10" type="line"/>
      <point x="261" y="87" type="line"/>
      <point x="117" y="87"/>
      <point x="37" y="175"/>
    </contour>
    <contour>
      <point x="135" y="356" type="curve" smooth="yes"/>
      <point x="135" y="246"/>
      <point x="167" y="160"/>
      <point x="261" y="140" type="curve"/>
      <point x="261" y="564" type="line"/>
      <point x="225" y="561"/>
      <point x="135" y="550"/>
    </contour>
  </outline>
</glyph>
<glyph name="sterling" format="2">
	<unicode hex="00A3"/>
	<advance width="530"/>
	<outline>
		<contour>
			<point x="27" y="5" type="line"/>
			<point x="45" y="45" type="line"/>
			<point x="120" y="70"/>
			<point x="206" y="109"/>
			<point x="206" y="193.601" type="curve" smooth="yes"/>
			<point x="206" y="214"/>
			<point x="201" y="243"/>
			<point x="172" y="291" type="curve"/>
			<point x="53" y="291" type="line"/>
			<point x="53" y="329" type="line"/>
			<point x="155" y="329" type="line"/>
			<point x="130" y="374"/>
			<point x="96" y="435"/>
			<point x="96" y="502.657" type="curve" smooth="yes"/>
			<point x="96" y="609"/>
			<point x="180" y="680"/>
			<point x="293.397" y="680" type="curve" smooth="yes"/>
			<point x="395" y="680"/>
			<point x="454" y="623"/>
			<point x="454" y="575.877" type="curve" smooth="yes"/>
			<point x="454" y="544"/>
			<point x="427" y="530"/>
			<point x="404.466" y="530" type="curve" smooth="yes"/>
			<point x="391" y="530"/>
			<point x="385" y="535"/>
			<point x="378.527" y="556.48" type="curve" smooth="yes"/>
			<point x="363" y="608"/>
			<point x="326" y="645"/>
			<point x="274.64" y="645" type="curve" smooth="yes"/>
			<point x="218" y="645"/>
			<point x="182" y="600"/>
			<point x="182" y="536.629" type="curve" smooth="yes"/>
			<point x="182" y="469"/>
			<point x="223" y="401"/>
			<point x="266" y="329" type="curve"/>
			<point x="418" y="329" type="line"/>
			<point x="418" y="291" type="line"/>
			<point x="282" y="291" type="line"/>
			<point x="288.359" y="277.733"/>
			<point x="292" y="254"/>
			<point x="292" y="233" type="curve" smooth="yes"/>
			<point x="292" y="170"/>
			<point x="260" y="123"/>
			<point x="182" y="80" type="curve"/>
			<point x="182" y="76" type="line"/>
			<point x="407" y="76" type="line" smooth="yes"/>
			<point x="444" y="76"/>
			<point x="460" y="91"/>
			<point x="483" y="134" type="curve"/>
			<point x="510" y="125" type="line"/>
			<point x="460" y="0" type="line"/>
			<point x="31" y="0" type="line"/>
		</contour>
	</outline>
</glyph>
<glyph name="currency" format="1">
  <advance width="530"/>
  <unicode hex="00A4"/>
  <outline>
    <contour>
      <point x="25" y="129" type="curve" smooth="yes"/>
      <point x="25" y="141"/>
      <point x="33" y="153"/>
      <point x="50" y="166" type="curve" smooth="yes"/>
      <point x="89" y="196" type="line"/>
      <point x="53" y="242"/>
      <point x="43" y="285"/>
      <point x="43" y="334" type="curve" smooth="yes"/>
      <point x="43" y="383"/>
      <point x="53" y="426"/>
      <point x="89" y="472" type="curve"/>
      <point x="50" y="502" type="line" smooth="yes"/>
      <point x="33" y="515"/>
      <point x="25" y="527"/>
      <point x="25" y="539" type="curve" smooth="yes"/>
      <point x="25" y="549"/>
      <point x="31" y="558"/>
      <point x="42" y="567" type="curve" smooth="yes"/>
      <point x="51" y="575"/>
      <point x="60" y="578"/>
      <point x="68" y="578" type="curve" smooth="yes"/>
      <point x="81" y="578"/>
      <point x="92" y="569"/>
      <point x="104" y="552" type="curve" smooth="yes"/>
      <point x="131" y="513" type="line"/>
      <point x="168" y="548"/>
      <point x="220" y="559"/>
      <point x="265" y="559" type="curve" smooth="yes"/>
      <point x="310" y="559"/>
      <point x="362" y="548"/>
      <point x="399" y="513" type="curve"/>
      <point x="426" y="552" type="line" smooth="yes"/>
      <point x="438" y="569"/>
      <point x="449" y="578"/>
      <point x="462" y="578" type="curve" smooth="yes"/>
      <point x="470" y="578"/>
      <point x="479" y="575"/>
      <point x="488" y="567" type="curve" smooth="yes"/>
      <point x="499" y="558"/>
      <point x="505" y="549"/>
      <point x="505" y="539" type="curve" smooth="yes"/>
      <point x="505" y="527"/>
      <point x="497" y="515"/>
      <point x="480" y="502" type="curve" smooth="yes"/>
      <point x="441" y="472" type="line"/>
      <point x="477" y="426"/>
      <point x="487" y="383"/>
      <point x="487" y="334" type="curve" smooth="yes"/>
      <point x="487" y="285"/>
      <point x="477" y="242"/>
      <point x="441" y="196" type="curve"/>
      <point x="480" y="166" type="line" smooth="yes"/>
      <point x="497" y="153"/>
      <point x="505" y="141"/>
      <point x="505" y="129" type="curve" smooth="yes"/>
      <point x="505" y="119"/>
      <point x="499" y="110"/>
      <point x="488" y="101" type="curve" smooth="yes"/>
      <point x="479" y="93"/>
      <point x="470" y="90"/>
      <point x="462" y="90" type="curve" smooth="yes"/>
      <point x="449" y="90"/>
      <point x="438" y="99"/>
      <point x="426" y="116" type="curve" smooth="yes"/>
      <point x="399" y="155" type="line"/>
      <point x="362" y="120"/>
      <point x="310" y="109"/>
      <point x="265" y="109" type="curve" smooth="yes"/>
      <point x="220" y="109"/>
      <point x="168" y="120"/>
      <point x="131" y="155" type="curve"/>
      <point x="104" y="116" type="line" smooth="yes"/>
      <point x="92" y="99"/>
      <point x="81" y="90"/>
      <point x="68" y="90" type="curve" smooth="yes"/>
      <point x="60" y="90"/>
      <point x="51" y="93"/>
      <point x="42" y="101" type="curve" smooth="yes"/>
      <point x="31" y="110"/>
      <point x="25" y="119"/>
    </contour>
    <contour>
      <point x="115" y="334" type="curve" smooth="yes"/>
      <point x="115" y="236"/>
      <point x="178" y="162"/>
      <point x="265" y="162" type="curve" smooth="yes"/>
      <point x="352" y="162"/>
      <point x="415" y="236"/>
      <point x="415" y="334" type="curve" smooth="yes"/>
      <point x="415" y="432"/>
      <point x="352" y="506"/>
      <point x="265" y="506" type="curve" smooth="yes"/>
      <point x="178" y="506"/>
      <point x="115" y="432"/>
    </contour>
  </outline>
</glyph>
<glyph name="copyright" format="1">
  <advance width="818"/>
  <unicode hex="00A9"/>
  <outline>
    <contour>
      <point x="45" y="346" type="curve" smooth="yes"/>
      <point x="45" y="546"/>
      <point x="208" y="707"/>
      <point x="409" y="707" type="curve" smooth="yes"/>
      <point x="610" y="707"/>
      <point x="773" y="546"/>
      <point x="773" y="346" type="curve" smooth="yes"/>
      <point x="773" y="146"/>
      <point x="610" y="-15"/>
      <point x="409" y="-15" type="curve" smooth="yes"/>
      <point x="208" y="-15"/>
      <point x="45" y="146"/>
    </contour>
    <contour>
      <point x="109" y="346" type="curve" smooth="yes"/>
      <point x="109" y="169"/>
      <point x="241" y="30"/>
      <point x="409" y="30" type="curve" smooth="yes"/>
      <point x="577" y="30"/>
      <point x="709" y="169"/>
      <point x="709" y="346" type="curve" smooth="yes"/>
      <point x="709" y="523"/>
      <point x="577" y="662"/>
      <point x="409" y="662" type="curve" smooth="yes"/>
      <point x="241" y="662"/>
      <point x="109" y="523"/>
    </contour>
    <contour>
      <point x="219" y="348" type="curve" smooth="yes"/>
      <point x="219" y="469"/>
      <point x="291" y="550"/>
      <point x="430" y="550" type="curve" smooth="yes"/>
      <point x="478" y="550"/>
      <point x="532" y="539"/>
      <point x="563" y="519" type="curve"/>
      <point x="563" y="421" type="line"/>
      <point x="543" y="421" type="line"/>
      <point x="533" y="475"/>
      <point x="511" y="522"/>
      <point x="428" y="522" type="curve" smooth="yes"/>
      <point x="336" y="522"/>
      <point x="300" y="444"/>
      <point x="300" y="357" type="curve" smooth="yes"/>
      <point x="300" y="272"/>
      <point x="330" y="177"/>
      <point x="433" y="177" type="curve" smooth="yes"/>
      <point x="498" y="177"/>
      <point x="532" y="209"/>
      <point x="551" y="280" type="curve"/>
      <point x="571" y="280" type="line"/>
      <point x="560" y="180" type="line"/>
      <point x="534" y="161"/>
      <point x="487" y="149"/>
      <point x="423" y="149" type="curve" smooth="yes"/>
      <point x="276" y="149"/>
      <point x="219" y="235"/>
    </contour>
  </outline>
</glyph>
<glyph name="ordfeminine" format="1">
  <advance width="390"/>
  <unicode hex="00AA"/>
  <outline>
    <contour>
      <point x="40" y="355" type="curve" smooth="yes"/>
      <point x="40" y="388"/>
      <point x="55" y="410"/>
      <point x="119" y="432" type="curve" smooth="yes"/>
      <point x="158" y="446"/>
      <point x="196" y="458"/>
      <point x="235" y="471" type="curve"/>
      <point x="235" y="509" type="line" smooth="yes"/>
      <point x="235" y="549"/>
      <point x="209" y="562"/>
      <point x="187" y="562" type="curve" smooth="yes"/>
      <point x="166" y="562"/>
      <point x="139" y="551"/>
      <point x="125" y="511" type="curve" smooth="yes"/>
      <point x="121" y="499"/>
      <point x="112" y="485"/>
      <point x="97" y="485" type="curve" smooth="yes"/>
      <point x="80" y="485"/>
      <point x="53" y="498"/>
      <point x="53" y="517" type="curve" smooth="yes"/>
      <point x="53" y="554"/>
      <point x="116" y="590"/>
      <point x="192" y="590" type="curve" smooth="yes"/>
      <point x="296" y="590"/>
      <point x="304" y="545"/>
      <point x="304" y="510" type="curve" smooth="yes"/>
      <point x="304" y="356" type="line" smooth="yes"/>
      <point x="304" y="317"/>
      <point x="317" y="305"/>
      <point x="329" y="302" type="curve" smooth="yes"/>
      <point x="333" y="301"/>
      <point x="338" y="301"/>
      <point x="343" y="301" type="curve" smooth="yes"/>
      <point x="349" y="301"/>
      <point x="356" y="301"/>
      <point x="361" y="302" type="curve"/>
      <point x="364" y="284" type="line"/>
      <point x="352" y="279"/>
      <point x="338" y="274"/>
      <point x="324" y="271" type="curve" smooth="yes"/>
      <point x="310" y="268"/>
      <point x="295" y="266"/>
      <point x="281" y="266" type="curve" smooth="yes"/>
      <point x="255" y="266"/>
      <point x="243" y="280"/>
      <point x="235" y="304" type="curve"/>
      <point x="215" y="292"/>
      <point x="180" y="265"/>
      <point x="138" y="265" type="curve" smooth="yes"/>
      <point x="72" y="265"/>
      <point x="40" y="307"/>
    </contour>
    <contour>
      <point x="119" y="362" type="curve" smooth="yes"/>
      <point x="119" y="328"/>
      <point x="138" y="301"/>
      <point x="178" y="300" type="curve" smooth="yes"/>
      <point x="201" y="302"/>
      <point x="235" y="317"/>
      <point x="235" y="366" type="curve" smooth="yes"/>
      <point x="235" y="444" type="line"/>
      <point x="219" y="440"/>
      <point x="200" y="434"/>
      <point x="172" y="423" type="curve" smooth="yes"/>
      <point x="136" y="410"/>
      <point x="119" y="393"/>
    </contour>
  </outline>
</glyph>
<glyph name="guillemotleft" format="2">
	<unicode hex="00AB"/>
	<advance width="442"/>
	<outline>
		<contour>
			<point x="41" y="239" type="curve" smooth="yes"/>
			<point x="41" y="244"/>
			<point x="42" y="250"/>
			<point x="46" y="254" type="curve"/>
			<point x="69.1737" y="281.963"/>
			<point x="167.03" y="400.043"/>
			<point x="196" y="435" type="curve"/>
			<point x="216" y="418" type="line"/>
			<point x="137" y="255" type="line"/>
			<point x="134" y="250"/>
			<point x="133" y="244"/>
			<point x="133" y="239" type="curve" smooth="yes"/>
			<point x="133" y="233"/>
			<point x="134" y="227"/>
			<point x="137" y="221" type="curve" smooth="yes"/>
			<point x="148.782" y="196.54"/>
			<point x="200.816" y="88.5209"/>
			<point x="216" y="57" type="curve"/>
			<point x="196" y="41" type="line"/>
			<point x="46" y="223" type="line" smooth="yes"/>
			<point x="42" y="228"/>
			<point x="41" y="233"/>
		</contour>
		<contour>
			<point x="226" y="239" type="curve" smooth="yes"/>
			<point x="226" y="244"/>
			<point x="227" y="250"/>
			<point x="231" y="254" type="curve"/>
			<point x="254.174" y="281.963"/>
			<point x="352.03" y="400.043"/>
			<point x="381" y="435" type="curve"/>
			<point x="401" y="418" type="line"/>
			<point x="322" y="255" type="line"/>
			<point x="319" y="250"/>
			<point x="318" y="244"/>
			<point x="318" y="239" type="curve" smooth="yes"/>
			<point x="318" y="233"/>
			<point x="319" y="227"/>
			<point x="322" y="221" type="curve" smooth="yes"/>
			<point x="333.782" y="196.54"/>
			<point x="385.816" y="88.5209"/>
			<point x="401" y="57" type="curve"/>
			<point x="381" y="41" type="line"/>
			<point x="231" y="223" type="line" smooth="yes"/>
			<point x="227" y="228"/>
			<point x="226" y="233"/>
		</contour>
	</outline>
</glyph>
<glyph name="mu" format="1">
  <advance width="561"/>
  <unicode hex="00B5"/>
  <outline>
    <contour>
      <point x="113" y="-228" type="line"/>
      <point x="113" y="490" type="line"/>
      <point x="207" y="502" type="line"/>
      <point x="207" y="222" type="line" smooth="yes"/>
      <point x="207" y="103"/>
      <point x="267" y="46"/>
      <point x="328" y="46" type="curve" smooth="yes"/>
      <point x="371" y="46"/>
      <point x="439" y="80"/>
      <point x="439" y="165" type="curve" smooth="yes"/>
      <point x="439" y="490" type="line"/>
      <point x="533" y="502" type="line"/>
      <point x="533" y="186" type="line" smooth="yes"/>
      <point x="533" y="83"/>
      <point x="539" y="42"/>
      <point x="579" y="42" type="curve" smooth="yes"/>
      <point x="592" y="42"/>
      <point x="602" y="44"/>
      <point x="610" y="49" type="curve"/>
      <point x="623" y="27" type="line"/>
      <point x="613" y="15"/>
      <point x="574" y="-12"/>
      <point x="529" y="-12" type="curve" smooth="yes"/>
      <point x="474" y="-12"/>
      <point x="450" y="16"/>
      <point x="442" y="70" type="curve"/>
      <point x="401" y="26"/>
      <point x="360" y="-12"/>
      <point x="308" y="-12" type="curve" smooth="yes"/>
      <point x="249" y="-12"/>
      <point x="219" y="9"/>
      <point x="198" y="33" type="curve"/>
      <point x="207" y="-242" type="line"/>
    </contour>
  </outline>
</glyph>
<glyph name="periodcentered" format="1">
  <advance width="265"/>
  <unicode hex="00B7"/>
  <outline>
    <contour>
      <point x="70" y="251" type="curve" smooth="yes"/>
      <point x="70" y="288"/>
      <point x="95" y="316"/>
      <point x="133" y="316" type="curve" smooth="yes"/>
      <point x="172" y="316"/>
      <point x="196" y="288"/>
      <point x="196" y="251" type="curve" smooth="yes"/>
      <point x="195" y="215"/>
      <point x="172" y="188"/>
      <point x="133" y="188" type="curve" smooth="yes"/>
      <point x="95" y="188"/>
      <point x="70" y="215"/>
    </contour>
  </outline>
</glyph>
<glyph name="ordmasculine" format="2">
	<unicode hex="00BA"/>
	<advance width="398"/>
	<outline>
		<contour>
			<point x="35" y="427" type="curve" smooth="yes"/>
			<point x="35" y="530"/>
			<point x="89" y="590"/>
			<point x="198" y="590" type="curve" smooth="yes"/>
			<point x="309" y="590"/>
			<point x="363" y="530"/>
			<point x="363" y="427" type="curve" smooth="yes"/>
			<point x="363" y="325"/>
			<point x="309" y="265"/>
			<point x="198" y="265" type="curve" smooth="yes"/>
			<point x="89" y="265"/>
			<point x="35" y="325"/>
		</contour>
		<contour>
			<point x="118" y="427" type="curve"/>
			<point x="120" y="345"/>
			<point x="142" y="293"/>
			<point x="198" y="293" type="curve" smooth="yes"/>
			<point x="256" y="293"/>
			<point x="278" y="345"/>
			<point x="280" y="427" type="curve"/>
			<point x="278" y="510"/>
			<point x="256" y="562"/>
			<point x="198" y="562" type="curve" smooth="yes"/>
			<point x="142" y="562"/>
			<point x="120" y="510"/>
		</contour>
	</outline>
</glyph>
<glyph name="threequarters" format="1">
  <advance width="860"/>
  <unicode hex="00BE"/>
  <outline>
    <contour>
      <point x="50" y="341" type="curve" smooth="yes"/>
      <point x="50" y="365"/>
      <point x="74" y="385"/>
      <point x="95" y="385" type="curve" smooth="yes"/>
      <point x="107" y="385"/>
      <point x="114" y="378"/>
      <point x="118" y="365" type="curve" smooth="yes"/>
      <point x="134" y="315"/>
      <point x="163" y="293"/>
      <point x="197" y="293" type="curve" smooth="yes"/>
      <point x="235" y="293"/>
      <point x="267" y="316"/>
      <point x="267" y="384" type="curve" smooth="yes"/>
      <point x="267" y="459"/>
      <point x="215" y="468"/>
      <point x="198" y="468" type="curve" smooth="yes"/>
      <point x="167" y="468"/>
      <point x="150" y="461"/>
      <point x="141" y="461" type="curve" smooth="yes"/>
      <point x="128" y="461"/>
      <point x="124" y="472"/>
      <point x="124" y="484" type="curve" smooth="yes"/>
      <point x="124" y="496"/>
      <point x="127" y="508"/>
      <point x="141" y="508" type="curve" smooth="yes"/>
      <point x="150" y="508"/>
      <point x="167" y="501"/>
      <point x="198" y="501" type="curve" smooth="yes"/>
      <point x="239" y="501"/>
      <point x="253" y="541"/>
      <point x="253" y="577" type="curve" smooth="yes"/>
      <point x="253" y="602"/>
      <point x="245" y="652"/>
      <point x="196" y="652" type="curve" smooth="yes"/>
      <point x="161" y="652"/>
      <point x="143" y="624"/>
      <point x="131" y="577" type="curve" smooth="yes"/>
      <point x="127" y="563"/>
      <point x="118" y="559"/>
      <point x="108" y="559" type="curve" smooth="yes"/>
      <point x="90" y="559"/>
      <point x="67" y="573"/>
      <point x="67" y="596" type="curve" smooth="yes"/>
      <point x="67" y="635"/>
      <point x="118" y="680"/>
      <point x="201" y="680" type="curve" smooth="yes"/>
      <point x="262" y="680"/>
      <point x="335" y="657"/>
      <point x="335" y="581" type="curve" smooth="yes"/>
      <point x="335" y="518"/>
      <point x="279" y="496"/>
      <point x="247" y="489" type="curve"/>
      <point x="247" y="487" type="line"/>
      <point x="279" y="485"/>
      <point x="353" y="461"/>
      <point x="353" y="382" type="curve" smooth="yes"/>
      <point x="353" y="306"/>
      <point x="293" y="265"/>
      <point x="189" y="265" type="curve" smooth="yes"/>
      <point x="108" y="265"/>
      <point x="50" y="300"/>
    </contour>
    <contour>
      <point x="227" y="0" type="line"/>
      <point x="655" y="695" type="line"/>
      <point x="693" y="671" type="line"/>
      <point x="263" y="-27" type="line"/>
    </contour>
    <contour>
      <point x="491" y="119" type="line"/>
      <point x="549" y="215"/>
      <point x="639" y="347"/>
      <point x="683" y="401" type="curve"/>
      <point x="744" y="401" type="line"/>
      <point x="744" y="135" type="line"/>
      <point x="808" y="135" type="line"/>
      <point x="808" y="102" type="line"/>
      <point x="744" y="102" type="line"/>
      <point x="744" y="53" type="line" smooth="yes"/>
      <point x="744" y="34"/>
      <point x="752" y="28"/>
      <point x="766" y="27" type="curve" smooth="yes"/>
      <point x="800" y="22" type="line"/>
      <point x="800" y="0" type="line"/>
      <point x="604" y="0" type="line"/>
      <point x="604" y="22" type="line"/>
      <point x="649" y="27" type="line" smooth="yes"/>
      <point x="662" y="28"/>
      <point x="670" y="34"/>
      <point x="670" y="53" type="curve" smooth="yes"/>
      <point x="670" y="102" type="line"/>
      <point x="502" y="102" type="line"/>
    </contour>
    <contour>
      <point x="545" y="135" type="curve"/>
      <point x="670" y="135" type="line"/>
      <point x="670" y="333" type="line"/>
      <point x="668" y="333" type="line"/>
      <point x="631" y="277"/>
      <point x="583" y="202"/>
    </contour>
  </outline>
</glyph>
<glyph name="questiondown" format="1">
  <advance width="389"/>
  <unicode hex="00BF"/>
  <outline>
    <contour>
      <point x="30" y="-81" type="curve" smooth="yes"/>
      <point x="32" y="0"/>
      <point x="92" y="35"/>
      <point x="126" y="59" type="curve" smooth="yes"/>
      <point x="176" y="94"/>
      <point x="202" y="130"/>
      <point x="202" y="174" type="curve" smooth="yes"/>
      <point x="202" y="229"/>
      <point x="155" y="247"/>
      <point x="134" y="247" type="curve" smooth="yes"/>
      <point x="122" y="247"/>
      <point x="111" y="245"/>
      <point x="104" y="243" type="curve"/>
      <point x="96" y="263" type="line"/>
      <point x="123" y="285"/>
      <point x="161" y="291"/>
      <point x="192" y="291" type="curve" smooth="yes"/>
      <point x="246" y="291"/>
      <point x="299" y="257"/>
      <point x="299" y="194" type="curve" smooth="yes"/>
      <point x="299" y="149"/>
      <point x="278" y="123"/>
      <point x="218" y="77" type="curve" smooth="yes"/>
      <point x="173" y="43"/>
      <point x="129" y="-18"/>
      <point x="129" y="-81" type="curve" smooth="yes"/>
      <point x="129" y="-139"/>
      <point x="147" y="-182"/>
      <point x="193" y="-182" type="curve" smooth="yes"/>
      <point x="233" y="-182"/>
      <point x="261" y="-150"/>
      <point x="275" y="-75" type="curve" smooth="yes"/>
      <point x="278" y="-58"/>
      <point x="292" y="-51"/>
      <point x="307" y="-51" type="curve" smooth="yes"/>
      <point x="324" y="-51"/>
      <point x="360" y="-64"/>
      <point x="360" y="-101" type="curve" smooth="yes"/>
      <point x="360" y="-134"/>
      <point x="320" y="-215"/>
      <point x="188" y="-217" type="curve" smooth="yes"/>
      <point x="98" y="-217"/>
      <point x="32" y="-174"/>
    </contour>
    <contour>
      <point x="137" y="440" type="curve" smooth="yes"/>
      <point x="137" y="476"/>
      <point x="162" y="502"/>
      <point x="199" y="502" type="curve" smooth="yes"/>
      <point x="237" y="502"/>
      <point x="260" y="476"/>
      <point x="261" y="440" type="curve" smooth="yes"/>
      <point x="261" y="404"/>
      <point x="237" y="377"/>
      <point x="199" y="377" type="curve" smooth="yes"/>
      <point x="162" y="377"/>
      <point x="137" y="404"/>
    </contour>
  </outline>
</glyph>
<glyph name="Atilde" format="1">
  <advance width="635"/>
  <unicode hex="00C3"/>
  <outline>
    <contour>
      <point x="-29" y="0" type="line"/>
      <point x="-29" y="29" type="line"/>
      <point x="34" y="32"/>
      <point x="43" y="44"/>
      <point x="64" y="98" type="curve" smooth="yes"/>
      <point x="99" y="189"/>
      <point x="141" y="309"/>
      <point x="172" y="396" type="curve" smooth="yes"/>
      <point x="277" y="692" type="line"/>
      <point x="351" y="692" type="line"/>
      <point x="563" y="89" type="line" smooth="yes"/>
      <point x="581" y="37"/>
      <point x="592" y="34"/>
      <point x="650" y="29" type="curve"/>
      <point x="650" y="0" type="line"/>
      <point x="394" y="0" type="line"/>
      <point x="394" y="29" type="line"/>
      <point x="439" y="33" type="line" smooth="yes"/>
      <point x="461" y="35"/>
      <point x="471" y="41"/>
      <point x="471" y="55" type="curve" smooth="yes"/>
      <point x="471" y="60"/>
      <point x="469" y="67"/>
      <point x="466" y="76" type="curve" smooth="yes"/>
      <point x="399" y="267" type="line"/>
      <point x="175" y="267" type="line"/>
      <point x="152" y="196"/>
      <point x="131" y="134"/>
      <point x="114" y="74" type="curve" smooth="yes"/>
      <point x="112" y="66"/>
      <point x="110" y="59"/>
      <point x="110" y="54" type="curve" smooth="yes"/>
      <point x="110" y="42"/>
      <point x="118" y="36"/>
      <point x="139" y="34" type="curve" smooth="yes"/>
      <point x="191" y="29" type="line"/>
      <point x="191" y="0" type="line"/>
    </contour>
    <contour>
      <point x="140" y="736" type="line"/>
      <point x="160" y="776"/>
      <point x="188" y="834"/>
      <point x="252" y="834" type="curve" smooth="yes"/>
      <point x="276" y="834"/>
      <point x="304" y="825"/>
      <point x="331" y="815" type="curve" smooth="yes"/>
      <point x="359" y="806"/>
      <point x="386" y="796"/>
      <point x="407" y="796" type="curve" smooth="yes"/>
      <point x="435" y="796"/>
      <point x="447" y="807"/>
      <point x="475" y="842" type="curve"/>
      <point x="495" y="831" type="line"/>
      <point x="466" y="774"/>
      <point x="440" y="736"/>
      <point x="391" y="736" type="curve" smooth="yes"/>
      <point x="369" y="736"/>
      <point x="340" y="746"/>
      <point x="311" y="755" type="curve" smooth="yes"/>
      <point x="282" y="765"/>
      <point x="253" y="774"/>
      <point x="231" y="774" type="curve" smooth="yes"/>
      <point x="198" y="774"/>
      <point x="181" y="758"/>
      <point x="159" y="723" type="curve"/>
    </contour>
    <contour>
      <point x="188" y="305" type="curve"/>
      <point x="387" y="305" type="line"/>
      <point x="288" y="591" type="line"/>
      <point x="285" y="591" type="line"/>
      <point x="255" y="503"/>
      <point x="220" y="405"/>
    </contour>
  </outline>
</glyph>
<glyph name="AE" format="2">
	<unicode hex="00C6"/>
	<advance width="876"/>
	<outline>
		<contour>
			<point x="-65" y="0" type="line"/>
			<point x="-65" y="29" type="line"/>
			<point x="-11" y="34"/>
			<point x="4" y="37"/>
			<point x="26" y="77" type="curve" smooth="yes"/>
			<point x="324" y="623" type="line" smooth="yes"/>
			<point x="329" y="632"/>
			<point x="331" y="639"/>
			<point x="331" y="644" type="curve" smooth="yes"/>
			<point x="331" y="653"/>
			<point x="325" y="656"/>
			<point x="312" y="657" type="curve" smooth="yes"/>
			<point x="237" y="663" type="line"/>
			<point x="237" y="692" type="line"/>
			<point x="810" y="692" type="line"/>
			<point x="810" y="528" type="line"/>
			<point x="780" y="528" type="line"/>
			<point x="766" y="632"/>
			<point x="743" y="657"/>
			<point x="629" y="657" type="curve" smooth="yes"/>
			<point x="531" y="657" type="line" smooth="yes"/>
			<point x="499" y="657"/>
			<point x="494" y="651"/>
			<point x="494" y="621" type="curve" smooth="yes"/>
			<point x="494" y="379" type="line"/>
			<point x="634" y="379" type="line" smooth="yes"/>
			<point x="719" y="379"/>
			<point x="723" y="403"/>
			<point x="732" y="465" type="curve"/>
			<point x="762" y="465" type="line"/>
			<point x="762" y="254" type="line"/>
			<point x="732" y="254" type="line"/>
			<point x="723" y="317"/>
			<point x="719" y="341"/>
			<point x="634" y="341" type="curve" smooth="yes"/>
			<point x="494" y="341" type="line"/>
			<point x="494" y="125" type="line" smooth="yes"/>
			<point x="494" y="36"/>
			<point x="541" y="35"/>
			<point x="623" y="35" type="curve" smooth="yes"/>
			<point x="747" y="35"/>
			<point x="794" y="51"/>
			<point x="817" y="173" type="curve"/>
			<point x="847" y="173" type="line"/>
			<point x="835" y="0" type="line"/>
			<point x="305" y="0" type="line"/>
			<point x="305" y="29" type="line"/>
			<point x="392" y="35"/>
			<point x="395" y="37"/>
			<point x="395" y="95" type="curve" smooth="yes"/>
			<point x="395" y="341" type="line"/>
			<point x="223" y="341" type="line"/>
			<point x="85" y="64" type="line"/>
			<point x="83" y="59"/>
			<point x="82" y="55"/>
			<point x="82" y="51" type="curve" smooth="yes"/>
			<point x="82" y="42"/>
			<point x="88" y="37"/>
			<point x="100" y="36" type="curve" smooth="yes"/>
			<point x="166" y="29" type="line"/>
			<point x="166" y="0" type="line"/>
		</contour>
		<contour>
			<point x="242" y="379" type="line"/>
			<point x="395" y="379" type="line"/>
			<point x="395" y="652" type="line"/>
			<point x="389" y="652" type="line"/>
		</contour>
	</outline>
</glyph>
<glyph name="Ccedilla" format="1">
  <advance width="680"/>
  <unicode hex="00C7"/>
  <outline>
    <contour>
      <point x="48" y="341" type="curve" smooth="yes"/>
      <point x="48" y="454"/>
      <point x="82" y="540"/>
      <point x="139" y="604" type="curve" smooth="yes"/>
      <point x="199" y="671"/>
      <point x="298" y="707"/>
      <point x="421" y="707" type="curve" smooth="yes"/>
      <point x="512" y="707"/>
      <point x="588" y="689"/>
      <point x="633" y="668" type="curve"/>
      <point x="633" y="512" type="line"/>
      <point x="603" y="512" type="line"/>
      <point x="584" y="630"/>
      <point x="513" y="672"/>
      <point x="411" y="672" type="curve" smooth="yes"/>
      <point x="410" y="672"/>
      <point x="410" y="672"/>
      <point x="409" y="672" type="curve" smooth="yes"/>
      <point x="225" y="672"/>
      <point x="160" y="508"/>
      <point x="160" y="344" type="curve" smooth="yes"/>
      <point x="160" y="223"/>
      <point x="203" y="20"/>
      <point x="409" y="20" type="curve" smooth="yes"/>
      <point x="540" y="20"/>
      <point x="591" y="96"/>
      <point x="619" y="200" type="curve"/>
      <point x="649" y="200" type="line"/>
      <point x="635" y="33" type="line"/>
      <point x="587" y="7"/>
      <point x="495" y="-15"/>
      <point x="413" y="-15" type="curve"/>
      <point x="390" y="-55" type="line"/>
      <point x="427" y="-60"/>
      <point x="479" y="-78"/>
      <point x="479" y="-142" type="curve" smooth="yes"/>
      <point x="479" y="-219"/>
      <point x="388" y="-230"/>
      <point x="357" y="-230" type="curve" smooth="yes"/>
      <point x="339" y="-230"/>
      <point x="327" y="-229"/>
      <point x="313" y="-227" type="curve"/>
      <point x="313" y="-201" type="line"/>
      <point x="362" y="-201"/>
      <point x="401" y="-186"/>
      <point x="401" y="-145" type="curve" smooth="yes"/>
      <point x="401" y="-96"/>
      <point x="357" y="-92"/>
      <point x="339" y="-91" type="curve"/>
      <point x="335" y="-84" type="line"/>
      <point x="374" y="-13" type="line"/>
      <point x="279" y="-9"/>
      <point x="198" y="15"/>
      <point x="143" y="70" type="curve" smooth="yes"/>
      <point x="83" y="130"/>
      <point x="48" y="224"/>
    </contour>
  </outline>
</glyph>
<glyph name="Igrave" format="1">
  <advance width="349"/>
  <unicode hex="00CC"/>
  <outline>
    <contour>
      <point x="18" y="841" type="curve" smooth="yes"/>
      <point x="18" y="861"/>
      <point x="36" y="887"/>
      <point x="50" y="890" type="curve" smooth="yes"/>
      <point x="52" y="890"/>
      <point x="55" y="891"/>
      <point x="57" y="891" type="curve" smooth="yes"/>
      <point x="71" y="891"/>
      <point x="85" y="883"/>
      <point x="115" y="863" type="curve" smooth="yes"/>
      <point x="260" y="764" type="line"/>
      <point x="249" y="742" type="line"/>
      <point x="79" y="798" type="line" smooth="yes"/>
      <point x="33" y="812"/>
      <point x="18" y="819"/>
    </contour>
    <contour>
      <point x="35" y="0" type="line"/>
      <point x="35" y="29" type="line"/>
      <point x="123" y="35"/>
      <point x="125" y="37"/>
      <point x="125" y="93" type="curve" smooth="yes"/>
      <point x="125" y="599" type="line" smooth="yes"/>
      <point x="125" y="655"/>
      <point x="123" y="657"/>
      <point x="35" y="663" type="curve"/>
      <point x="35" y="692" type="line"/>
      <point x="314" y="692" type="line"/>
      <point x="314" y="663" type="line"/>
      <point x="227" y="657"/>
      <point x="224" y="655"/>
      <point x="224" y="599" type="curve" smooth="yes"/>
      <point x="224" y="93" type="line" smooth="yes"/>
      <point x="224" y="37"/>
      <point x="227" y="35"/>
      <point x="314" y="29" type="curve"/>
      <point x="314" y="0" type="line"/>
    </contour>
  </outline>
</glyph>
<glyph name="Iacute" format="1">
  <advance width="349"/>
  <unicode hex="00CD"/>
  <outline>
    <contour>
      <point x="35" y="0" type="line"/>
      <point x="35" y="29" type="line"/>
      <point x="123" y="35"/>
      <point x="125" y="37"/>
      <point x="125" y="93" type="curve" smooth="yes"/>
      <point x="125" y="599" type="line" smooth="yes"/>
      <point x="125" y="655"/>
      <point x="123" y="657"/>
      <point x="35" y="663" type="curve"/>
      <point x="35" y="692" type="line"/>
      <point x="314" y="692" type="line"/>
      <point x="314" y="663" type="line"/>
      <point x="227" y="657"/>
      <point x="224" y="655"/>
      <point x="224" y="599" type="curve" smooth="yes"/>
      <point x="224" y="93" type="line" smooth="yes"/>
      <point x="224" y="37"/>
      <point x="227" y="35"/>
      <point x="314" y="29" type="curve"/>
      <point x="314" y="0" type="line"/>
    </contour>
    <contour>
      <point x="89" y="764" type="line"/>
      <point x="234" y="863" type="line" smooth="yes"/>
      <point x="264" y="883"/>
      <point x="278" y="891"/>
      <point x="292" y="891" type="curve" smooth="yes"/>
      <point x="294" y="891"/>
      <point x="297" y="890"/>
      <point x="299" y="890" type="curve" smooth="yes"/>
      <point x="313" y="887"/>
      <point x="331" y="861"/>
      <point x="331" y="841" type="curve" smooth="yes"/>
      <point x="331" y="819"/>
      <point x="316" y="812"/>
      <point x="270" y="798" type="curve" smooth="yes"/>
      <point x="100" y="742" type="line"/>
    </contour>
  </outline>
</glyph>
<glyph name="Icircumflex" format="1">
  <advance width="349"/>
  <unicode hex="00CE"/>
  <outline>
    <contour>
      <point x="22" y="738" type="line"/>
      <point x="138" y="852" type="line" smooth="yes"/>
      <point x="152" y="865"/>
      <point x="163" y="876"/>
      <point x="175" y="876" type="curve" smooth="yes"/>
      <point x="187" y="876"/>
      <point x="199" y="864"/>
      <point x="212" y="852" type="curve" smooth="yes"/>
      <point x="328" y="738" type="line"/>
      <point x="315" y="717" type="line"/>
      <point x="208" y="778" type="line" smooth="yes"/>
      <point x="195" y="785"/>
      <point x="184" y="792"/>
      <point x="175" y="792" type="curve" smooth="yes"/>
      <point x="167" y="792"/>
      <point x="155" y="785"/>
      <point x="142" y="778" type="curve" smooth="yes"/>
      <point x="35" y="717" type="line"/>
    </contour>
    <contour>
      <point x="35" y="0" type="line"/>
      <point x="35" y="29" type="line"/>
      <point x="123" y="35"/>
      <point x="125" y="37"/>
      <point x="125" y="93" type="curve" smooth="yes"/>
      <point x="125" y="599" type="line" smooth="yes"/>
      <point x="125" y="655"/>
      <point x="123" y="657"/>
      <point x="35" y="663" type="curve"/>
      <point x="35" y="692" type="line"/>
      <point x="314" y="692" type="line"/>
      <point x="314" y="663" type="line"/>
      <point x="227" y="657"/>
      <point x="224" y="655"/>
      <point x="224" y="599" type="curve" smooth="yes"/>
      <point x="224" y="93" type="line" smooth="yes"/>
      <point x="224" y="37"/>
      <point x="227" y="35"/>
      <point x="314" y="29" type="curve"/>
      <point x="314" y="0" type="line"/>
    </contour>
  </outline>
</glyph>
<glyph name="Eth" format="1">
  <advance width="785"/>
  <unicode hex="00D0"/>
  <outline>
    <contour>
      <point x="20" y="341" type="line"/>
      <point x="20" y="379" type="line"/>
      <point x="131" y="379" type="line"/>
      <point x="131" y="599" type="line" smooth="yes"/>
      <point x="131" y="655"/>
      <point x="129" y="657"/>
      <point x="41" y="663" type="curve"/>
      <point x="41" y="692" type="line"/>
      <point x="373" y="692" type="line" smooth="yes"/>
      <point x="493" y="691"/>
      <point x="582" y="666"/>
      <point x="647" y="605" type="curve" smooth="yes"/>
      <point x="708" y="546"/>
      <point x="737" y="459"/>
      <point x="737" y="358" type="curve" smooth="yes"/>
      <point x="737" y="208"/>
      <point x="681" y="115"/>
      <point x="607" y="64" type="curve" smooth="yes"/>
      <point x="533" y="13"/>
      <point x="442" y="0"/>
      <point x="353" y="0" type="curve" smooth="yes"/>
      <point x="41" y="0" type="line"/>
      <point x="41" y="29" type="line"/>
      <point x="129" y="35"/>
      <point x="131" y="37"/>
      <point x="131" y="93" type="curve" smooth="yes"/>
      <point x="131" y="341" type="line"/>
    </contour>
    <contour>
      <point x="230" y="125" type="line" smooth="yes"/>
      <point x="230" y="46"/>
      <point x="247" y="35"/>
      <point x="334" y="35" type="curve" smooth="yes"/>
      <point x="502" y="35"/>
      <point x="625" y="102"/>
      <point x="625" y="354" type="curve" smooth="yes"/>
      <point x="625" y="523"/>
      <point x="561" y="653"/>
      <point x="346" y="657" type="curve" smooth="yes"/>
      <point x="239" y="657"/>
      <point x="230" y="652"/>
      <point x="230" y="600" type="curve" smooth="yes"/>
      <point x="230" y="379" type="line"/>
      <point x="368" y="379" type="line"/>
      <point x="368" y="341" type="line"/>
      <point x="230" y="341" type="line"/>
    </contour>
  </outline>
</glyph>
<glyph name="Oslash" format="1">
  <advance width="762"/>
  <unicode hex="00D8"/>
  <outline>
    <contour>
      <point x="48" y="346" type="curve" smooth="yes"/>
      <point x="48" y="459"/>
      <point x="79" y="550"/>
      <point x="133" y="610" type="curve" smooth="yes"/>
      <point x="189" y="673"/>
      <point x="271" y="707"/>
      <point x="381" y="707" type="curve" smooth="yes"/>
      <point x="452" y="707"/>
      <point x="511" y="693"/>
      <point x="559" y="665" type="curve"/>
      <point x="605" y="739" type="line"/>
      <point x="639" y="718" type="line"/>
      <point x="592" y="644" type="line"/>
      <point x="606" y="634"/>
      <point x="618" y="622"/>
      <point x="629" y="610" type="curve" smooth="yes"/>
      <point x="684" y="550"/>
      <point x="714" y="459"/>
      <point x="714" y="346" type="curve" smooth="yes"/>
      <point x="714" y="234"/>
      <point x="684" y="142"/>
      <point x="629" y="82" type="curve" smooth="yes"/>
      <point x="573" y="19"/>
      <point x="492" y="-15"/>
      <point x="381" y="-15" type="curve" smooth="yes"/>
      <point x="310" y="-15"/>
      <point x="251" y="-1"/>
      <point x="202" y="28" type="curve"/>
      <point x="151" y="-53" type="line"/>
      <point x="119" y="-29" type="line"/>
      <point x="168" y="49" type="line"/>
      <point x="156" y="58"/>
      <point x="144" y="70"/>
      <point x="133" y="82" type="curve" smooth="yes"/>
      <point x="79" y="142"/>
      <point x="48" y="234"/>
    </contour>
    <contour>
      <point x="160" y="346" type="curve" smooth="yes"/>
      <point x="161" y="268"/>
      <point x="173" y="182"/>
      <point x="211" y="117" type="curve"/>
      <point x="525" y="612" type="line"/>
      <point x="492" y="649"/>
      <point x="446" y="672"/>
      <point x="381" y="672" type="curve" smooth="yes"/>
      <point x="203" y="672"/>
      <point x="162" y="493"/>
    </contour>
    <contour>
      <point x="236" y="82" type="line"/>
      <point x="269" y="44"/>
      <point x="316" y="20"/>
      <point x="381" y="20" type="curve" smooth="yes"/>
      <point x="559" y="20"/>
      <point x="600" y="199"/>
      <point x="602" y="346" type="curve" smooth="yes"/>
      <point x="601" y="425"/>
      <point x="589" y="513"/>
      <point x="550" y="577" type="curve"/>
    </contour>
  </outline>
</glyph>
<glyph name="Udieresis" format="1">
  <advance width="791"/>
  <unicode hex="00DC"/>
  <outline>
    <contour>
      <point x="29" y="663" type="curve"/>
      <point x="29" y="692" type="line"/>
      <point x="308" y="692" type="line"/>
      <point x="308" y="663" type="line"/>
      <point x="221" y="657"/>
      <point x="218" y="655"/>
      <point x="218" y="599" type="curve" smooth="yes"/>
      <point x="218" y="275" type="line" smooth="yes"/>
      <point x="218" y="180"/>
      <point x="233" y="120"/>
      <point x="263" y="80" type="curve" smooth="yes"/>
      <point x="294" y="40"/>
      <point x="338" y="20"/>
      <point x="395" y="20" type="curve" smooth="yes"/>
      <point x="453" y="20"/>
      <point x="497" y="40"/>
      <point x="528" y="80" type="curve" smooth="yes"/>
      <point x="558" y="120"/>
      <point x="573" y="180"/>
      <point x="573" y="275" type="curve" smooth="yes"/>
      <point x="573" y="599" type="line" smooth="yes"/>
      <point x="573" y="655"/>
      <point x="571" y="657"/>
      <point x="483" y="663" type="curve"/>
      <point x="483" y="692" type="line"/>
      <point x="762" y="692" type="line"/>
      <point x="762" y="663" type="line"/>
      <point x="675" y="657"/>
      <point x="672" y="655"/>
      <point x="672" y="599" type="curve" smooth="yes"/>
      <point x="672" y="255" type="line" smooth="yes"/>
      <point x="672" y="195"/>
      <point x="662" y="142"/>
      <point x="645" y="107" type="curve" smooth="yes"/>
      <point x="599" y="8"/>
      <point x="494" y="-15"/>
      <point x="395" y="-15" type="curve" smooth="yes"/>
      <point x="297" y="-15"/>
      <point x="192" y="9"/>
      <point x="146" y="107" type="curve" smooth="yes"/>
      <point x="129" y="141"/>
      <point x="119" y="194"/>
      <point x="119" y="253" type="curve" smooth="yes"/>
      <point x="119" y="599" type="line" smooth="yes"/>
      <point x="119" y="655"/>
      <point x="117" y="657"/>
    </contour>
    <contour>
      <point x="234" y="787" type="curve" smooth="yes"/>
      <point x="234" y="815"/>
      <point x="255" y="841"/>
      <point x="292" y="841" type="curve" smooth="yes"/>
      <point x="330" y="841"/>
      <point x="350" y="815"/>
      <point x="350" y="787" type="curve" smooth="yes"/>
      <point x="350" y="759"/>
      <point x="330" y="732"/>
      <point x="292" y="732" type="curve" smooth="yes"/>
      <point x="255" y="732"/>
      <point x="234" y="759"/>
    </contour>
    <contour>
      <point x="442" y="787" type="curve" smooth="yes"/>
      <point x="442" y="815"/>
      <point x="463" y="841"/>
      <point x="500" y="841" type="curve" smooth="yes"/>
      <point x="538" y="841"/>
      <point x="558" y="815"/>
      <point x="558" y="787" type="curve" smooth="yes"/>
      <point x="558" y="759"/>
      <point x="538" y="732"/>
      <point x="500" y="732" type="curve" smooth="yes"/>
      <point x="463" y="732"/>
      <point x="442" y="759"/>
    </contour>
  </outline>
</glyph>
<glyph name="germandbls" format="1">
  <advance width="601"/>
  <unicode hex="00DF"/>
  <outline>
    <contour>
      <point x="22" y="0" type="line"/>
      <point x="22" y="29" type="line"/>
      <point x="94" y="34"/>
      <point x="97" y="36"/>
      <point x="97" y="87" type="curve" smooth="yes"/>
      <point x="97" y="455" type="line" smooth="yes"/>
      <point x="97" y="555"/>
      <point x="110" y="626"/>
      <point x="153" y="674" type="curve" smooth="yes"/>
      <point x="189" y="716"/>
      <point x="245" y="742"/>
      <point x="322" y="742" type="curve" smooth="yes"/>
      <point x="495" y="742"/>
      <point x="515" y="628"/>
      <point x="515" y="588" type="curve" smooth="yes"/>
      <point x="515" y="557"/>
      <point x="505" y="529"/>
      <point x="488" y="507" type="curve"/>
      <point x="416" y="497"/>
      <point x="371" y="464"/>
      <point x="371" y="410" type="curve" smooth="yes"/>
      <point x="371" y="365"/>
      <point x="398" y="337"/>
      <point x="472" y="287" type="curve" smooth="yes"/>
      <point x="521" y="254"/>
      <point x="573" y="204"/>
      <point x="573" y="128" type="curve" smooth="yes"/>
      <point x="573" y="44"/>
      <point x="510" y="-12"/>
      <point x="414" y="-12" type="curve" smooth="yes"/>
      <point x="340" y="-12"/>
      <point x="288" y="19"/>
      <point x="288" y="53" type="curve" smooth="yes"/>
      <point x="288" y="73"/>
      <point x="306" y="91"/>
      <point x="325" y="91" type="curve" smooth="yes"/>
      <point x="336" y="91"/>
      <point x="344" y="84"/>
      <point x="348" y="76" type="curve" smooth="yes"/>
      <point x="372" y="33"/>
      <point x="400" y="23"/>
      <point x="426" y="23" type="curve" smooth="yes"/>
      <point x="454" y="23"/>
      <point x="492" y="44"/>
      <point x="492" y="96" type="curve" smooth="yes"/>
      <point x="492" y="156"/>
      <point x="458" y="192"/>
      <point x="400" y="230" type="curve" smooth="yes"/>
      <point x="343" y="268"/>
      <point x="290" y="311"/>
      <point x="290" y="379" type="curve" smooth="yes"/>
      <point x="290" y="447"/>
      <point x="331" y="493"/>
      <point x="407" y="514" type="curve"/>
      <point x="423" y="531"/>
      <point x="429" y="563"/>
      <point x="429" y="586" type="curve" smooth="yes"/>
      <point x="429" y="657"/>
      <point x="381" y="707"/>
      <point x="318" y="707" type="curve" smooth="yes"/>
      <point x="263" y="707"/>
      <point x="231" y="677"/>
      <point x="212" y="629" type="curve" smooth="yes"/>
      <point x="193" y="582"/>
      <point x="191" y="517"/>
      <point x="191" y="448" type="curve" smooth="yes"/>
      <point x="191" y="87" type="line" smooth="yes"/>
      <point x="191" y="36"/>
      <point x="195" y="34"/>
      <point x="266" y="29" type="curve"/>
      <point x="266" y="0" type="line"/>
    </contour>
  </outline>
</glyph>
<glyph name="atilde" format="1">
  <advance width="523"/>
  <unicode hex="00E3"/>
  <outline>
    <contour>
      <point x="49" y="130" type="curve" smooth="yes"/>
      <point x="49" y="177"/>
      <point x="70" y="227"/>
      <point x="142" y="249" type="curve" smooth="yes"/>
      <point x="221" y="274"/>
      <point x="318" y="299"/>
      <point x="343" y="325" type="curve"/>
      <point x="343" y="367" type="line" smooth="yes"/>
      <point x="343" y="447"/>
      <point x="297" y="467"/>
      <point x="258" y="467" type="curve" smooth="yes"/>
      <point x="218" y="467"/>
      <point x="177" y="443"/>
      <point x="155" y="369" type="curve" smooth="yes"/>
      <point x="150" y="352"/>
      <point x="144" y="341"/>
      <point x="123" y="341" type="curve" smooth="yes"/>
      <point x="104" y="341"/>
      <point x="67" y="356"/>
      <point x="67" y="388" type="curve" smooth="yes"/>
      <point x="67" y="443"/>
      <point x="156" y="502"/>
      <point x="269" y="502" type="curve" smooth="yes"/>
      <point x="420" y="502"/>
      <point x="433" y="427"/>
      <point x="433" y="369" type="curve" smooth="yes"/>
      <point x="433" y="127" type="line" smooth="yes"/>
      <point x="433" y="64"/>
      <point x="450" y="45"/>
      <point x="468" y="41" type="curve" smooth="yes"/>
      <point x="474" y="39"/>
      <point x="481" y="39"/>
      <point x="488" y="39" type="curve" smooth="yes"/>
      <point x="499" y="39"/>
      <point x="511" y="40"/>
      <point x="519" y="42" type="curve"/>
      <point x="525" y="18" type="line"/>
      <point x="487" y="-1"/>
      <point x="444" y="-12"/>
      <point x="407" y="-12" type="curve" smooth="yes"/>
      <point x="372" y="-12"/>
      <point x="356" y="11"/>
      <point x="342" y="48" type="curve"/>
      <point x="310" y="27"/>
      <point x="251" y="-12"/>
      <point x="193" y="-12" type="curve" smooth="yes"/>
      <point x="99" y="-12"/>
      <point x="49" y="55"/>
    </contour>
    <contour>
      <point x="84" y="576" type="line"/>
      <point x="104" y="616"/>
      <point x="132" y="674"/>
      <point x="196" y="674" type="curve" smooth="yes"/>
      <point x="220" y="674"/>
      <point x="248" y="665"/>
      <point x="275" y="655" type="curve" smooth="yes"/>
      <point x="303" y="646"/>
      <point x="330" y="636"/>
      <point x="351" y="636" type="curve" smooth="yes"/>
      <point x="379" y="636"/>
      <point x="391" y="647"/>
      <point x="419" y="682" type="curve"/>
      <point x="439" y="671" type="line"/>
      <point x="425" y="643"/>
      <point x="411" y="619"/>
      <point x="395" y="602" type="curve" smooth="yes"/>
      <point x="378" y="586"/>
      <point x="360" y="576"/>
      <point x="335" y="576" type="curve" smooth="yes"/>
      <point x="313" y="576"/>
      <point x="284" y="586"/>
      <point x="255" y="595" type="curve" smooth="yes"/>
      <point x="226" y="605"/>
      <point x="197" y="614"/>
      <point x="175" y="614" type="curve" smooth="yes"/>
      <point x="142" y="614"/>
      <point x="125" y="598"/>
      <point x="103" y="563" type="curve"/>
    </contour>
    <contour>
      <point x="150" y="144" type="curve" smooth="yes"/>
      <point x="150" y="85"/>
      <point x="180" y="41"/>
      <point x="242" y="41" type="curve" smooth="yes"/>
      <point x="281" y="41"/>
      <point x="343" y="62"/>
      <point x="343" y="143" type="curve" smooth="yes"/>
      <point x="343" y="284" type="line"/>
      <point x="321" y="270"/>
      <point x="268" y="251"/>
      <point x="228" y="236" type="curve" smooth="yes"/>
      <point x="172" y="215"/>
      <point x="150" y="191"/>
    </contour>
  </outline>
</glyph>
<glyph name="ae" format="2">
	<unicode hex="00E6"/>
	<advance width="797"/>
	<outline>
		<contour>
			<point x="49" y="129" type="curve" smooth="yes"/>
			<point x="49" y="177"/>
			<point x="70" y="230"/>
			<point x="140" y="249" type="curve" smooth="yes"/>
			<point x="219" y="270"/>
			<point x="317" y="301"/>
			<point x="342" y="327" type="curve"/>
			<point x="342" y="370" type="line" smooth="yes"/>
			<point x="342" y="447"/>
			<point x="296" y="467"/>
			<point x="257" y="467" type="curve" smooth="yes"/>
			<point x="215" y="467"/>
			<point x="174" y="443"/>
			<point x="153" y="374" type="curve" smooth="yes"/>
			<point x="147" y="353"/>
			<point x="141" y="343"/>
			<point x="123" y="343" type="curve" smooth="yes"/>
			<point x="102" y="343"/>
			<point x="66" y="357"/>
			<point x="66" y="391" type="curve" smooth="yes"/>
			<point x="66" y="443"/>
			<point x="153" y="502"/>
			<point x="268" y="502" type="curve" smooth="yes"/>
			<point x="343" y="502"/>
			<point x="386" y="477"/>
			<point x="408" y="440" type="curve"/>
			<point x="446" y="481"/>
			<point x="495" y="502"/>
			<point x="565" y="502" type="curve" smooth="yes"/>
			<point x="745" y="502"/>
			<point x="764" y="361"/>
			<point x="764" y="303" type="curve" smooth="yes"/>
			<point x="764" y="268"/>
			<point x="745" y="263"/>
			<point x="724" y="263" type="curve" smooth="yes"/>
			<point x="435" y="263" type="line"/>
			<point x="435" y="162"/>
			<point x="462" y="41"/>
			<point x="585" y="41" type="curve" smooth="yes"/>
			<point x="662" y="41"/>
			<point x="700" y="87"/>
			<point x="728" y="145" type="curve"/>
			<point x="758" y="129" type="line"/>
			<point x="731" y="50"/>
			<point x="674" y="-12"/>
			<point x="556" y="-12" type="curve" smooth="yes"/>
			<point x="469" y="-12"/>
			<point x="409" y="22"/>
			<point x="377" y="75" type="curve"/>
			<point x="340" y="45" type="line" smooth="yes"/>
			<point x="312" y="23"/>
			<point x="255" y="-12"/>
			<point x="189" y="-12" type="curve" smooth="yes"/>
			<point x="98" y="-12"/>
			<point x="49" y="55"/>
		</contour>
		<contour>
			<point x="148" y="143" type="curve" smooth="yes"/>
			<point x="148" y="85"/>
			<point x="178" y="41"/>
			<point x="237" y="41" type="curve" smooth="yes"/>
			<point x="280" y="41"/>
			<point x="342" y="64"/>
			<point x="342" y="143" type="curve" smooth="yes"/>
			<point x="342" y="285" type="line"/>
			<point x="320" y="270"/>
			<point x="266" y="247"/>
			<point x="230" y="237" type="curve" smooth="yes"/>
			<point x="169" y="220"/>
			<point x="148" y="191"/>
		</contour>
		<contour>
			<point x="436" y="303" type="curve"/>
			<point x="626" y="303" type="line" smooth="yes"/>
			<point x="654" y="303"/>
			<point x="660" y="316"/>
			<point x="660" y="340" type="curve" smooth="yes"/>
			<point x="660" y="373"/>
			<point x="649" y="467"/>
			<point x="558" y="467" type="curve" smooth="yes"/>
			<point x="452" y="467"/>
			<point x="436" y="344"/>
		</contour>
	</outline>
</glyph>
<glyph name="ecircumflex" format="1">
  <advance width="514"/>
  <unicode hex="00EA"/>
  <outline>
    <contour>
      <point x="49" y="241" type="curve" smooth="yes"/>
      <point x="49" y="391"/>
      <point x="123" y="502"/>
      <point x="279" y="502" type="curve" smooth="yes"/>
      <point x="462" y="502"/>
      <point x="481" y="360"/>
      <point x="481" y="301" type="curve" smooth="yes"/>
      <point x="481" y="268"/>
      <point x="462" y="263"/>
      <point x="441" y="263" type="curve" smooth="yes"/>
      <point x="153" y="263" type="line"/>
      <point x="153" y="259"/>
      <point x="153" y="256"/>
      <point x="153" y="252" type="curve" smooth="yes"/>
      <point x="153" y="151"/>
      <point x="180" y="39"/>
      <point x="300" y="39" type="curve" smooth="yes"/>
      <point x="379" y="39"/>
      <point x="417" y="87"/>
      <point x="445" y="145" type="curve"/>
      <point x="475" y="129" type="line"/>
      <point x="448" y="50"/>
      <point x="391" y="-12"/>
      <point x="280" y="-12" type="curve" smooth="yes"/>
      <point x="117" y="-12"/>
      <point x="49" y="83"/>
    </contour>
    <contour>
      <point x="120" y="562" type="line"/>
      <point x="237" y="695" type="line" smooth="yes"/>
      <point x="250" y="709"/>
      <point x="261" y="720"/>
      <point x="273" y="720" type="curve" smooth="yes"/>
      <point x="285" y="720"/>
      <point x="297" y="708"/>
      <point x="309" y="695" type="curve" smooth="yes"/>
      <point x="426" y="562" type="line"/>
      <point x="407" y="541" type="line"/>
      <point x="304" y="618" type="line" smooth="yes"/>
      <point x="293" y="626"/>
      <point x="282" y="633"/>
      <point x="273" y="633" type="curve" smooth="yes"/>
      <point x="265" y="633"/>
      <point x="253" y="626"/>
      <point x="242" y="618" type="curve" smooth="yes"/>
      <point x="139" y="541" type="line"/>
    </contour>
    <contour>
      <point x="154" y="301" type="curve"/>
      <point x="343" y="301" type="line" smooth="yes"/>
      <point x="371" y="301"/>
      <point x="377" y="314"/>
      <point x="377" y="333" type="curve" smooth="yes"/>
      <point x="377" y="372"/>
      <point x="366" y="467"/>
      <point x="273" y="467" type="curve" smooth="yes"/>
      <point x="169" y="467"/>
      <point x="154" y="342"/>
    </contour>
  </outline>
</glyph>
<glyph name="igrave" format="1">
  <advance width="291"/>
  <unicode hex="00EC"/>
  <outline>
    <contour>
      <point x="5" y="680" type="curve" smooth="yes"/>
      <point x="5" y="700"/>
      <point x="29" y="723"/>
      <point x="44" y="723" type="curve" smooth="yes"/>
      <point x="61" y="723"/>
      <point x="78" y="713"/>
      <point x="108" y="682" type="curve" smooth="yes"/>
      <point x="227" y="562" type="line"/>
      <point x="212" y="542" type="line"/>
      <point x="61" y="626" type="line" smooth="yes"/>
      <point x="31" y="642"/>
      <point x="5" y="659"/>
    </contour>
    <contour>
      <point x="32" y="0" type="line"/>
      <point x="32" y="29" type="line"/>
      <point x="104" y="34"/>
      <point x="107" y="36"/>
      <point x="107" y="87" type="curve" smooth="yes"/>
      <point x="107" y="402" type="line" smooth="yes"/>
      <point x="107" y="438"/>
      <point x="101" y="443"/>
      <point x="75" y="447" type="curve" smooth="yes"/>
      <point x="37" y="452" type="line"/>
      <point x="37" y="477" type="line"/>
      <point x="194" y="502" type="line"/>
      <point x="201" y="496" type="line"/>
      <point x="201" y="87" type="line" smooth="yes"/>
      <point x="201" y="36"/>
      <point x="205" y="34"/>
      <point x="276" y="29" type="curve"/>
      <point x="276" y="0" type="line"/>
    </contour>
  </outline>
</glyph>
<glyph name="icircumflex" format="1">
  <advance width="291"/>
  <unicode hex="00EE"/>
  <outline>
    <contour>
      <point x="-3" y="562" type="line"/>
      <point x="115" y="695" type="line" smooth="yes"/>
      <point x="128" y="709"/>
      <point x="139" y="720"/>
      <point x="151" y="720" type="curve" smooth="yes"/>
      <point x="163" y="720"/>
      <point x="175" y="708"/>
      <point x="187" y="695" type="curve" smooth="yes"/>
      <point x="304" y="562" type="line"/>
      <point x="285" y="541" type="line"/>
      <point x="182" y="618" type="line" smooth="yes"/>
      <point x="171" y="626"/>
      <point x="160" y="633"/>
      <point x="151" y="633" type="curve" smooth="yes"/>
      <point x="143" y="633"/>
      <point x="131" y="626"/>
      <point x="120" y="618" type="curve" smooth="yes"/>
      <point x="17" y="541" type="line"/>
    </contour>
    <contour>
      <point x="32" y="0" type="line"/>
      <point x="32" y="29" type="line"/>
      <point x="104" y="34"/>
      <point x="107" y="36"/>
      <point x="107" y="87" type="curve" smooth="yes"/>
      <point x="107" y="402" type="line" smooth="yes"/>
      <point x="107" y="438"/>
      <point x="101" y="443"/>
      <point x="75" y="447" type="curve" smooth="yes"/>
      <point x="37" y="452" type="line"/>
      <point x="37" y="477" type="line"/>
      <point x="194" y="502" type="line"/>
      <point x="201" y="496" type="line"/>
      <point x="201" y="87" type="line" smooth="yes"/>
      <point x="201" y="36"/>
      <point x="205" y="34"/>
      <point x="276" y="29" type="curve"/>
      <point x="276" y="0" type="line"/>
    </contour>
  </outline>
</glyph>
<glyph name="idieresis" format="1">
  <advance width="291"/>
  <unicode hex="00EF"/>
  <outline>
    <contour>
      <point x="-19" y="627" type="curve" smooth="yes"/>
      <point x="-19" y="656"/>
      <point x="3" y="683"/>
      <point x="42" y="683" type="curve" smooth="yes"/>
      <point x="81" y="683"/>
      <point x="102" y="656"/>
      <point x="102" y="627" type="curve" smooth="yes"/>
      <point x="102" y="598"/>
      <point x="81" y="570"/>
      <point x="42" y="570" type="curve" smooth="yes"/>
      <point x="3" y="570"/>
      <point x="-19" y="598"/>
    </contour>
    <contour>
      <point x="32" y="0" type="line"/>
      <point x="32" y="29" type="line"/>
      <point x="104" y="34"/>
      <point x="107" y="36"/>
      <point x="107" y="87" type="curve" smooth="yes"/>
      <point x="107" y="402" type="line" smooth="yes"/>
      <point x="107" y="438"/>
      <point x="101" y="443"/>
      <point x="75" y="447" type="curve" smooth="yes"/>
      <point x="37" y="452" type="line"/>
      <point x="37" y="477" type="line"/>
      <point x="194" y="502" type="line"/>
      <point x="201" y="496" type="line"/>
      <point x="201" y="87" type="line" smooth="yes"/>
      <point x="201" y="36"/>
      <point x="205" y="34"/>
      <point x="276" y="29" type="curve"/>
      <point x="276" y="0" type="line"/>
    </contour>
    <contour>
      <point x="190" y="627" type="curve" smooth="yes"/>
      <point x="190" y="656"/>
      <point x="211" y="683"/>
      <point x="250" y="683" type="curve" smooth="yes"/>
      <point x="290" y="683"/>
      <point x="310" y="656"/>
      <point x="310" y="627" type="curve" smooth="yes"/>
      <point x="310" y="598"/>
      <point x="290" y="570"/>
      <point x="250" y="570" type="curve" smooth="yes"/>
      <point x="211" y="570"/>
      <point x="190" y="598"/>
    </contour>
  </outline>
</glyph>
<glyph name="ograve" format="1">
  <advance width="577"/>
  <unicode hex="00F2"/>
  <outline>
    <contour>
      <point x="49" y="245" type="curve" smooth="yes"/>
      <point x="49" y="407"/>
      <point x="128" y="502"/>
      <point x="289" y="502" type="curve" smooth="yes"/>
      <point x="450" y="502"/>
      <point x="529" y="407"/>
      <point x="529" y="245" type="curve" smooth="yes"/>
      <point x="529" y="83"/>
      <point x="450" y="-12"/>
      <point x="289" y="-12" type="curve" smooth="yes"/>
      <point x="128" y="-12"/>
      <point x="49" y="83"/>
    </contour>
    <contour>
      <point x="128" y="680" type="curve" smooth="yes"/>
      <point x="128" y="700"/>
      <point x="152" y="723"/>
      <point x="167" y="723" type="curve" smooth="yes"/>
      <point x="184" y="723"/>
      <point x="201" y="713"/>
      <point x="231" y="682" type="curve" smooth="yes"/>
      <point x="350" y="562" type="line"/>
      <point x="335" y="542" type="line"/>
      <point x="184" y="626" type="line" smooth="yes"/>
      <point x="154" y="642"/>
      <point x="128" y="659"/>
    </contour>
    <contour>
      <point x="153" y="245" type="curve" smooth="yes"/>
      <point x="153" y="107"/>
      <point x="197" y="23"/>
      <point x="289" y="23" type="curve" smooth="yes"/>
      <point x="381" y="23"/>
      <point x="425" y="107"/>
      <point x="425" y="245" type="curve" smooth="yes"/>
      <point x="425" y="383"/>
      <point x="381" y="467"/>
      <point x="289" y="467" type="curve" smooth="yes"/>
      <point x="197" y="467"/>
      <point x="153" y="383"/>
    </contour>
  </outline>
</glyph>
<glyph name="ccircumflex" format="1">
  <advance width="496"/>
  <unicode hex="0109"/>
  <outline>
    <contour>
      <point x="49" y="240" type="curve" smooth="yes"/>
      <point x="49" y="373"/>
      <point x="110" y="502"/>
      <point x="292" y="502" type="curve" smooth="yes"/>
      <point x="400" y="502"/>
      <point x="466" y="451"/>
      <point x="466" y="405" type="curve" smooth="yes"/>
      <point x="466" y="367"/>
      <point x="427" y="354"/>
      <point x="407" y="354" type="curve" smooth="yes"/>
      <point x="388" y="354"/>
      <point x="382" y="364"/>
      <point x="376" y="380" type="curve" smooth="yes"/>
      <point x="356" y="434"/>
      <point x="327" y="467"/>
      <point x="281" y="467" type="curve" smooth="yes"/>
      <point x="212" y="467"/>
      <point x="153" y="407"/>
      <point x="153" y="258" type="curve" smooth="yes"/>
      <point x="153" y="164"/>
      <point x="181" y="40"/>
      <point x="300" y="40" type="curve" smooth="yes"/>
      <point x="373" y="40"/>
      <point x="413" y="76"/>
      <point x="444" y="146" type="curve"/>
      <point x="473" y="132" type="line"/>
      <point x="445" y="25"/>
      <point x="351" y="-12"/>
      <point x="281" y="-12" type="curve" smooth="yes"/>
      <point x="131" y="-12"/>
      <point x="49" y="73"/>
    </contour>
    <contour>
      <point x="139" y="562" type="line"/>
      <point x="256" y="695" type="line" smooth="yes"/>
      <point x="269" y="709"/>
      <point x="280" y="720"/>
      <point x="292" y="720" type="curve" smooth="yes"/>
      <point x="304" y="720"/>
      <point x="316" y="708"/>
      <point x="328" y="695" type="curve" smooth="yes"/>
      <point x="445" y="562" type="line"/>
      <point x="426" y="541" type="line"/>
      <point x="323" y="618" type="line" smooth="yes"/>
      <point x="312" y="626"/>
      <point x="301" y="633"/>
      <point x="292" y="633" type="curve" smooth="yes"/>
      <point x="284" y="633"/>
      <point x="272" y="626"/>
      <point x="261" y="618" type="curve" smooth="yes"/>
      <point x="158" y="541" type="line"/>
    </contour>
  </outline>
</glyph>
<glyph name="Ccaron" format="1">
  <advance width="684"/>
  <unicode hex="010C"/>
  <outline>
    <contour>
      <point x="48" y="341" type="curve" smooth="yes"/>
      <point x="48" y="454"/>
      <point x="82" y="540"/>
      <point x="139" y="604" type="curve" smooth="yes"/>
      <point x="199" y="671"/>
      <point x="298" y="707"/>
      <point x="421" y="707" type="curve" smooth="yes"/>
      <point x="512" y="707"/>
      <point x="588" y="689"/>
      <point x="633" y="668" type="curve"/>
      <point x="633" y="512" type="line"/>
      <point x="603" y="512" type="line"/>
      <point x="584" y="630"/>
      <point x="513" y="672"/>
      <point x="411" y="672" type="curve" smooth="yes"/>
      <point x="225" y="672"/>
      <point x="160" y="508"/>
      <point x="160" y="344" type="curve" smooth="yes"/>
      <point x="160" y="223"/>
      <point x="203" y="20"/>
      <point x="409" y="20" type="curve" smooth="yes"/>
      <point x="540" y="20"/>
      <point x="591" y="96"/>
      <point x="619" y="200" type="curve"/>
      <point x="649" y="200" type="line"/>
      <point x="635" y="33" type="line"/>
      <point x="587" y="7"/>
      <point x="495" y="-15"/>
      <point x="415" y="-15" type="curve" smooth="yes"/>
      <point x="303" y="-15"/>
      <point x="205" y="8"/>
      <point x="143" y="70" type="curve" smooth="yes"/>
      <point x="83" y="130"/>
      <point x="48" y="224"/>
    </contour>
    <contour>
      <point x="267" y="861" type="line"/>
      <point x="280" y="882" type="line"/>
      <point x="387" y="821" type="line" smooth="yes"/>
      <point x="400" y="814"/>
      <point x="412" y="807"/>
      <point x="420" y="807" type="curve" smooth="yes"/>
      <point x="429" y="807"/>
      <point x="440" y="814"/>
      <point x="453" y="821" type="curve" smooth="yes"/>
      <point x="560" y="882" type="line"/>
      <point x="573" y="861" type="line"/>
      <point x="457" y="747" type="line" smooth="yes"/>
      <point x="444" y="735"/>
      <point x="432" y="723"/>
      <point x="420" y="723" type="curve" smooth="yes"/>
      <point x="408" y="723"/>
      <point x="397" y="734"/>
      <point x="383" y="747" type="curve" smooth="yes"/>
    </contour>
  </outline>
</glyph>
<glyph name="Emacron" format="1">
  <advance width="606"/>
  <unicode hex="0112"/>
  <outline>
    <contour>
      <point x="35" y="0" type="line"/>
      <point x="35" y="29" type="line"/>
      <point x="123" y="35"/>
      <point x="125" y="37"/>
      <point x="125" y="93" type="curve" smooth="yes"/>
      <point x="125" y="599" type="line" smooth="yes"/>
      <point x="125" y="655"/>
      <point x="123" y="657"/>
      <point x="35" y="663" type="curve"/>
      <point x="35" y="692" type="line"/>
      <point x="540" y="692" type="line"/>
      <point x="540" y="528" type="line"/>
      <point x="510" y="528" type="line"/>
      <point x="496" y="632"/>
      <point x="473" y="657"/>
      <point x="359" y="657" type="curve" smooth="yes"/>
      <point x="261" y="657" type="line" smooth="yes"/>
      <point x="229" y="657"/>
      <point x="224" y="653"/>
      <point x="224" y="621" type="curve" smooth="yes"/>
      <point x="224" y="379" type="line"/>
      <point x="364" y="379" type="line" smooth="yes"/>
      <point x="449" y="379"/>
      <point x="453" y="403"/>
      <point x="462" y="465" type="curve"/>
      <point x="492" y="465" type="line"/>
      <point x="492" y="254" type="line"/>
      <point x="462" y="254" type="line"/>
      <point x="453" y="317"/>
      <point x="449" y="341"/>
      <point x="364" y="341" type="curve" smooth="yes"/>
      <point x="224" y="341" type="line"/>
      <point x="224" y="120" type="line" smooth="yes"/>
      <point x="224" y="71"/>
      <point x="228" y="54"/>
      <point x="249" y="45" type="curve" smooth="yes"/>
      <point x="270" y="37"/>
      <point x="306" y="35"/>
      <point x="353" y="35" type="curve" smooth="yes"/>
      <point x="479" y="35"/>
      <point x="524" y="51"/>
      <point x="547" y="173" type="curve"/>
      <point x="577" y="173" type="line"/>
      <point x="565" y="0" type="line"/>
    </contour>
    <contour>
      <point x="148" y="759" type="line"/>
      <point x="148" y="818" type="line"/>
      <point x="464" y="818" type="line"/>
      <point x="464" y="759" type="line"/>
    </contour>
  </outline>
</glyph>
<glyph name="Eogonek" format="1">
  <advance width="606"/>
  <unicode hex="0118"/>
  <outline>
    <contour>
      <point x="35" y="0" type="line"/>
      <point x="35" y="29" type="line"/>
      <point x="123" y="35"/>
      <point x="125" y="37"/>
      <point x="125" y="93" type="curve" smooth="yes"/>
      <point x="125" y="599" type="line" smooth="yes"/>
      <point x="125" y="655"/>
      <point x="123" y="657"/>
      <point x="35" y="663" type="curve"/>
      <point x="35" y="692" type="line"/>
      <point x="540" y="692" type="line"/>
      <point x="540" y="528" type="line"/>
      <point x="510" y="528" type="line"/>
      <point x="496" y="632"/>
      <point x="473" y="657"/>
      <point x="359" y="657" type="curve" smooth="yes"/>
      <point x="261" y="657" type="line" smooth="yes"/>
      <point x="229" y="657"/>
      <point x="224" y="653"/>
      <point x="224" y="621" type="curve" smooth="yes"/>
      <point x="224" y="379" type="line"/>
      <point x="364" y="379" type="line" smooth="yes"/>
      <point x="449" y="379"/>
      <point x="453" y="403"/>
      <point x="462" y="465" type="curve"/>
      <point x="492" y="465" type="line"/>
      <point x="492" y="254" type="line"/>
      <point x="462" y="254" type="line"/>
      <point x="453" y="317"/>
      <point x="449" y="341"/>
      <point x="364" y="341" type="curve" smooth="yes"/>
      <point x="224" y="341" type="line"/>
      <point x="224" y="120" type="line" smooth="yes"/>
      <point x="224" y="71"/>
      <point x="228" y="54"/>
      <point x="249" y="45" type="curve" smooth="yes"/>
      <point x="270" y="37"/>
      <point x="306" y="35"/>
      <point x="353" y="35" type="curve" smooth="yes"/>
      <point x="479" y="35"/>
      <point x="524" y="51"/>
      <point x="547" y="173" type="curve"/>
      <point x="577" y="173" type="line"/>
      <point x="565" y="0" type="line"/>
      <point x="496" y="0" type="line"/>
      <point x="448" y="-40"/>
      <point x="420" y="-82"/>
      <point x="420" y="-132" type="curve" smooth="yes"/>
      <point x="420" y="-168"/>
      <point x="446" y="-186"/>
      <point x="478" y="-186" type="curve" smooth="yes"/>
      <point x="494" y="-186"/>
      <point x="518" y="-182"/>
      <point x="535" y="-174" type="curve"/>
      <point x="543" y="-195" type="line"/>
      <point x="519" y="-216"/>
      <point x="490" y="-230"/>
      <point x="450" y="-230" type="curve" smooth="yes"/>
      <point x="360" y="-230"/>
      <point x="346" y="-170"/>
      <point x="346" y="-139" type="curve" smooth="yes"/>
      <point x="346" y="-76"/>
      <point x="389" y="-36"/>
      <point x="453" y="0" type="curve"/>
    </contour>
  </outline>
</glyph>
<glyph name="eogonek" format="1">
  <advance width="514"/>
  <unicode hex="0119"/>
  <outline>
    <contour>
      <point x="49" y="241" type="curve" smooth="yes"/>
      <point x="49" y="391"/>
      <point x="123" y="502"/>
      <point x="279" y="502" type="curve" smooth="yes"/>
      <point x="462" y="502"/>
      <point x="481" y="360"/>
      <point x="481" y="301" type="curve" smooth="yes"/>
      <point x="481" y="268"/>
      <point x="462" y="263"/>
      <point x="441" y="263" type="curve" smooth="yes"/>
      <point x="153" y="263" type="line"/>
      <point x="153" y="259"/>
      <point x="153" y="256"/>
      <point x="153" y="252" type="curve" smooth="yes"/>
      <point x="153" y="151"/>
      <point x="180" y="39"/>
      <point x="300" y="39" type="curve" smooth="yes"/>
      <point x="379" y="39"/>
      <point x="417" y="87"/>
      <point x="445" y="145" type="curve"/>
      <point x="475" y="129" type="line"/>
      <point x="458" y="80"/>
      <point x="437" y="51"/>
      <point x="399" y="11" type="curve" smooth="yes"/>
      <point x="349" y="-41"/>
      <point x="319" y="-78"/>
      <point x="319" y="-132" type="curve" smooth="yes"/>
      <point x="319" y="-168"/>
      <point x="345" y="-186"/>
      <point x="377" y="-186" type="curve" smooth="yes"/>
      <point x="393" y="-186"/>
      <point x="417" y="-182"/>
      <point x="434" y="-174" type="curve"/>
      <point x="442" y="-195" type="line"/>
      <point x="418" y="-216"/>
      <point x="389" y="-230"/>
      <point x="349" y="-230" type="curve" smooth="yes"/>
      <point x="259" y="-230"/>
      <point x="245" y="-170"/>
      <point x="245" y="-139" type="curve" smooth="yes"/>
      <point x="245" y="-83"/>
      <point x="281" y="-41"/>
      <point x="345" y="-4" type="curve"/>
      <point x="325" y="-10"/>
      <point x="299" y="-12"/>
      <point x="280" y="-12" type="curve" smooth="yes"/>
      <point x="117" y="-12"/>
      <point x="49" y="83"/>
    </contour>
    <contour>
      <point x="154" y="301" type="curve"/>
      <point x="343" y="301" type="line" smooth="yes"/>
      <point x="371" y="301"/>
      <point x="377" y="314"/>
      <point x="377" y="333" type="curve" smooth="yes"/>
      <point x="377" y="372"/>
      <point x="366" y="467"/>
      <point x="273" y="467" type="curve" smooth="yes"/>
      <point x="169" y="467"/>
      <point x="154" y="342"/>
    </contour>
  </outline>
</glyph>
<glyph name="Ecaron" format="1">
  <advance width="606"/>
  <unicode hex="011A"/>
  <outline>
    <contour>
      <point x="35" y="0" type="line"/>
      <point x="35" y="29" type="line"/>
      <point x="123" y="35"/>
      <point x="125" y="37"/>
      <point x="125" y="93" type="curve" smooth="yes"/>
      <point x="125" y="599" type="line" smooth="yes"/>
      <point x="125" y="655"/>
      <point x="123" y="657"/>
      <point x="35" y="663" type="curve"/>
      <point x="35" y="692" type="line"/>
      <point x="540" y="692" type="line"/>
      <point x="540" y="528" type="line"/>
      <point x="510" y="528" type="line"/>
      <point x="496" y="632"/>
      <point x="473" y="657"/>
      <point x="359" y="657" type="curve" smooth="yes"/>
      <point x="261" y="657" type="line" smooth="yes"/>
      <point x="229" y="657"/>
      <point x="224" y="653"/>
      <point x="224" y="621" type="curve" smooth="yes"/>
      <point x="224" y="379" type="line"/>
      <point x="364" y="379" type="line" smooth="yes"/>
      <point x="449" y="379"/>
      <point x="453" y="403"/>
      <point x="462" y="465" type="curve"/>
      <point x="492" y="465" type="line"/>
      <point x="492" y="254" type="line"/>
      <point x="462" y="254" type="line"/>
      <point x="453" y="317"/>
      <point x="449" y="341"/>
      <point x="364" y="341" type="curve" smooth="yes"/>
      <point x="224" y="341" type="line"/>
      <point x="224" y="120" type="line" smooth="yes"/>
      <point x="224" y="71"/>
      <point x="228" y="54"/>
      <point x="249" y="45" type="curve" smooth="yes"/>
      <point x="270" y="37"/>
      <point x="306" y="35"/>
      <point x="353" y="35" type="curve" smooth="yes"/>
      <point x="479" y="35"/>
      <point x="524" y="51"/>
      <point x="547" y="173" type="curve"/>
      <point x="577" y="173" type="line"/>
      <point x="565" y="0" type="line"/>
    </contour>
    <contour>
      <point x="153" y="861" type="line"/>
      <point x="166" y="882" type="line"/>
      <point x="273" y="821" type="line" smooth="yes"/>
      <point x="286" y="814"/>
      <point x="298" y="807"/>
      <point x="306" y="807" type="curve" smooth="yes"/>
      <point x="315" y="807"/>
      <point x="326" y="814"/>
      <point x="339" y="821" type="curve" smooth="yes"/>
      <point x="446" y="882" type="line"/>
      <point x="459" y="861" type="line"/>
      <point x="343" y="747" type="line" smooth="yes"/>
      <point x="330" y="735"/>
      <point x="318" y="723"/>
      <point x="306" y="723" type="curve" smooth="yes"/>
      <point x="294" y="723"/>
      <point x="283" y="734"/>
      <point x="269" y="747" type="curve" smooth="yes"/>
    </contour>
  </outline>
</glyph>
<glyph name="ecaron" format="1">
  <advance width="514"/>
  <unicode hex="011B"/>
  <outline>
    <contour>
      <point x="49" y="241" type="curve" smooth="yes"/>
      <point x="49" y="391"/>
      <point x="123" y="502"/>
      <point x="279" y="502" type="curve" smooth="yes"/>
      <point x="462" y="502"/>
      <point x="481" y="360"/>
      <point x="481" y="301" type="curve" smooth="yes"/>
      <point x="481" y="268"/>
      <point x="462" y="263"/>
      <point x="441" y="263" type="curve" smooth="yes"/>
      <point x="153" y="263" type="line"/>
      <point x="153" y="259"/>
      <point x="153" y="256"/>
      <point x="153" y="252" type="curve" smooth="yes"/>
      <point x="153" y="151"/>
      <point x="180" y="39"/>
      <point x="300" y="39" type="curve" smooth="yes"/>
      <point x="379" y="39"/>
      <point x="417" y="87"/>
      <point x="445" y="145" type="curve"/>
      <point x="475" y="129" type="line"/>
      <point x="448" y="50"/>
      <point x="391" y="-12"/>
      <point x="280" y="-12" type="curve" smooth="yes"/>
      <point x="117" y="-12"/>
      <point x="49" y="83"/>
    </contour>
    <contour>
      <point x="125" y="699" type="line"/>
      <point x="144" y="720" type="line"/>
      <point x="247" y="643" type="line" smooth="yes"/>
      <point x="258" y="635"/>
      <point x="270" y="628"/>
      <point x="278" y="628" type="curve" smooth="yes"/>
      <point x="287" y="628"/>
      <point x="298" y="635"/>
      <point x="309" y="643" type="curve" smooth="yes"/>
      <point x="412" y="720" type="line"/>
      <point x="431" y="699" type="line"/>
      <point x="314" y="566" type="line" smooth="yes"/>
      <point x="302" y="553"/>
      <point x="290" y="541"/>
      <point x="278" y="541" type="curve" smooth="yes"/>
      <point x="266" y="541"/>
      <point x="255" y="552"/>
      <point x="242" y="566" type="curve" smooth="yes"/>
    </contour>
    <contour>
      <point x="154" y="301" type="curve"/>
      <point x="343" y="301" type="line" smooth="yes"/>
      <point x="371" y="301"/>
      <point x="377" y="314"/>
      <point x="377" y="333" type="curve" smooth="yes"/>
      <point x="377" y="372"/>
      <point x="366" y="467"/>
      <point x="273" y="467" type="curve" smooth="yes"/>
      <point x="169" y="467"/>
      <point x="154" y="342"/>
    </contour>
  </outline>
</glyph>
<glyph name="Gbreve" format="1">
  <advance width="734"/>
  <unicode hex="011E"/>
  <outline>
    <contour>
      <point x="48" y="333" type="curve" smooth="yes"/>
      <point x="48" y="437"/>
      <point x="72" y="517"/>
      <point x="123" y="584" type="curve" smooth="yes"/>
      <point x="180" y="658"/>
      <point x="280" y="707"/>
      <point x="430" y="707" type="curve" smooth="yes"/>
      <point x="510" y="707"/>
      <point x="596" y="690"/>
      <point x="645" y="666" type="curve"/>
      <point x="645" y="509" type="line"/>
      <point x="615" y="509" type="line"/>
      <point x="594" y="622"/>
      <point x="530" y="672"/>
      <point x="420" y="672" type="curve" smooth="yes"/>
      <point x="223" y="672"/>
      <point x="160" y="507"/>
      <point x="160" y="349" type="curve" smooth="yes"/>
      <point x="160" y="224"/>
      <point x="203" y="20"/>
      <point x="433" y="20" type="curve" smooth="yes"/>
      <point x="467" y="20"/>
      <point x="495" y="25"/>
      <point x="521" y="35" type="curve" smooth="yes"/>
      <point x="542" y="43"/>
      <point x="555" y="54"/>
      <point x="555" y="89" type="curve" smooth="yes"/>
      <point x="555" y="224" type="line" smooth="yes"/>
      <point x="555" y="273"/>
      <point x="550" y="279"/>
      <point x="449" y="286" type="curve"/>
      <point x="449" y="315" type="line"/>
      <point x="725" y="315" type="line"/>
      <point x="725" y="286" type="line"/>
      <point x="659" y="279"/>
      <point x="654" y="274"/>
      <point x="654" y="224" type="curve" smooth="yes"/>
      <point x="654" y="27" type="line"/>
      <point x="591" y="7"/>
      <point x="494" y="-15"/>
      <point x="424" y="-15" type="curve" smooth="yes"/>
      <point x="336" y="-15"/>
      <point x="248" y="-4"/>
      <point x="172" y="49" type="curve" smooth="yes"/>
      <point x="99" y="101"/>
      <point x="48" y="204"/>
    </contour>
    <contour>
      <point x="279" y="870" type="curve"/>
      <point x="307" y="870" type="line"/>
      <point x="309" y="851"/>
      <point x="335" y="811"/>
      <point x="429" y="811" type="curve" smooth="yes"/>
      <point x="523" y="811"/>
      <point x="549" y="851"/>
      <point x="551" y="870" type="curve"/>
      <point x="579" y="870" type="line"/>
      <point x="579" y="814"/>
      <point x="550" y="749"/>
      <point x="429" y="749" type="curve" smooth="yes"/>
      <point x="308" y="749"/>
      <point x="279" y="814"/>
    </contour>
  </outline>
</glyph>
<glyph name="Gdotaccent" format="1">
  <advance width="734"/>
  <unicode hex="0120"/>
  <outline>
    <contour>
      <point x="48" y="333" type="curve" smooth="yes"/>
      <point x="48" y="437"/>
      <point x="72" y="517"/>
      <point x="123" y="584" type="curve" smooth="yes"/>
      <point x="180" y="658"/>
      <point x="280" y="707"/>
      <point x="430" y="707" type="curve" smooth="yes"/>
      <point x="510" y="707"/>
      <point x="596" y="690"/>
      <point x="645" y="666" type="curve"/>
      <point x="645" y="509" type="line"/>
      <point x="615" y="509" type="line"/>
      <point x="594" y="622"/>
      <point x="530" y="672"/>
      <point x="420" y="672" type="curve" smooth="yes"/>
      <point x="223" y="672"/>
      <point x="160" y="507"/>
      <point x="160" y="349" type="curve" smooth="yes"/>
      <point x="160" y="224"/>
      <point x="203" y="20"/>
      <point x="433" y="20" type="curve" smooth="yes"/>
      <point x="467" y="20"/>
      <point x="495" y="25"/>
      <point x="521" y="35" type="curve" smooth="yes"/>
      <point x="542" y="43"/>
      <point x="555" y="54"/>
      <point x="555" y="89" type="curve" smooth="yes"/>
      <point x="555" y="224" type="line" smooth="yes"/>
      <point x="555" y="273"/>
      <point x="550" y="279"/>
      <point x="449" y="286" type="curve"/>
      <point x="449" y="315" type="line"/>
      <point x="725" y="315" type="line"/>
      <point x="725" y="286" type="line"/>
      <point x="659" y="279"/>
      <point x="654" y="274"/>
      <point x="654" y="224" type="curve" smooth="yes"/>
      <point x="654" y="27" type="line"/>
      <point x="591" y="7"/>
      <point x="494" y="-15"/>
      <point x="424" y="-15" type="curve" smooth="yes"/>
      <point x="336" y="-15"/>
      <point x="248" y="-4"/>
      <point x="172" y="49" type="curve" smooth="yes"/>
      <point x="99" y="101"/>
      <point x="48" y="204"/>
    </contour>
    <contour>
      <point x="371" y="787" type="curve" smooth="yes"/>
      <point x="371" y="815"/>
      <point x="392" y="841"/>
      <point x="429" y="841" type="curve" smooth="yes"/>
      <point x="467" y="841"/>
      <point x="487" y="815"/>
      <point x="487" y="787" type="curve" smooth="yes"/>
      <point x="487" y="759"/>
      <point x="467" y="732"/>
      <point x="429" y="732" type="curve" smooth="yes"/>
      <point x="392" y="732"/>
      <point x="371" y="759"/>
    </contour>
  </outline>
</glyph>
<glyph name="Gcedilla" format="1">
  <advance width="734"/>
  <unicode hex="0122"/>
  <outline>
    <contour>
      <point x="48" y="333" type="curve" smooth="yes"/>
      <point x="48" y="437"/>
      <point x="72" y="517"/>
      <point x="123" y="584" type="curve" smooth="yes"/>
      <point x="180" y="658"/>
      <point x="280" y="707"/>
      <point x="430" y="707" type="curve" smooth="yes"/>
      <point x="510" y="707"/>
      <point x="596" y="690"/>
      <point x="645" y="666" type="curve"/>
      <point x="645" y="509" type="line"/>
      <point x="615" y="509" type="line"/>
      <point x="594" y="622"/>
      <point x="530" y="672"/>
      <point x="420" y="672" type="curve" smooth="yes"/>
      <point x="223" y="672"/>
      <point x="160" y="507"/>
      <point x="160" y="349" type="curve" smooth="yes"/>
      <point x="160" y="224"/>
      <point x="203" y="20"/>
      <point x="433" y="20" type="curve" smooth="yes"/>
      <point x="467" y="20"/>
      <point x="495" y="25"/>
      <point x="521" y="35" type="curve" smooth="yes"/>
      <point x="542" y="43"/>
      <point x="555" y="54"/>
      <point x="555" y="89" type="curve" smooth="yes"/>
      <point x="555" y="224" type="line" smooth="yes"/>
      <point x="555" y="273"/>
      <point x="550" y="279"/>
      <point x="449" y="286" type="curve"/>
      <point x="449" y="315" type="line"/>
      <point x="725" y="315" type="line"/>
      <point x="725" y="286" type="line"/>
      <point x="659" y="279"/>
      <point x="654" y="274"/>
      <point x="654" y="224" type="curve" smooth="yes"/>
      <point x="654" y="27" type="line"/>
      <point x="591" y="7"/>
      <point x="494" y="-15"/>
      <point x="424" y="-15" type="curve" smooth="yes"/>
      <point x="336" y="-15"/>
      <point x="248" y="-4"/>
      <point x="172" y="49" type="curve" smooth="yes"/>
      <point x="99" y="101"/>
      <point x="48" y="204"/>
    </contour>
    <contour>
      <point x="311" y="-246" type="line"/>
      <point x="340" y="-216"/>
      <point x="356" y="-194"/>
      <point x="356" y="-162" type="curve" smooth="yes"/>
      <point x="356" y="-131"/>
      <point x="325" y="-116"/>
      <point x="325" y="-87" type="curve" smooth="yes"/>
      <point x="325" y="-63"/>
      <point x="343" y="-44"/>
      <point x="366" y="-44" type="curve" smooth="yes"/>
      <point x="400" y="-44"/>
      <point x="423" y="-74"/>
      <point x="423" y="-116" type="curve" smooth="yes"/>
      <point x="423" y="-178"/>
      <point x="373" y="-221"/>
      <point x="327" y="-261" type="curve"/>
    </contour>
  </outline>
</glyph>
<glyph name="Hcircumflex" format="1">
  <advance width="798"/>
  <unicode hex="0124"/>
  <outline>
    <contour>
      <point x="35" y="0" type="line"/>
      <point x="35" y="29" type="line"/>
      <point x="123" y="35"/>
      <point x="125" y="37"/>
      <point x="125" y="93" type="curve" smooth="yes"/>
      <point x="125" y="599" type="line" smooth="yes"/>
      <point x="125" y="655"/>
      <point x="123" y="657"/>
      <point x="35" y="663" type="curve"/>
      <point x="35" y="692" type="line"/>
      <point x="314" y="692" type="line"/>
      <point x="314" y="663" type="line"/>
      <point x="227" y="657"/>
      <point x="224" y="655"/>
      <point x="224" y="599" type="curve" smooth="yes"/>
      <point x="224" y="379" type="line"/>
      <point x="574" y="379" type="line"/>
      <point x="574" y="599" type="line" smooth="yes"/>
      <point x="574" y="655"/>
      <point x="572" y="657"/>
      <point x="484" y="663" type="curve"/>
      <point x="484" y="692" type="line"/>
      <point x="763" y="692" type="line"/>
      <point x="763" y="663" type="line"/>
      <point x="676" y="657"/>
      <point x="673" y="655"/>
      <point x="673" y="599" type="curve" smooth="yes"/>
      <point x="673" y="93" type="line" smooth="yes"/>
      <point x="673" y="37"/>
      <point x="676" y="35"/>
      <point x="763" y="29" type="curve"/>
      <point x="763" y="0" type="line"/>
      <point x="484" y="0" type="line"/>
      <point x="484" y="29" type="line"/>
      <point x="572" y="35"/>
      <point x="574" y="37"/>
      <point x="574" y="93" type="curve" smooth="yes"/>
      <point x="574" y="341" type="line"/>
      <point x="224" y="341" type="line"/>
      <point x="224" y="93" type="line" smooth="yes"/>
      <point x="224" y="37"/>
      <point x="227" y="35"/>
      <point x="314" y="29" type="curve"/>
      <point x="314" y="0" type="line"/>
    </contour>
    <contour>
      <point x="246" y="738" type="line"/>
      <point x="362" y="852" type="line" smooth="yes"/>
      <point x="376" y="865"/>
      <point x="387" y="876"/>
      <point x="399" y="876" type="curve" smooth="yes"/>
      <point x="411" y="876"/>
      <point x="423" y="864"/>
      <point x="436" y="852" type="curve" smooth="yes"/>
      <point x="552" y="738" type="line"/>
      <point x="539" y="717" type="line"/>
      <point x="432" y="778" type="line" smooth="yes"/>
      <point x="419" y="785"/>
      <point x="408" y="792"/>
      <point x="399" y="792" type="curve" smooth="yes"/>
      <point x="391" y="792"/>
      <point x="379" y="785"/>
      <point x="366" y="778" type="curve" smooth="yes"/>
      <point x="259" y="717" type="line"/>
    </contour>
  </outline>
</glyph>
<glyph name="hbar" format="1">
  <advance width="607"/>
  <unicode hex="0127"/>
  <outline>
    <contour>
      <point x="20" y="564" type="line"/>
      <point x="20" y="599" type="line"/>
      <point x="95" y="599" type="line"/>
      <point x="95" y="642" type="line" smooth="yes"/>
      <point x="95" y="678"/>
      <point x="89" y="683"/>
      <point x="63" y="687" type="curve" smooth="yes"/>
      <point x="25" y="692" type="line"/>
      <point x="25" y="717" type="line"/>
      <point x="181" y="742" type="line"/>
      <point x="188" y="736" type="line"/>
      <point x="188" y="599" type="line"/>
      <point x="409" y="599" type="line"/>
      <point x="409" y="564" type="line"/>
      <point x="188" y="564" type="line"/>
      <point x="188" y="421" type="line"/>
      <point x="251" y="463"/>
      <point x="296" y="497"/>
      <point x="369" y="497" type="curve" smooth="yes"/>
      <point x="462" y="497"/>
      <point x="517" y="439"/>
      <point x="517" y="338" type="curve" smooth="yes"/>
      <point x="517" y="87" type="line" smooth="yes"/>
      <point x="517" y="38"/>
      <point x="523" y="34"/>
      <point x="592" y="29" type="curve"/>
      <point x="592" y="0" type="line"/>
      <point x="348" y="0" type="line"/>
      <point x="348" y="29" type="line"/>
      <point x="418" y="34"/>
      <point x="423" y="38"/>
      <point x="423" y="87" type="curve" smooth="yes"/>
      <point x="423" y="318" type="line" smooth="yes"/>
      <point x="423" y="405"/>
      <point x="386" y="443"/>
      <point x="318" y="443" type="curve" smooth="yes"/>
      <point x="265" y="443"/>
      <point x="219" y="410"/>
      <point x="198" y="370" type="curve" smooth="yes"/>
      <point x="190" y="355"/>
      <point x="189" y="341"/>
      <point x="189" y="316" type="curve" smooth="yes"/>
      <point x="189" y="87" type="line" smooth="yes"/>
      <point x="189" y="38"/>
      <point x="195" y="34"/>
      <point x="264" y="29" type="curve"/>
      <point x="264" y="0" type="line"/>
      <point x="21" y="0" type="line"/>
      <point x="21" y="29" type="line"/>
      <point x="91" y="34"/>
      <point x="95" y="38"/>
      <point x="95" y="87" type="curve" smooth="yes"/>
      <point x="95" y="564" type="line"/>
    </contour>
  </outline>
</glyph>
<glyph name="Itilde" format="1">
  <advance width="349"/>
  <unicode hex="0128"/>
  <outline>
    <contour>
      <point x="-3" y="736" type="line"/>
      <point x="17" y="776"/>
      <point x="45" y="834"/>
      <point x="109" y="834" type="curve" smooth="yes"/>
      <point x="133" y="834"/>
      <point x="161" y="825"/>
      <point x="188" y="815" type="curve" smooth="yes"/>
      <point x="216" y="806"/>
      <point x="243" y="796"/>
      <point x="264" y="796" type="curve" smooth="yes"/>
      <point x="292" y="796"/>
      <point x="304" y="807"/>
      <point x="332" y="842" type="curve"/>
      <point x="352" y="831" type="line"/>
      <point x="323" y="774"/>
      <point x="297" y="736"/>
      <point x="248" y="736" type="curve" smooth="yes"/>
      <point x="226" y="736"/>
      <point x="197" y="746"/>
      <point x="168" y="755" type="curve" smooth="yes"/>
      <point x="139" y="765"/>
      <point x="110" y="774"/>
      <point x="88" y="774" type="curve" smooth="yes"/>
      <point x="55" y="774"/>
      <point x="38" y="758"/>
      <point x="16" y="723" type="curve"/>
    </contour>
    <contour>
      <point x="35" y="0" type="line"/>
      <point x="35" y="29" type="line"/>
      <point x="123" y="35"/>
      <point x="125" y="37"/>
      <point x="125" y="93" type="curve" smooth="yes"/>
      <point x="125" y="599" type="line" smooth="yes"/>
      <point x="125" y="655"/>
      <point x="123" y="657"/>
      <point x="35" y="663" type="curve"/>
      <point x="35" y="692" type="line"/>
      <point x="314" y="692" type="line"/>
      <point x="314" y="663" type="line"/>
      <point x="227" y="657"/>
      <point x="224" y="655"/>
      <point x="224" y="599" type="curve" smooth="yes"/>
      <point x="224" y="93" type="line" smooth="yes"/>
      <point x="224" y="37"/>
      <point x="227" y="35"/>
      <point x="314" y="29" type="curve"/>
      <point x="314" y="0" type="line"/>
    </contour>
  </outline>
</glyph>
<glyph name="ibreve" format="1">
  <advance width="291"/>
  <unicode hex="012D"/>
  <outline>
    <contour>
      <point x="17" y="704" type="curve"/>
      <point x="41" y="704" type="line"/>
      <point x="43" y="683"/>
      <point x="61" y="633"/>
      <point x="154" y="633" type="curve" smooth="yes"/>
      <point x="247" y="633"/>
      <point x="265" y="683"/>
      <point x="267" y="704" type="curve"/>
      <point x="291" y="704" type="line"/>
      <point x="291" y="641"/>
      <point x="279" y="568"/>
      <point x="154" y="568" type="curve" smooth="yes"/>
      <point x="29" y="568"/>
      <point x="17" y="641"/>
    </contour>
    <contour>
      <point x="32" y="0" type="line"/>
      <point x="32" y="29" type="line"/>
      <point x="104" y="34"/>
      <point x="107" y="36"/>
      <point x="107" y="87" type="curve" smooth="yes"/>
      <point x="107" y="402" type="line" smooth="yes"/>
      <point x="107" y="438"/>
      <point x="101" y="443"/>
      <point x="75" y="447" type="curve" smooth="yes"/>
      <point x="37" y="452" type="line"/>
      <point x="37" y="477" type="line"/>
      <point x="194" y="502" type="line"/>
      <point x="201" y="496" type="line"/>
      <point x="201" y="87" type="line" smooth="yes"/>
      <point x="201" y="36"/>
      <point x="205" y="34"/>
      <point x="276" y="29" type="curve"/>
      <point x="276" y="0" type="line"/>
    </contour>
  </outline>
</glyph>
<glyph name="Iogonek" format="1">
  <advance width="349"/>
  <unicode hex="012E"/>
  <outline>
    <contour>
      <point x="35" y="0" type="line"/>
      <point x="35" y="29" type="line"/>
      <point x="123" y="35"/>
      <point x="125" y="37"/>
      <point x="125" y="93" type="curve" smooth="yes"/>
      <point x="125" y="599" type="line" smooth="yes"/>
      <point x="125" y="655"/>
      <point x="123" y="657"/>
      <point x="35" y="663" type="curve"/>
      <point x="35" y="692" type="line"/>
      <point x="314" y="692" type="line"/>
      <point x="314" y="663" type="line"/>
      <point x="227" y="657"/>
      <point x="224" y="655"/>
      <point x="224" y="599" type="curve" smooth="yes"/>
      <point x="224" y="93" type="line" smooth="yes"/>
      <point x="224" y="37"/>
      <point x="227" y="35"/>
      <point x="314" y="29" type="curve"/>
      <point x="314" y="0" type="line"/>
      <point x="204" y="0" type="line"/>
      <point x="156" y="-40"/>
      <point x="128" y="-82"/>
      <point x="128" y="-132" type="curve" smooth="yes"/>
      <point x="129" y="-168"/>
      <point x="157" y="-186"/>
      <point x="191" y="-186" type="curve" smooth="yes"/>
      <point x="208" y="-186"/>
      <point x="226" y="-182"/>
      <point x="243" y="-174" type="curve"/>
      <point x="251" y="-195" type="line"/>
      <point x="236" y="-208"/>
      <point x="220" y="-217"/>
      <point x="204" y="-223" type="curve" smooth="yes"/>
      <point x="188" y="-228"/>
      <point x="173" y="-230"/>
      <point x="158" y="-230" type="curve" smooth="yes"/>
      <point x="68" y="-230"/>
      <point x="59" y="-170"/>
      <point x="59" y="-139" type="curve" smooth="yes"/>
      <point x="59" y="-90"/>
      <point x="101" y="-32"/>
      <point x="161" y="0" type="curve"/>
    </contour>
  </outline>
</glyph>
<glyph name="IJ" format="1">
  <advance width="699"/>
  <unicode hex="0132"/>
  <outline>
    <contour>
      <point x="35" y="0" type="line"/>
      <point x="35" y="29" type="line"/>
      <point x="123" y="35"/>
      <point x="125" y="37"/>
      <point x="125" y="93" type="curve" smooth="yes"/>
      <point x="125" y="599" type="line" smooth="yes"/>
      <point x="125" y="655"/>
      <point x="123" y="657"/>
      <point x="35" y="663" type="curve"/>
      <point x="35" y="692" type="line"/>
      <point x="314" y="692" type="line"/>
      <point x="314" y="663" type="line"/>
      <point x="227" y="657"/>
      <point x="224" y="655"/>
      <point x="224" y="599" type="curve" smooth="yes"/>
      <point x="224" y="93" type="line" smooth="yes"/>
      <point x="224" y="37"/>
      <point x="227" y="35"/>
      <point x="314" y="29" type="curve"/>
      <point x="314" y="0" type="line"/>
    </contour>
    <contour>
      <point x="349" y="-89" type="line"/>
      <point x="384" y="-80"/>
      <point x="420" y="-63"/>
      <point x="442" y="-37" type="curve" smooth="yes"/>
      <point x="466" y="-8"/>
      <point x="483" y="40"/>
      <point x="483" y="137" type="curve" smooth="yes"/>
      <point x="483" y="599" type="line" smooth="yes"/>
      <point x="483" y="655"/>
      <point x="481" y="657"/>
      <point x="393" y="663" type="curve"/>
      <point x="393" y="692" type="line"/>
      <point x="672" y="692" type="line"/>
      <point x="672" y="663" type="line"/>
      <point x="585" y="657"/>
      <point x="582" y="655"/>
      <point x="582" y="599" type="curve" smooth="yes"/>
      <point x="582" y="143" type="line" smooth="yes"/>
      <point x="582" y="41"/>
      <point x="570" y="-42"/>
      <point x="480" y="-83" type="curve" smooth="yes"/>
      <point x="441" y="-101"/>
      <point x="393" y="-112"/>
      <point x="354" y="-114" type="curve"/>
    </contour>
  </outline>
</glyph>
<glyph name="Jcircumflex" format="1">
  <advance width="350"/>
  <unicode hex="0134"/>
  <outline>
    <contour>
      <point x="0" y="-89" type="line"/>
      <point x="35" y="-80"/>
      <point x="71" y="-63"/>
      <point x="93" y="-37" type="curve" smooth="yes"/>
      <point x="117" y="-8"/>
      <point x="134" y="40"/>
      <point x="134" y="137" type="curve" smooth="yes"/>
      <point x="134" y="599" type="line" smooth="yes"/>
      <point x="134" y="655"/>
      <point x="132" y="657"/>
      <point x="44" y="663" type="curve"/>
      <point x="44" y="692" type="line"/>
      <point x="323" y="692" type="line"/>
      <point x="323" y="663" type="line"/>
      <point x="236" y="657"/>
      <point x="233" y="655"/>
      <point x="233" y="599" type="curve" smooth="yes"/>
      <point x="233" y="143" type="line" smooth="yes"/>
      <point x="233" y="41"/>
      <point x="221" y="-42"/>
      <point x="131" y="-83" type="curve" smooth="yes"/>
      <point x="92" y="-101"/>
      <point x="44" y="-112"/>
      <point x="5" y="-114" type="curve"/>
    </contour>
    <contour>
      <point x="31" y="738" type="line"/>
      <point x="147" y="852" type="line" smooth="yes"/>
      <point x="161" y="865"/>
      <point x="172" y="876"/>
      <point x="184" y="876" type="curve" smooth="yes"/>
      <point x="196" y="876"/>
      <point x="208" y="864"/>
      <point x="221" y="852" type="curve" smooth="yes"/>
      <point x="337" y="738" type="line"/>
      <point x="324" y="717" type="line"/>
      <point x="217" y="778" type="line" smooth="yes"/>
      <point x="204" y="785"/>
      <point x="193" y="792"/>
      <point x="184" y="792" type="curve" smooth="yes"/>
      <point x="176" y="792"/>
      <point x="164" y="785"/>
      <point x="151" y="778" type="curve" smooth="yes"/>
      <point x="44" y="717" type="line"/>
    </contour>
  </outline>
</glyph>
<glyph name="jcircumflex" format="1">
  <advance width="280"/>
  <unicode hex="0135"/>
  <outline>
    <contour>
      <point x="-33" y="-218" type="line"/>
      <point x="28" y="-203"/>
      <point x="62" y="-182"/>
      <point x="80" y="-147" type="curve" smooth="yes"/>
      <point x="101" y="-106"/>
      <point x="106" y="-36"/>
      <point x="106" y="36" type="curve" smooth="yes"/>
      <point x="106" y="402" type="line" smooth="yes"/>
      <point x="106" y="436"/>
      <point x="100" y="443"/>
      <point x="74" y="447" type="curve" smooth="yes"/>
      <point x="36" y="452" type="line"/>
      <point x="36" y="477" type="line"/>
      <point x="193" y="502" type="line"/>
      <point x="200" y="496" type="line"/>
      <point x="200" y="7" type="line" smooth="yes"/>
      <point x="200" y="-118"/>
      <point x="170" y="-205"/>
      <point x="43" y="-233" type="curve" smooth="yes"/>
      <point x="15" y="-239"/>
      <point x="-13" y="-242"/>
      <point x="-31" y="-242" type="curve"/>
    </contour>
    <contour>
      <point x="0" y="562" type="line"/>
      <point x="117" y="695" type="line" smooth="yes"/>
      <point x="130" y="709"/>
      <point x="141" y="720"/>
      <point x="153" y="720" type="curve" smooth="yes"/>
      <point x="165" y="720"/>
      <point x="177" y="708"/>
      <point x="189" y="695" type="curve" smooth="yes"/>
      <point x="306" y="562" type="line"/>
      <point x="287" y="541" type="line"/>
      <point x="184" y="618" type="line" smooth="yes"/>
      <point x="173" y="626"/>
      <point x="162" y="633"/>
      <point x="153" y="633" type="curve" smooth="yes"/>
      <point x="145" y="633"/>
      <point x="133" y="626"/>
      <point x="122" y="618" type="curve" smooth="yes"/>
      <point x="19" y="541" type="line"/>
    </contour>
  </outline>
</glyph>
<glyph name="kgreenlandic" format="2">
	<unicode hex="0138"/>
	<advance width="562"/>
	<outline>
		<component base="dotlessi" xOffset="-12"/>
		<contour>
			<point x="189" y="254" type="line"/>
			<point x="189" y="268" type="line"/>
			<point x="191" y="268" type="line"/>
			<point x="342" y="461" type="line" smooth="yes"/>
			<point x="361.251" y="485.605"/>
			<point x="371" y="490"/>
			<point x="405" y="490" type="curve" smooth="yes"/>
			<point x="508" y="490" type="line"/>
			<point x="508" y="462" type="line"/>
			<point x="409.964" y="451.858"/>
			<point x="352.52" y="394.475"/>
			<point x="289.394" y="324.022" type="curve" smooth="yes"/>
			<point x="277" y="310" type="line" smooth="yes"/>
			<point x="271.832" y="304.315"/>
			<point x="269.869" y="300.232"/>
			<point x="269.869" y="296.648" type="curve" smooth="yes"/>
			<point x="269.869" y="293.297"/>
			<point x="271.584" y="290.382"/>
			<point x="274" y="287" type="curve" smooth="yes"/>
			<point x="281.543" y="276.463" type="line" smooth="yes"/>
			<point x="330.832" y="208.673"/>
			<point x="453.443" y="45.5486"/>
			<point x="538" y="23" type="curve"/>
			<point x="538" y="-5" type="line"/>
			<point x="463" y="-5" type="line" smooth="yes"/>
			<point x="367.767" y="-5"/>
			<point x="247.308" y="169.05"/>
			<point x="200.928" y="238.701" type="curve" smooth="yes"/>
			<point x="191" y="254" type="line"/>
		</contour>
	</outline>
</glyph>
<glyph name="Lacute" format="1">
  <advance width="568"/>
  <unicode hex="0139"/>
  <outline>
    <contour>
      <point x="35" y="0" type="line"/>
      <point x="35" y="29" type="line"/>
      <point x="123" y="35"/>
      <point x="125" y="37"/>
      <point x="125" y="93" type="curve" smooth="yes"/>
      <point x="125" y="599" type="line" smooth="yes"/>
      <point x="125" y="655"/>
      <point x="123" y="657"/>
      <point x="35" y="663" type="curve"/>
      <point x="35" y="692" type="line"/>
      <point x="320" y="692" type="line"/>
      <point x="320" y="663" type="line"/>
      <point x="227" y="657"/>
      <point x="224" y="655"/>
      <point x="224" y="599" type="curve" smooth="yes"/>
      <point x="224" y="120" type="line" smooth="yes"/>
      <point x="224" y="71"/>
      <point x="228" y="54"/>
      <point x="249" y="45" type="curve" smooth="yes"/>
      <point x="270" y="37"/>
      <point x="306" y="35"/>
      <point x="356" y="35" type="curve" smooth="yes"/>
      <point x="461" y="35"/>
      <point x="516" y="48"/>
      <point x="536" y="179" type="curve"/>
      <point x="566" y="179" type="line"/>
      <point x="554" y="0" type="line"/>
    </contour>
    <contour>
      <point x="201" y="764" type="line"/>
      <point x="346" y="863" type="line" smooth="yes"/>
      <point x="376" y="883"/>
      <point x="390" y="891"/>
      <point x="404" y="891" type="curve" smooth="yes"/>
      <point x="406" y="891"/>
      <point x="409" y="890"/>
      <point x="411" y="890" type="curve" smooth="yes"/>
      <point x="425" y="887"/>
      <point x="443" y="861"/>
      <point x="443" y="841" type="curve" smooth="yes"/>
      <point x="443" y="819"/>
      <point x="428" y="812"/>
      <point x="382" y="798" type="curve" smooth="yes"/>
      <point x="212" y="742" type="line"/>
    </contour>
  </outline>
</glyph>
<glyph name="lacute" format="1">
  <advance width="279"/>
  <unicode hex="013A"/>
  <outline>
    <contour>
      <point x="20" y="0" type="line"/>
      <point x="20" y="29" type="line"/>
      <point x="92" y="34"/>
      <point x="95" y="36"/>
      <point x="95" y="87" type="curve" smooth="yes"/>
      <point x="95" y="642" type="line" smooth="yes"/>
      <point x="95" y="680"/>
      <point x="89" y="685"/>
      <point x="63" y="688" type="curve" smooth="yes"/>
      <point x="25" y="692" type="line"/>
      <point x="25" y="717" type="line"/>
      <point x="182" y="742" type="line"/>
      <point x="189" y="736" type="line"/>
      <point x="189" y="87" type="line" smooth="yes"/>
      <point x="189" y="36"/>
      <point x="193" y="34"/>
      <point x="264" y="29" type="curve"/>
      <point x="264" y="0" type="line"/>
    </contour>
    <contour>
      <point x="61" y="802" type="line"/>
      <point x="180" y="922" type="line" smooth="yes"/>
      <point x="210" y="953"/>
      <point x="227" y="963"/>
      <point x="244" y="963" type="curve" smooth="yes"/>
      <point x="259" y="963"/>
      <point x="283" y="940"/>
      <point x="283" y="920" type="curve" smooth="yes"/>
      <point x="283" y="899"/>
      <point x="257" y="882"/>
      <point x="227" y="866" type="curve" smooth="yes"/>
      <point x="76" y="782" type="line"/>
    </contour>
  </outline>
</glyph>
<glyph name="lcedilla" format="1">
  <advance width="279"/>
  <unicode hex="013C"/>
  <outline>
    <contour>
      <point x="20" y="0" type="line"/>
      <point x="20" y="29" type="line"/>
      <point x="92" y="34"/>
      <point x="95" y="36"/>
      <point x="95" y="87" type="curve" smooth="yes"/>
      <point x="95" y="642" type="line" smooth="yes"/>
      <point x="95" y="680"/>
      <point x="89" y="685"/>
      <point x="63" y="688" type="curve" smooth="yes"/>
      <point x="25" y="692" type="line"/>
      <point x="25" y="717" type="line"/>
      <point x="182" y="742" type="line"/>
      <point x="189" y="736" type="line"/>
      <point x="189" y="87" type="line" smooth="yes"/>
      <point x="189" y="36"/>
      <point x="193" y="34"/>
      <point x="264" y="29" type="curve"/>
      <point x="264" y="0" type="line"/>
    </contour>
    <contour>
      <point x="83" y="-246" type="line"/>
      <point x="112" y="-216"/>
      <point x="128" y="-194"/>
      <point x="128" y="-162" type="curve" smooth="yes"/>
      <point x="128" y="-131"/>
      <point x="97" y="-116"/>
      <point x="97" y="-87" type="curve" smooth="yes"/>
      <point x="97" y="-63"/>
      <point x="115" y="-44"/>
      <point x="138" y="-44" type="curve" smooth="yes"/>
      <point x="172" y="-44"/>
      <point x="195" y="-74"/>
      <point x="195" y="-116" type="curve" smooth="yes"/>
      <point x="195" y="-178"/>
      <point x="145" y="-221"/>
      <point x="99" y="-261" type="curve"/>
    </contour>
  </outline>
</glyph>
<glyph name="lcaron" format="2">
	<unicode hex="013E"/>
	<advance width="329"/>
	<outline>
		<contour>
			<point x="20" y="0" type="line"/>
			<point x="20" y="29" type="line"/>
			<point x="92" y="34"/>
			<point x="95" y="36"/>
			<point x="95" y="87" type="curve" smooth="yes"/>
			<point x="95" y="642" type="line" smooth="yes"/>
			<point x="95" y="680"/>
			<point x="89" y="685"/>
			<point x="63" y="688" type="curve" smooth="yes"/>
			<point x="25" y="692" type="line"/>
			<point x="25" y="717" type="line"/>
			<point x="182" y="742" type="line"/>
			<point x="189" y="736" type="line"/>
			<point x="189" y="87" type="line" smooth="yes"/>
			<point x="189" y="36"/>
			<point x="193" y="34"/>
			<point x="264" y="29" type="curve"/>
			<point x="264" y="0" type="line"/>
		</contour>
		<contour>
			<point x="226" y="744" type="curve" smooth="yes"/>
			<point x="226" y="769"/>
			<point x="246" y="790"/>
			<point x="277" y="790" type="curve" smooth="yes"/>
			<point x="318" y="790"/>
			<point x="345" y="751"/>
			<point x="345" y="701" type="curve" smooth="yes"/>
			<point x="345" y="639"/>
			<point x="297" y="590"/>
			<point x="253" y="548" type="curve"/>
			<point x="236" y="564" type="line"/>
			<point x="258" y="595"/>
			<point x="272" y="627"/>
			<point x="272" y="656" type="curve" smooth="yes"/>
			<point x="272" y="697"/>
			<point x="226" y="702"/>
		</contour>
	</outline>
</glyph>
<glyph name="Lslash" format="1">
  <advance width="574"/>
  <unicode hex="0141"/>
  <outline>
    <contour>
      <point x="36" y="220" type="line"/>
      <point x="36" y="266" type="line"/>
      <point x="131" y="336" type="line"/>
      <point x="131" y="599" type="line" smooth="yes"/>
      <point x="131" y="655"/>
      <point x="129" y="657"/>
      <point x="41" y="663" type="curve"/>
      <point x="41" y="692" type="line"/>
      <point x="326" y="692" type="line"/>
      <point x="326" y="663" type="line"/>
      <point x="233" y="657"/>
      <point x="230" y="655"/>
      <point x="230" y="599" type="curve" smooth="yes"/>
      <point x="230" y="401" type="line"/>
      <point x="358" y="496" type="line"/>
      <point x="358" y="450" type="line"/>
      <point x="230" y="355" type="line"/>
      <point x="230" y="120" type="line" smooth="yes"/>
      <point x="230" y="71"/>
      <point x="234" y="54"/>
      <point x="255" y="45" type="curve" smooth="yes"/>
      <point x="276" y="37"/>
      <point x="312" y="35"/>
      <point x="362" y="35" type="curve" smooth="yes"/>
      <point x="467" y="35"/>
      <point x="522" y="48"/>
      <point x="542" y="179" type="curve"/>
      <point x="572" y="179" type="line"/>
      <point x="560" y="0" type="line"/>
      <point x="41" y="0" type="line"/>
      <point x="41" y="29" type="line"/>
      <point x="129" y="35"/>
      <point x="131" y="37"/>
      <point x="131" y="93" type="curve" smooth="yes"/>
      <point x="131" y="290" type="line"/>
    </contour>
  </outline>
</glyph>
<glyph name="ncedilla" format="1">
  <advance width="619"/>
  <unicode hex="0146"/>
  <outline>
    <contour>
      <point x="32" y="0" type="line"/>
      <point x="32" y="29" type="line"/>
      <point x="104" y="34"/>
      <point x="107" y="36"/>
      <point x="107" y="87" type="curve" smooth="yes"/>
      <point x="107" y="402" type="line" smooth="yes"/>
      <point x="107" y="438"/>
      <point x="101" y="443"/>
      <point x="75" y="447" type="curve" smooth="yes"/>
      <point x="37" y="452" type="line"/>
      <point x="37" y="477" type="line"/>
      <point x="186" y="502" type="line"/>
      <point x="200" y="426" type="line"/>
      <point x="262" y="466"/>
      <point x="308" y="502"/>
      <point x="382" y="502" type="curve" smooth="yes"/>
      <point x="474" y="502"/>
      <point x="529" y="444"/>
      <point x="529" y="343" type="curve" smooth="yes"/>
      <point x="529" y="87" type="line" smooth="yes"/>
      <point x="529" y="36"/>
      <point x="533" y="34"/>
      <point x="604" y="29" type="curve"/>
      <point x="604" y="0" type="line"/>
      <point x="360" y="0" type="line"/>
      <point x="360" y="29" type="line"/>
      <point x="432" y="34"/>
      <point x="435" y="36"/>
      <point x="435" y="87" type="curve" smooth="yes"/>
      <point x="435" y="323" type="line" smooth="yes"/>
      <point x="435" y="410"/>
      <point x="398" y="448"/>
      <point x="330" y="448" type="curve" smooth="yes"/>
      <point x="277" y="448"/>
      <point x="232" y="415"/>
      <point x="211" y="376" type="curve" smooth="yes"/>
      <point x="203" y="360"/>
      <point x="201" y="346"/>
      <point x="201" y="321" type="curve" smooth="yes"/>
      <point x="201" y="87" type="line" smooth="yes"/>
      <point x="201" y="36"/>
      <point x="205" y="34"/>
      <point x="276" y="29" type="curve"/>
      <point x="276" y="0" type="line"/>
    </contour>
    <contour>
      <point x="261" y="-246" type="line"/>
      <point x="290" y="-216"/>
      <point x="306" y="-194"/>
      <point x="306" y="-162" type="curve" smooth="yes"/>
      <point x="306" y="-131"/>
      <point x="275" y="-116"/>
      <point x="275" y="-87" type="curve" smooth="yes"/>
      <point x="275" y="-63"/>
      <point x="293" y="-44"/>
      <point x="316" y="-44" type="curve" smooth="yes"/>
      <point x="350" y="-44"/>
      <point x="373" y="-74"/>
      <point x="373" y="-116" type="curve" smooth="yes"/>
      <point x="373" y="-178"/>
      <point x="323" y="-221"/>
      <point x="277" y="-261" type="curve"/>
    </contour>
  </outline>
</glyph>
<glyph name="napostrophe" format="1">
  <advance width="685"/>
  <unicode hex="0149"/>
  <outline>
    <contour>
      <point x="19" y="505" type="line"/>
      <point x="48" y="535"/>
      <point x="64" y="557"/>
      <point x="64" y="589" type="curve" smooth="yes"/>
      <point x="64" y="620"/>
      <point x="33" y="635"/>
      <point x="33" y="664" type="curve" smooth="yes"/>
      <point x="33" y="688"/>
      <point x="51" y="707"/>
      <point x="74" y="707" type="curve" smooth="yes"/>
      <point x="108" y="707"/>
      <point x="131" y="677"/>
      <point x="131" y="635" type="curve" smooth="yes"/>
      <point x="131" y="573"/>
      <point x="81" y="530"/>
      <point x="35" y="490" type="curve"/>
    </contour>
    <contour>
      <point x="77" y="0" type="line"/>
      <point x="77" y="29" type="line"/>
      <point x="149" y="34"/>
      <point x="152" y="36"/>
      <point x="152" y="87" type="curve" smooth="yes"/>
      <point x="152" y="402" type="line" smooth="yes"/>
      <point x="152" y="438"/>
      <point x="146" y="443"/>
      <point x="120" y="447" type="curve" smooth="yes"/>
      <point x="82" y="452" type="line"/>
      <point x="82" y="477" type="line"/>
      <point x="231" y="502" type="line"/>
      <point x="245" y="426" type="line"/>
      <point x="307" y="466"/>
      <point x="353" y="502"/>
      <point x="427" y="502" type="curve" smooth="yes"/>
      <point x="519" y="502"/>
      <point x="574" y="444"/>
      <point x="574" y="343" type="curve" smooth="yes"/>
      <point x="574" y="87" type="line" smooth="yes"/>
      <point x="574" y="36"/>
      <point x="578" y="34"/>
      <point x="649" y="29" type="curve"/>
      <point x="649" y="0" type="line"/>
      <point x="405" y="0" type="line"/>
      <point x="405" y="29" type="line"/>
      <point x="477" y="34"/>
      <point x="480" y="36"/>
      <point x="480" y="87" type="curve" smooth="yes"/>
      <point x="480" y="323" type="line" smooth="yes"/>
      <point x="480" y="410"/>
      <point x="443" y="448"/>
      <point x="375" y="448" type="curve" smooth="yes"/>
      <point x="322" y="448"/>
      <point x="277" y="415"/>
      <point x="256" y="376" type="curve" smooth="yes"/>
      <point x="248" y="360"/>
      <point x="246" y="346"/>
      <point x="246" y="321" type="curve" smooth="yes"/>
      <point x="246" y="87" type="line" smooth="yes"/>
      <point x="246" y="36"/>
      <point x="250" y="34"/>
      <point x="321" y="29" type="curve"/>
      <point x="321" y="0" type="line"/>
    </contour>
  </outline>
</glyph>
<glyph name="Eng" format="1">
  <advance width="761"/>
  <unicode hex="014A"/>
  <outline>
    <contour>
      <point x="35" y="0" type="line"/>
      <point x="35" y="29" type="line"/>
      <point x="123" y="35"/>
      <point x="125" y="37"/>
      <point x="125" y="93" type="curve" smooth="yes"/>
      <point x="125" y="599" type="line" smooth="yes"/>
      <point x="125" y="655"/>
      <point x="123" y="657"/>
      <point x="35" y="663" type="curve"/>
      <point x="35" y="692" type="line"/>
      <point x="224" y="692" type="line"/>
      <point x="224" y="600" type="line"/>
      <point x="275" y="649"/>
      <point x="368" y="707"/>
      <point x="470" y="707" type="curve" smooth="yes"/>
      <point x="602" y="707"/>
      <point x="676" y="647"/>
      <point x="676" y="473" type="curve" smooth="yes"/>
      <point x="676" y="40" type="line" smooth="yes"/>
      <point x="676" y="-162"/>
      <point x="590" y="-242"/>
      <point x="484" y="-242" type="curve" smooth="yes"/>
      <point x="441" y="-242"/>
      <point x="404" y="-236"/>
      <point x="382" y="-220" type="curve" smooth="yes"/>
      <point x="348" y="-196"/>
      <point x="328" y="-157"/>
      <point x="328" y="-137" type="curve" smooth="yes"/>
      <point x="328" y="-104"/>
      <point x="364" y="-91"/>
      <point x="386" y="-91" type="curve" smooth="yes"/>
      <point x="451" y="-91"/>
      <point x="398" y="-207"/>
      <point x="474" y="-207" type="curve" smooth="yes"/>
      <point x="563" y="-207"/>
      <point x="577" y="-112"/>
      <point x="577" y="10" type="curve" smooth="yes"/>
      <point x="577" y="503" type="line" smooth="yes"/>
      <point x="577" y="599"/>
      <point x="533" y="645"/>
      <point x="431" y="645" type="curve" smooth="yes"/>
      <point x="384" y="645"/>
      <point x="351" y="634"/>
      <point x="320" y="620" type="curve" smooth="yes"/>
      <point x="295" y="609"/>
      <point x="224" y="577"/>
      <point x="224" y="521" type="curve" smooth="yes"/>
      <point x="224" y="93" type="line" smooth="yes"/>
      <point x="224" y="37"/>
      <point x="226" y="35"/>
      <point x="316" y="29" type="curve"/>
      <point x="316" y="0" type="line"/>
    </contour>
  </outline>
</glyph>
<glyph name="Obreve" format="1">
  <advance width="762"/>
  <unicode hex="014E"/>
  <outline>
    <contour>
      <point x="48" y="346" type="curve" smooth="yes"/>
      <point x="48" y="458"/>
      <point x="79" y="550"/>
      <point x="133" y="610" type="curve" smooth="yes"/>
      <point x="189" y="673"/>
      <point x="271" y="707"/>
      <point x="381" y="707" type="curve" smooth="yes"/>
      <point x="491" y="707"/>
      <point x="573" y="673"/>
      <point x="629" y="610" type="curve" smooth="yes"/>
      <point x="683" y="550"/>
      <point x="714" y="458"/>
      <point x="714" y="346" type="curve" smooth="yes"/>
      <point x="714" y="234"/>
      <point x="683" y="142"/>
      <point x="629" y="82" type="curve" smooth="yes"/>
      <point x="573" y="19"/>
      <point x="491" y="-15"/>
      <point x="381" y="-15" type="curve" smooth="yes"/>
      <point x="271" y="-15"/>
      <point x="189" y="19"/>
      <point x="133" y="82" type="curve" smooth="yes"/>
      <point x="79" y="142"/>
      <point x="48" y="234"/>
    </contour>
    <contour>
      <point x="160" y="346" type="curve" smooth="yes"/>
      <point x="160" y="199"/>
      <point x="203" y="20"/>
      <point x="381" y="20" type="curve" smooth="yes"/>
      <point x="559" y="20"/>
      <point x="602" y="199"/>
      <point x="602" y="346" type="curve" smooth="yes"/>
      <point x="602" y="493"/>
      <point x="559" y="672"/>
      <point x="381" y="672" type="curve" smooth="yes"/>
      <point x="203" y="672"/>
      <point x="160" y="493"/>
    </contour>
    <contour>
      <point x="231" y="870" type="curve"/>
      <point x="259" y="870" type="line"/>
      <point x="261" y="851"/>
      <point x="287" y="811"/>
      <point x="381" y="811" type="curve" smooth="yes"/>
      <point x="475" y="811"/>
      <point x="501" y="851"/>
      <point x="503" y="870" type="curve"/>
      <point x="531" y="870" type="line"/>
      <point x="531" y="814"/>
      <point x="502" y="749"/>
      <point x="381" y="749" type="curve" smooth="yes"/>
      <point x="260" y="749"/>
      <point x="231" y="814"/>
    </contour>
  </outline>
</glyph>
<glyph name="obreve" format="1">
  <advance width="577"/>
  <unicode hex="014F"/>
  <outline>
    <contour>
      <point x="49" y="245" type="curve" smooth="yes"/>
      <point x="49" y="407"/>
      <point x="128" y="502"/>
      <point x="289" y="502" type="curve" smooth="yes"/>
      <point x="450" y="502"/>
      <point x="529" y="407"/>
      <point x="529" y="245" type="curve" smooth="yes"/>
      <point x="529" y="83"/>
      <point x="450" y="-12"/>
      <point x="289" y="-12" type="curve" smooth="yes"/>
      <point x="128" y="-12"/>
      <point x="49" y="83"/>
    </contour>
    <contour>
      <point x="152" y="704" type="curve"/>
      <point x="176" y="704" type="line"/>
      <point x="178" y="683"/>
      <point x="196" y="633"/>
      <point x="289" y="633" type="curve" smooth="yes"/>
      <point x="382" y="633"/>
      <point x="400" y="683"/>
      <point x="402" y="704" type="curve"/>
      <point x="426" y="704" type="line"/>
      <point x="426" y="641"/>
      <point x="414" y="568"/>
      <point x="289" y="568" type="curve" smooth="yes"/>
      <point x="164" y="568"/>
      <point x="152" y="641"/>
    </contour>
    <contour>
      <point x="153" y="245" type="curve" smooth="yes"/>
      <point x="153" y="107"/>
      <point x="197" y="23"/>
      <point x="289" y="23" type="curve" smooth="yes"/>
      <point x="381" y="23"/>
      <point x="425" y="107"/>
      <point x="425" y="245" type="curve" smooth="yes"/>
      <point x="425" y="383"/>
      <point x="381" y="467"/>
      <point x="289" y="467" type="curve" smooth="yes"/>
      <point x="197" y="467"/>
      <point x="153" y="383"/>
    </contour>
  </outline>
</glyph>
<glyph name="OE" format="2">
	<unicode hex="0152"/>
	<advance width="1025"/>
	<outline>
		<contour>
			<point x="48" y="342" type="curve" smooth="yes"/>
			<point x="48" y="603"/>
			<point x="220" y="692"/>
			<point x="453" y="692" type="curve" smooth="yes"/>
			<point x="959" y="692" type="line"/>
			<point x="959" y="528" type="line"/>
			<point x="929" y="528" type="line"/>
			<point x="915" y="632"/>
			<point x="892" y="657"/>
			<point x="778" y="657" type="curve" smooth="yes"/>
			<point x="680" y="657" type="line" smooth="yes"/>
			<point x="648" y="657"/>
			<point x="643" y="649"/>
			<point x="643" y="621" type="curve" smooth="yes"/>
			<point x="643" y="379" type="line"/>
			<point x="783" y="379" type="line" smooth="yes"/>
			<point x="868" y="379"/>
			<point x="872" y="403"/>
			<point x="881" y="465" type="curve"/>
			<point x="911" y="465" type="line"/>
			<point x="911" y="254" type="line"/>
			<point x="881" y="254" type="line"/>
			<point x="872" y="317"/>
			<point x="868" y="341"/>
			<point x="783" y="341" type="curve" smooth="yes"/>
			<point x="643" y="341" type="line"/>
			<point x="643" y="125" type="line" smooth="yes"/>
			<point x="643" y="52"/>
			<point x="667" y="35"/>
			<point x="772" y="35" type="curve" smooth="yes"/>
			<point x="896" y="35"/>
			<point x="943" y="51"/>
			<point x="966" y="173" type="curve"/>
			<point x="996" y="173" type="line"/>
			<point x="984" y="0" type="line"/>
			<point x="448" y="0" type="line" smooth="yes"/>
			<point x="212" y="0"/>
			<point x="48" y="87"/>
		</contour>
		<contour>
			<point x="160" y="351" type="curve" smooth="yes"/>
			<point x="160" y="201"/>
			<point x="217" y="35"/>
			<point x="428" y="35" type="curve" smooth="yes"/>
			<point x="512" y="35"/>
			<point x="544" y="45"/>
			<point x="544" y="88" type="curve" smooth="yes"/>
			<point x="544" y="605" type="line" smooth="yes"/>
			<point x="544" y="648"/>
			<point x="502" y="657"/>
			<point x="430" y="657" type="curve" smooth="yes"/>
			<point x="217" y="657"/>
			<point x="160" y="500"/>
		</contour>
	</outline>
</glyph>
<glyph name="Rcaron" format="1">
  <advance width="644"/>
  <unicode hex="0158"/>
  <outline>
    <contour>
      <point x="35" y="0" type="line"/>
      <point x="35" y="29" type="line"/>
      <point x="123" y="35"/>
      <point x="125" y="37"/>
      <point x="125" y="93" type="curve" smooth="yes"/>
      <point x="125" y="599" type="line" smooth="yes"/>
      <point x="125" y="655"/>
      <point x="123" y="657"/>
      <point x="35" y="663" type="curve"/>
      <point x="35" y="692" type="line"/>
      <point x="327" y="692" type="line" smooth="yes"/>
      <point x="502" y="692"/>
      <point x="562" y="617"/>
      <point x="562" y="521" type="curve" smooth="yes"/>
      <point x="562" y="426"/>
      <point x="493" y="363"/>
      <point x="399" y="345" type="curve"/>
      <point x="399" y="343" type="line"/>
      <point x="505" y="317"/>
      <point x="523" y="250"/>
      <point x="535" y="161" type="curve" smooth="yes"/>
      <point x="544" y="93"/>
      <point x="560" y="37"/>
      <point x="638" y="29" type="curve"/>
      <point x="638" y="0" type="line"/>
      <point x="557" y="0" type="line" smooth="yes"/>
      <point x="498" y="0"/>
      <point x="460" y="22"/>
      <point x="445" y="86" type="curve" smooth="yes"/>
      <point x="434" y="132"/>
      <point x="423" y="211"/>
      <point x="416" y="239" type="curve" smooth="yes"/>
      <point x="399" y="307"/>
      <point x="353" y="326"/>
      <point x="293" y="326" type="curve" smooth="yes"/>
      <point x="224" y="326" type="line"/>
      <point x="224" y="93" type="line" smooth="yes"/>
      <point x="224" y="50"/>
      <point x="224" y="49"/>
      <point x="227" y="45" type="curve" smooth="yes"/>
      <point x="234" y="33"/>
      <point x="257" y="33"/>
      <point x="299" y="29" type="curve"/>
      <point x="299" y="0" type="line"/>
    </contour>
    <contour>
      <point x="137" y="861" type="line"/>
      <point x="150" y="882" type="line"/>
      <point x="257" y="821" type="line" smooth="yes"/>
      <point x="270" y="814"/>
      <point x="282" y="807"/>
      <point x="290" y="807" type="curve" smooth="yes"/>
      <point x="299" y="807"/>
      <point x="310" y="814"/>
      <point x="323" y="821" type="curve" smooth="yes"/>
      <point x="430" y="882" type="line"/>
      <point x="443" y="861" type="line"/>
      <point x="327" y="747" type="line" smooth="yes"/>
      <point x="314" y="735"/>
      <point x="302" y="723"/>
      <point x="290" y="723" type="curve" smooth="yes"/>
      <point x="278" y="723"/>
      <point x="267" y="734"/>
      <point x="253" y="747" type="curve" smooth="yes"/>
    </contour>
    <contour>
      <point x="224" y="361" type="line"/>
      <point x="303" y="361" type="line" smooth="yes"/>
      <point x="400" y="361"/>
      <point x="455" y="407"/>
      <point x="455" y="512" type="curve" smooth="yes"/>
      <point x="455" y="630"/>
      <point x="371" y="657"/>
      <point x="297" y="657" type="curve" smooth="yes"/>
      <point x="231" y="657"/>
      <point x="224" y="649"/>
      <point x="224" y="607" type="curve" smooth="yes"/>
    </contour>
  </outline>
</glyph>
<glyph name="rcaron" format="1">
  <advance width="389"/>
  <unicode hex="0159"/>
  <outline>
    <contour>
      <point x="32" y="0" type="line"/>
      <point x="32" y="29" type="line"/>
      <point x="102" y="34"/>
      <point x="107" y="36"/>
      <point x="107" y="87" type="curve" smooth="yes"/>
      <point x="107" y="402" type="line" smooth="yes"/>
      <point x="107" y="438"/>
      <point x="101" y="443"/>
      <point x="75" y="447" type="curve" smooth="yes"/>
      <point x="37" y="452" type="line"/>
      <point x="37" y="477" type="line"/>
      <point x="189" y="502" type="line"/>
      <point x="201" y="422" type="line"/>
      <point x="267" y="480"/>
      <point x="297" y="502"/>
      <point x="333" y="502" type="curve" smooth="yes"/>
      <point x="372" y="502"/>
      <point x="386" y="475"/>
      <point x="386" y="453" type="curve" smooth="yes"/>
      <point x="386" y="422"/>
      <point x="364" y="397"/>
      <point x="340" y="397" type="curve" smooth="yes"/>
      <point x="335" y="397"/>
      <point x="327" y="398"/>
      <point x="320" y="402" type="curve" smooth="yes"/>
      <point x="291" y="418"/>
      <point x="274" y="424"/>
      <point x="258" y="424" type="curve" smooth="yes"/>
      <point x="235" y="424"/>
      <point x="201" y="398"/>
      <point x="201" y="321" type="curve" smooth="yes"/>
      <point x="201" y="87" type="line" smooth="yes"/>
      <point x="201" y="36"/>
      <point x="207" y="34"/>
      <point x="296" y="29" type="curve"/>
      <point x="296" y="0" type="line"/>
    </contour>
    <contour>
      <point x="84" y="699" type="line"/>
      <point x="103" y="720" type="line"/>
      <point x="206" y="643" type="line" smooth="yes"/>
      <point x="217" y="635"/>
      <point x="229" y="628"/>
      <point x="237" y="628" type="curve" smooth="yes"/>
      <point x="246" y="628"/>
      <point x="257" y="635"/>
      <point x="268" y="643" type="curve" smooth="yes"/>
      <point x="371" y="720" type="line"/>
      <point x="390" y="699" type="line"/>
      <point x="273" y="566" type="line" smooth="yes"/>
      <point x="261" y="553"/>
      <point x="249" y="541"/>
      <point x="237" y="541" type="curve" smooth="yes"/>
      <point x="225" y="541"/>
      <point x="214" y="552"/>
      <point x="201" y="566" type="curve" smooth="yes"/>
    </contour>
  </outline>
</glyph>
<glyph name="Scircumflex" format="1">
  <advance width="541"/>
  <unicode hex="015C"/>
  <outline>
    <contour>
      <point x="50" y="205" type="line"/>
      <point x="82" y="205" type="line"/>
      <point x="107" y="93"/>
      <point x="169" y="20"/>
      <point x="263" y="20" type="curve" smooth="yes"/>
      <point x="352" y="20"/>
      <point x="407" y="72"/>
      <point x="407" y="158" type="curve" smooth="yes"/>
      <point x="407" y="247"/>
      <point x="312" y="293"/>
      <point x="268" y="310" type="curve" smooth="yes"/>
      <point x="250" y="317" type="line" smooth="yes"/>
      <point x="145" y="354"/>
      <point x="61" y="409"/>
      <point x="61" y="514" type="curve" smooth="yes"/>
      <point x="61" y="646"/>
      <point x="169" y="707"/>
      <point x="291" y="707" type="curve" smooth="yes"/>
      <point x="359" y="707"/>
      <point x="427" y="690"/>
      <point x="461" y="663" type="curve"/>
      <point x="461" y="522" type="line"/>
      <point x="430" y="522" type="line"/>
      <point x="414" y="623"/>
      <point x="366" y="672"/>
      <point x="280" y="672" type="curve" smooth="yes"/>
      <point x="196" y="672"/>
      <point x="152" y="618"/>
      <point x="152" y="545" type="curve" smooth="yes"/>
      <point x="152" y="485"/>
      <point x="208" y="442"/>
      <point x="275" y="417" type="curve" smooth="yes"/>
      <point x="307" y="405" type="line" smooth="yes"/>
      <point x="424" y="362"/>
      <point x="504" y="306"/>
      <point x="504" y="188" type="curve" smooth="yes"/>
      <point x="504" y="86"/>
      <point x="434" y="-15"/>
      <point x="257" y="-15" type="curve" smooth="yes"/>
      <point x="187" y="-15"/>
      <point x="104" y="4"/>
      <point x="60" y="45" type="curve"/>
    </contour>
    <contour>
      <point x="138" y="738" type="line"/>
      <point x="254" y="852" type="line" smooth="yes"/>
      <point x="268" y="865"/>
      <point x="279" y="876"/>
      <point x="291" y="876" type="curve" smooth="yes"/>
      <point x="303" y="876"/>
      <point x="315" y="864"/>
      <point x="328" y="852" type="curve" smooth="yes"/>
      <point x="444" y="738" type="line"/>
      <point x="431" y="717" type="line"/>
      <point x="324" y="778" type="line" smooth="yes"/>
      <point x="311" y="785"/>
      <point x="300" y="792"/>
      <point x="291" y="792" type="curve" smooth="yes"/>
      <point x="283" y="792"/>
      <point x="271" y="785"/>
      <point x="258" y="778" type="curve" smooth="yes"/>
      <point x="151" y="717" type="line"/>
    </contour>
  </outline>
</glyph>
<glyph name="Scedilla" format="1">
  <advance width="541"/>
  <unicode hex="015E"/>
  <outline>
    <contour>
      <point x="50" y="205" type="line"/>
      <point x="82" y="205" type="line"/>
      <point x="107" y="93"/>
      <point x="169" y="20"/>
      <point x="263" y="20" type="curve" smooth="yes"/>
      <point x="352" y="20"/>
      <point x="407" y="72"/>
      <point x="407" y="158" type="curve" smooth="yes"/>
      <point x="407" y="247"/>
      <point x="312" y="293"/>
      <point x="268" y="310" type="curve" smooth="yes"/>
      <point x="250" y="317" type="line" smooth="yes"/>
      <point x="145" y="354"/>
      <point x="61" y="409"/>
      <point x="61" y="514" type="curve" smooth="yes"/>
      <point x="61" y="646"/>
      <point x="169" y="707"/>
      <point x="291" y="707" type="curve" smooth="yes"/>
      <point x="359" y="707"/>
      <point x="427" y="690"/>
      <point x="461" y="663" type="curve"/>
      <point x="461" y="522" type="line"/>
      <point x="430" y="522" type="line"/>
      <point x="414" y="623"/>
      <point x="366" y="672"/>
      <point x="280" y="672" type="curve" smooth="yes"/>
      <point x="196" y="672"/>
      <point x="152" y="618"/>
      <point x="152" y="545" type="curve" smooth="yes"/>
      <point x="152" y="485"/>
      <point x="208" y="442"/>
      <point x="275" y="417" type="curve" smooth="yes"/>
      <point x="307" y="405" type="line" smooth="yes"/>
      <point x="424" y="362"/>
      <point x="504" y="306"/>
      <point x="504" y="188" type="curve" smooth="yes"/>
      <point x="504" y="88"/>
      <point x="437" y="-11"/>
      <point x="268" y="-15" type="curve"/>
      <point x="245" y="-55" type="line"/>
      <point x="282" y="-60"/>
      <point x="334" y="-78"/>
      <point x="334" y="-142" type="curve" smooth="yes"/>
      <point x="334" y="-219"/>
      <point x="243" y="-230"/>
      <point x="212" y="-230" type="curve" smooth="yes"/>
      <point x="194" y="-230"/>
      <point x="182" y="-229"/>
      <point x="168" y="-227" type="curve"/>
      <point x="168" y="-201" type="line"/>
      <point x="217" y="-201"/>
      <point x="256" y="-186"/>
      <point x="256" y="-145" type="curve" smooth="yes"/>
      <point x="256" y="-96"/>
      <point x="212" y="-92"/>
      <point x="194" y="-91" type="curve"/>
      <point x="190" y="-84" type="line"/>
      <point x="228" y="-14" type="line"/>
      <point x="166" y="-10"/>
      <point x="98" y="9"/>
      <point x="60" y="45" type="curve"/>
    </contour>
  </outline>
</glyph>
<glyph name="scedilla" format="1">
  <advance width="436"/>
  <unicode hex="015F"/>
  <outline>
    <contour>
      <point x="47" y="167" type="line"/>
      <point x="76" y="167" type="line"/>
      <point x="96" y="82"/>
      <point x="141" y="23"/>
      <point x="222" y="23" type="curve" smooth="yes"/>
      <point x="275" y="23"/>
      <point x="315" y="55"/>
      <point x="315" y="106" type="curve" smooth="yes"/>
      <point x="315" y="174"/>
      <point x="252" y="197"/>
      <point x="207" y="211" type="curve" smooth="yes"/>
      <point x="124" y="236"/>
      <point x="56" y="273"/>
      <point x="56" y="356" type="curve" smooth="yes"/>
      <point x="56" y="451"/>
      <point x="130" y="502"/>
      <point x="238" y="502" type="curve" smooth="yes"/>
      <point x="283" y="502"/>
      <point x="334" y="492"/>
      <point x="367" y="468" type="curve"/>
      <point x="367" y="351" type="line"/>
      <point x="338" y="351" type="line"/>
      <point x="331" y="412"/>
      <point x="297" y="467"/>
      <point x="226" y="467" type="curve" smooth="yes"/>
      <point x="176" y="467"/>
      <point x="136" y="438"/>
      <point x="136" y="386" type="curve" smooth="yes"/>
      <point x="136" y="330"/>
      <point x="202" y="309"/>
      <point x="243" y="296" type="curve" smooth="yes"/>
      <point x="346" y="264"/>
      <point x="400" y="224"/>
      <point x="400" y="136" type="curve" smooth="yes"/>
      <point x="400" y="54"/>
      <point x="337" y="-7"/>
      <point x="226" y="-12" type="curve"/>
      <point x="201" y="-55" type="line"/>
      <point x="238" y="-60"/>
      <point x="290" y="-78"/>
      <point x="290" y="-142" type="curve" smooth="yes"/>
      <point x="290" y="-219"/>
      <point x="199" y="-230"/>
      <point x="168" y="-230" type="curve" smooth="yes"/>
      <point x="150" y="-230"/>
      <point x="138" y="-229"/>
      <point x="124" y="-227" type="curve"/>
      <point x="124" y="-201" type="line"/>
      <point x="173" y="-201"/>
      <point x="212" y="-186"/>
      <point x="212" y="-145" type="curve" smooth="yes"/>
      <point x="212" y="-96"/>
      <point x="168" y="-92"/>
      <point x="150" y="-91" type="curve"/>
      <point x="146" y="-84" type="line"/>
      <point x="186" y="-11" type="line"/>
      <point x="136" y="-7"/>
      <point x="88" y="9"/>
      <point x="57" y="36" type="curve"/>
    </contour>
  </outline>
</glyph>
<glyph name="Tcedilla" format="1">
  <advance width="621"/>
  <unicode hex="0162"/>
  <outline>
    <contour>
      <point x="22" y="526" type="line"/>
      <point x="22" y="692" type="line"/>
      <point x="599" y="692" type="line"/>
      <point x="599" y="526" type="line"/>
      <point x="569" y="526" type="line"/>
      <point x="557" y="635"/>
      <point x="536" y="657"/>
      <point x="419" y="657" type="curve" smooth="yes"/>
      <point x="360" y="657" type="line"/>
      <point x="360" y="93" type="line" smooth="yes"/>
      <point x="360" y="37"/>
      <point x="363" y="35"/>
      <point x="470" y="29" type="curve"/>
      <point x="470" y="0" type="line"/>
      <point x="330" y="0" type="line"/>
      <point x="298" y="-55" type="line"/>
      <point x="335" y="-60"/>
      <point x="387" y="-78"/>
      <point x="387" y="-142" type="curve" smooth="yes"/>
      <point x="387" y="-219"/>
      <point x="296" y="-230"/>
      <point x="265" y="-230" type="curve" smooth="yes"/>
      <point x="247" y="-230"/>
      <point x="235" y="-229"/>
      <point x="221" y="-227" type="curve"/>
      <point x="221" y="-201" type="line"/>
      <point x="270" y="-201"/>
      <point x="309" y="-186"/>
      <point x="309" y="-145" type="curve" smooth="yes"/>
      <point x="309" y="-96"/>
      <point x="265" y="-92"/>
      <point x="247" y="-91" type="curve"/>
      <point x="243" y="-84" type="line"/>
      <point x="289" y="0" type="line"/>
      <point x="151" y="0" type="line"/>
      <point x="151" y="29" type="line"/>
      <point x="258" y="35"/>
      <point x="261" y="37"/>
      <point x="261" y="93" type="curve" smooth="yes"/>
      <point x="261" y="657" type="line"/>
      <point x="202" y="657" type="line" smooth="yes"/>
      <point x="85" y="657"/>
      <point x="64" y="635"/>
      <point x="52" y="526" type="curve"/>
    </contour>
  </outline>
</glyph>
<glyph name="uni0163" format="2">
	<unicode hex="0163"/>
	<advance width="370"/>
	<outline>
		<contour>
			<point x="31" y="450" type="line"/>
			<point x="31" y="490" type="line"/>
			<point x="107" y="490" type="line"/>
			<point x="168" y="616" type="line"/>
			<point x="197" y="616" type="line"/>
			<point x="197" y="490" type="line"/>
			<point x="326" y="490" type="line"/>
			<point x="326" y="450" type="line"/>
			<point x="197" y="450" type="line"/>
			<point x="197" y="140" type="line" smooth="yes"/>
			<point x="197" y="64"/>
			<point x="229" y="40"/>
			<point x="273" y="40" type="curve" smooth="yes"/>
			<point x="288" y="40"/>
			<point x="310" y="43"/>
			<point x="334" y="53" type="curve"/>
			<point x="342" y="32" type="line"/>
			<point x="313" y="14"/>
			<point x="263" y="-12"/>
			<point x="212" y="-12" type="curve"/>
			<point x="187" y="-55" type="line"/>
			<point x="224" y="-60"/>
			<point x="276" y="-78"/>
			<point x="276" y="-139" type="curve" smooth="yes"/>
			<point x="276" y="-219"/>
			<point x="185" y="-230"/>
			<point x="147" y="-230" type="curve" smooth="yes"/>
			<point x="136" y="-230"/>
			<point x="124" y="-229"/>
			<point x="110" y="-227" type="curve"/>
			<point x="110" y="-201" type="line"/>
			<point x="159" y="-201"/>
			<point x="198" y="-186"/>
			<point x="198" y="-142" type="curve" smooth="yes"/>
			<point x="198" y="-96"/>
			<point x="154" y="-92"/>
			<point x="136" y="-91" type="curve"/>
			<point x="132" y="-84" type="line"/>
			<point x="174" y="-7" type="line"/>
			<point x="140" y="3"/>
			<point x="103" y="31"/>
			<point x="103" y="102" type="curve" smooth="yes"/>
			<point x="103" y="450" type="line"/>
		</contour>
	</outline>
</glyph>
<glyph name="Uhungarumlaut" format="1">
  <advance width="791"/>
  <unicode hex="0170"/>
  <outline>
    <contour>
      <point x="29" y="663" type="curve"/>
      <point x="29" y="692" type="line"/>
      <point x="308" y="692" type="line"/>
      <point x="308" y="663" type="line"/>
      <point x="221" y="657"/>
      <point x="218" y="655"/>
      <point x="218" y="599" type="curve" smooth="yes"/>
      <point x="218" y="275" type="line" smooth="yes"/>
      <point x="218" y="180"/>
      <point x="233" y="120"/>
      <point x="263" y="80" type="curve" smooth="yes"/>
      <point x="294" y="40"/>
      <point x="338" y="20"/>
      <point x="395" y="20" type="curve" smooth="yes"/>
      <point x="453" y="20"/>
      <point x="497" y="40"/>
      <point x="528" y="80" type="curve" smooth="yes"/>
      <point x="558" y="120"/>
      <point x="573" y="180"/>
      <point x="573" y="275" type="curve" smooth="yes"/>
      <point x="573" y="599" type="line" smooth="yes"/>
      <point x="573" y="655"/>
      <point x="571" y="657"/>
      <point x="483" y="663" type="curve"/>
      <point x="483" y="692" type="line"/>
      <point x="762" y="692" type="line"/>
      <point x="762" y="663" type="line"/>
      <point x="675" y="657"/>
      <point x="672" y="655"/>
      <point x="672" y="599" type="curve" smooth="yes"/>
      <point x="672" y="255" type="line" smooth="yes"/>
      <point x="672" y="195"/>
      <point x="662" y="142"/>
      <point x="645" y="107" type="curve" smooth="yes"/>
      <point x="599" y="8"/>
      <point x="494" y="-15"/>
      <point x="395" y="-15" type="curve" smooth="yes"/>
      <point x="297" y="-15"/>
      <point x="192" y="9"/>
      <point x="146" y="107" type="curve" smooth="yes"/>
      <point x="129" y="141"/>
      <point x="119" y="194"/>
      <point x="119" y="253" type="curve" smooth="yes"/>
      <point x="119" y="599" type="line" smooth="yes"/>
      <point x="119" y="655"/>
      <point x="117" y="657"/>
    </contour>
    <contour>
      <point x="276" y="766" type="line"/>
      <point x="346" y="855" type="line" smooth="yes"/>
      <point x="361" y="874"/>
      <point x="378" y="894"/>
      <point x="399" y="894" type="curve" smooth="yes"/>
      <point x="419" y="894"/>
      <point x="443" y="867"/>
      <point x="443" y="846" type="curve" smooth="yes"/>
      <point x="443" y="830"/>
      <point x="432" y="821"/>
      <point x="396" y="800" type="curve" smooth="yes"/>
      <point x="295" y="744" type="line"/>
    </contour>
    <contour>
      <point x="446" y="766" type="line"/>
      <point x="516" y="855" type="line" smooth="yes"/>
      <point x="531" y="874"/>
      <point x="548" y="894"/>
      <point x="569" y="894" type="curve" smooth="yes"/>
      <point x="589" y="894"/>
      <point x="613" y="867"/>
      <point x="613" y="846" type="curve" smooth="yes"/>
      <point x="613" y="830"/>
      <point x="602" y="821"/>
      <point x="566" y="800" type="curve" smooth="yes"/>
      <point x="465" y="744" type="line"/>
    </contour>
  </outline>
</glyph>
<glyph name="Uogonek" format="1">
  <advance width="791"/>
  <unicode hex="0172"/>
  <outline>
    <contour>
      <point x="29" y="663" type="curve"/>
      <point x="29" y="691" type="line"/>
      <point x="308" y="691" type="line"/>
      <point x="308" y="662" type="line"/>
      <point x="221" y="656"/>
      <point x="218" y="654"/>
      <point x="218" y="598" type="curve" smooth="yes"/>
      <point x="218" y="274" type="line" smooth="yes"/>
      <point x="218" y="179"/>
      <point x="233" y="119"/>
      <point x="263" y="79" type="curve" smooth="yes"/>
      <point x="294" y="39"/>
      <point x="338" y="19"/>
      <point x="395" y="19" type="curve" smooth="yes"/>
      <point x="453" y="19"/>
      <point x="497" y="39"/>
      <point x="528" y="79" type="curve" smooth="yes"/>
      <point x="558" y="119"/>
      <point x="573" y="179"/>
      <point x="573" y="274" type="curve" smooth="yes"/>
      <point x="573" y="598" type="line" smooth="yes"/>
      <point x="573" y="654"/>
      <point x="571" y="656"/>
      <point x="483" y="662" type="curve"/>
      <point x="483" y="691" type="line"/>
      <point x="762" y="691" type="line"/>
      <point x="762" y="662" type="line"/>
      <point x="675" y="656"/>
      <point x="672" y="654"/>
      <point x="672" y="598" type="curve" smooth="yes"/>
      <point x="672" y="254" type="line" smooth="yes"/>
      <point x="672" y="194"/>
      <point x="662" y="141"/>
      <point x="645" y="106" type="curve" smooth="yes"/>
      <point x="604" y="19"/>
      <point x="518" y="-9"/>
      <point x="430" y="-14" type="curve"/>
      <point x="392" y="-50"/>
      <point x="370" y="-88"/>
      <point x="370" y="-132" type="curve" smooth="yes"/>
      <point x="371" y="-168"/>
      <point x="399" y="-186"/>
      <point x="433" y="-186" type="curve" smooth="yes"/>
      <point x="450" y="-186"/>
      <point x="468" y="-182"/>
      <point x="485" y="-174" type="curve"/>
      <point x="493" y="-195" type="line"/>
      <point x="478" y="-208"/>
      <point x="462" y="-217"/>
      <point x="446" y="-223" type="curve" smooth="yes"/>
      <point x="430" y="-228"/>
      <point x="415" y="-230"/>
      <point x="400" y="-230" type="curve" smooth="yes"/>
      <point x="310" y="-230"/>
      <point x="301" y="-170"/>
      <point x="301" y="-139" type="curve" smooth="yes"/>
      <point x="301" y="-97"/>
      <point x="332" y="-48"/>
      <point x="379" y="-15" type="curve"/>
      <point x="286" y="-12"/>
      <point x="190" y="14"/>
      <point x="146" y="107" type="curve" smooth="yes"/>
      <point x="129" y="141"/>
      <point x="119" y="194"/>
      <point x="119" y="253" type="curve" smooth="yes"/>
      <point x="119" y="599" type="line" smooth="yes"/>
      <point x="119" y="655"/>
      <point x="117" y="657"/>
    </contour>
  </outline>
</glyph>
